<svg width="30" height="28" viewBox="0 0 30 28" fill="none" xmlns="http://www.w3.org/2000/svg">
<path d="M18.87 9.52004C17.48 9.05004 16.05 9.49004 14.89 10.73C15.01 9.76004 15.34 8.03004 16.18 7.52004L16.31 7.44004L15.77 6.54004L15.64 6.62004C14.37 7.38004 13.96 9.49004 13.82 10.9C12.64 9.53004 11.15 9.02004 9.7 9.52004C7.64 10.22 6.38 12.66 6.68 15.32C7 18.05 8.99 21.19 11.12 22.31C11.65 22.6 12.25 22.77 12.86 22.78C13.34 22.78 13.82 22.66 14.24 22.44C14.27 22.43 14.3 22.43 14.32 22.44C14.76 22.67 15.22 22.78 15.7 22.78C16.26 22.78 16.85 22.62 17.44 22.31C19.57 21.19 21.56 18.05 21.88 15.32C22.19 12.66 20.92 10.22 18.87 9.52004ZM20.84 15.19C20.56 17.58 18.78 20.41 16.95 21.37C16.16 21.79 15.44 21.83 14.81 21.49C14.48 21.32 14.07 21.32 13.75 21.49C13.12 21.82 12.39 21.78 11.61 21.37C9.78 20.41 8 17.57 7.72 15.19C7.43 12.74 8.67 10.98 10.03 10.51C10.28 10.42 10.54 10.38 10.79 10.38C11.81 10.38 12.81 11.08 13.6 12.39C13.67 12.51 13.77 12.6 13.89 12.67C14.13 12.8 14.43 12.8 14.67 12.67C14.79 12.6 14.89 12.51 14.96 12.39C15.95 10.76 17.25 10.07 18.53 10.51C19.89 10.98 21.12 12.74 20.84 15.19Z" fill="#87B166"/>
<path d="M9.73 8.71C10.59 9.07 11.5 9.25 12.42 9.25C12.81 9.25 13.14 9.23 13.28 9.22L13.73 9.17L13.76 8.72C13.8 8.04 13.43 7 12.53 6.35C11.48 5.59 10.86 5.46 8.08 5.39L7.33 5.37L7.55 6.07C7.97 7.38 8.4 8.11 9.73 8.71ZM8.82 6.46C10.79 6.53 11.19 6.67 11.91 7.2C12.25 7.45 12.51 7.79999 12.63 8.2C11.72 8.22 10.81 8.05 10.16 7.75C9.44 7.42 9.1 7.11 8.82 6.46Z" fill="#87B166"/>
<path d="M26.79 11.74C26.92 12.48 27 13.23 27 14C27 21.17 21.17 27 14 27C6.83 27 1 21.17 1 14C1 6.83 6.83 1 14 1C15.93 1 17.76 1.44 19.41 2.19C19.58 1.9 19.77 1.62 19.99 1.36C18.17 0.5 16.14 0 14 0C6.28 0 0 6.28 0 14C0 21.72 6.28 28 14 28C21.72 28 28 21.72 28 14C28 13.11 27.91 12.23 27.75 11.39C27.44 11.53 27.12 11.65 26.79 11.74Z" fill="#87B166"/>
<path d="M18 6C21.43 4.58 22.58 3.43 24 0C25.42 3.43 26.57 4.58 30 6C26.57 7.42 25.42 8.57 24 12C22.58 8.57 21.43 7.42 18 6Z" fill="#87B166"/>
</svg>
