<svg width="30" height="28" viewBox="0 0 30 28" fill="none" xmlns="http://www.w3.org/2000/svg">
<path d="M23.57 16.33L14.58 7.99997C14.75 7.07997 14.43 6.10997 13.75 5.41997C12.42 4.08997 9.72999 4.46997 9.41999 4.51997C9.21999 4.54997 9.05999 4.70997 9.01999 4.90997C8.99999 5.02997 8.47999 7.81997 9.91999 9.25997C10.61 9.94997 11.58 10.26 12.5 10.09L20.82 19.08C21.05 19.32 21.35 19.46 21.69 19.47C21.7 19.47 21.71 19.47 21.72 19.47C22.04 19.47 22.34 19.35 22.57 19.12L23.61 18.08C23.84 17.85 23.97 17.53 23.96 17.2C23.95 16.86 23.81 16.55 23.57 16.33ZM21.71 18.49C21.64 18.5 21.59 18.46 21.54 18.42L13.47 9.69997C13.61 9.60997 13.74 9.49997 13.87 9.37997C14 9.25997 14.1 9.12997 14.19 8.97997L22.9 17.05C22.95 17.09 22.97 17.15 22.97 17.21C22.97 17.27 22.95 17.33 22.9 17.38L21.86 18.42C21.82 18.46 21.77 18.49 21.71 18.49ZM13.06 6.11997C13.69 6.74997 13.83 7.67997 13.43 8.35997C12.8 7.87997 11.56 6.76997 11.74 5.51997C12.32 5.62997 12.77 5.82997 13.06 6.11997ZM12.67 9.01997C12 9.29997 11.18 9.12997 10.61 8.55997C9.78999 7.73997 9.85999 6.15997 9.92999 5.44997C10.14 5.42997 10.43 5.41997 10.75 5.41997C10.53 7.04997 11.83 8.35997 12.67 9.01997Z" fill="#87B166"/>
<path d="M9.77 12.8199C9.94 11.8999 9.63 10.9299 8.94 10.2399C7.61 8.90991 4.92 9.28991 4.61 9.33991C4.41 9.36991 4.25 9.52991 4.21 9.72991C4.15 10.0299 3.7 12.6599 5.11 14.0699C5.8 14.7599 6.77 15.0699 7.69 14.8999L16 23.8899C16.23 24.1299 16.53 24.2699 16.86 24.2799C16.87 24.2799 16.88 24.2799 16.89 24.2799C17.21 24.2799 17.51 24.1599 17.74 23.9299L18.78 22.8899C19.02 22.6599 19.14 22.3399 19.13 22.0099C19.12 21.6799 18.99 21.3699 18.74 21.1499L9.77 12.8199ZM16.89 23.2999C16.83 23.2999 16.77 23.2699 16.72 23.2299L8.65 14.5199C8.79 14.4299 8.92 14.3199 9.05 14.1999C9.18 14.0799 9.28 13.9499 9.37 13.7999L18.08 21.8699C18.13 21.9099 18.15 21.9699 18.15 22.0299C18.15 22.0899 18.13 22.1499 18.08 22.1999L17.04 23.2399C17.01 23.2799 16.94 23.3099 16.89 23.2999ZM8.24 10.9299C8.87 11.5599 9.01 12.4899 8.61 13.1699C7.98 12.6899 6.74 11.5799 6.92 10.3299C7.51 10.4399 7.95 10.6399 8.24 10.9299ZM7.85 13.8299C7.19 14.0999 6.36 13.9399 5.8 13.3699C4.98 12.5499 5.04 10.9599 5.12 10.2599C5.33 10.2399 5.62 10.2299 5.94 10.2299C5.72 11.8699 7.01 13.1699 7.85 13.8299Z" fill="#87B166"/>
<path d="M26.79 11.74C26.92 12.48 27 13.23 27 14C27 21.17 21.17 27 14 27C6.83 27 1 21.17 1 14C1 6.83 6.83 1 14 1C15.93 1 17.76 1.44 19.41 2.19C19.58 1.9 19.77 1.62 19.99 1.36C18.17 0.5 16.14 0 14 0C6.28 0 0 6.28 0 14C0 21.72 6.28 28 14 28C21.72 28 28 21.72 28 14C28 13.11 27.91 12.23 27.75 11.39C27.44 11.53 27.12 11.65 26.79 11.74Z" fill="#87B166"/>
<path d="M18 6C21.43 4.58 22.58 3.43 24 0C25.42 3.43 26.57 4.58 30 6C26.57 7.42 25.42 8.57 24 12C22.58 8.57 21.43 7.42 18 6Z" fill="#87B166"/>
</svg>
