<svg width="29" height="28" viewBox="0 0 29 28" fill="none" xmlns="http://www.w3.org/2000/svg">
<path d="M7.60263 13V8.716H8.62263V12.166H10.3206V13H7.60263ZM14.8669 10.852C14.8669 11.296 14.7949 11.684 14.6509 12.016C14.5069 12.344 14.2829 12.6 13.9789 12.784C13.6749 12.968 13.2849 13.06 12.8089 13.06C12.3369 13.06 11.9489 12.968 11.6449 12.784C11.3409 12.6 11.1149 12.342 10.9669 12.01C10.8229 11.678 10.7509 11.29 10.7509 10.846C10.7509 10.402 10.8229 10.016 10.9669 9.688C11.1149 9.36 11.3409 9.106 11.6449 8.926C11.9489 8.742 12.3389 8.65 12.8149 8.65C13.2909 8.65 13.6789 8.742 13.9789 8.926C14.2829 9.106 14.5069 9.362 14.6509 9.694C14.7949 10.022 14.8669 10.408 14.8669 10.852ZM11.8249 10.852C11.8249 11.272 11.9009 11.602 12.0529 11.842C12.2089 12.082 12.4609 12.202 12.8089 12.202C13.1649 12.202 13.4169 12.082 13.5649 11.842C13.7169 11.602 13.7929 11.272 13.7929 10.852C13.7929 10.432 13.7169 10.102 13.5649 9.862C13.4169 9.618 13.1669 9.496 12.8149 9.496C12.4629 9.496 12.2089 9.618 12.0529 9.862C11.9009 10.102 11.8249 10.432 11.8249 10.852ZM21.0957 8.716L20.0217 13H18.8337L18.3357 10.93C18.3237 10.89 18.3077 10.826 18.2877 10.738C18.2717 10.65 18.2537 10.554 18.2337 10.45C18.2137 10.346 18.1937 10.246 18.1737 10.15C18.1577 10.05 18.1477 9.968 18.1437 9.904C18.1357 9.968 18.1217 10.05 18.1017 10.15C18.0857 10.246 18.0677 10.346 18.0477 10.45C18.0277 10.554 18.0077 10.65 17.9877 10.738C17.9677 10.826 17.9537 10.89 17.9457 10.93L17.4417 13H16.2597L15.1797 8.716H16.1757L16.6857 10.966C16.7057 11.05 16.7297 11.162 16.7577 11.302C16.7857 11.442 16.8117 11.586 16.8357 11.734C16.8637 11.878 16.8837 11.998 16.8957 12.094C16.9117 11.966 16.9357 11.816 16.9677 11.644C16.9997 11.468 17.0317 11.3 17.0637 11.14C17.0997 10.976 17.1297 10.848 17.1537 10.756L17.6637 8.716H18.6177L19.1277 10.756C19.1437 10.824 19.1637 10.914 19.1877 11.026C19.2117 11.138 19.2357 11.26 19.2597 11.392C19.2837 11.52 19.3057 11.646 19.3257 11.77C19.3497 11.894 19.3677 12.002 19.3797 12.094C19.3917 11.998 19.4097 11.878 19.4337 11.734C19.4617 11.586 19.4897 11.444 19.5177 11.308C19.5457 11.168 19.5697 11.056 19.5897 10.972L20.0997 8.716H21.0957ZM10.7136 16.502C10.4016 16.502 10.1596 16.624 9.98761 16.868C9.81561 17.112 9.72961 17.446 9.72961 17.87C9.72961 18.306 9.81161 18.64 9.97561 18.872C10.1396 19.1 10.3956 19.214 10.7436 19.214C10.9236 19.214 11.1016 19.192 11.2776 19.148C11.4536 19.1 11.6396 19.04 11.8356 18.968V19.832C11.6436 19.912 11.4516 19.97 11.2596 20.006C11.0716 20.042 10.8656 20.06 10.6416 20.06C10.1856 20.06 9.81361 19.968 9.52561 19.784C9.23761 19.6 9.02361 19.344 8.88361 19.016C8.74761 18.688 8.67961 18.304 8.67961 17.864C8.67961 17.432 8.75761 17.05 8.91361 16.718C9.06961 16.386 9.29961 16.126 9.60361 15.938C9.90761 15.75 10.2796 15.656 10.7196 15.656C10.9276 15.656 11.1416 15.682 11.3616 15.734C11.5856 15.782 11.7996 15.856 12.0036 15.956L11.6856 16.772C11.5256 16.7 11.3656 16.638 11.2056 16.586C11.0456 16.53 10.8816 16.502 10.7136 16.502ZM15.3311 20L15.0671 19.082H13.5851L13.3211 20H12.2051L13.6631 15.698H14.9711L16.4471 20H15.3311ZM14.5871 17.372C14.5671 17.3 14.5391 17.204 14.5031 17.084C14.4711 16.96 14.4371 16.834 14.4011 16.706C14.3691 16.578 14.3431 16.47 14.3231 16.382C14.3071 16.47 14.2811 16.58 14.2451 16.712C14.2131 16.84 14.1811 16.966 14.1491 17.09C14.1171 17.21 14.0911 17.304 14.0711 17.372L13.8191 18.23H14.8391L14.5871 17.372ZM16.9513 20V15.716H17.9713V19.166H19.6693V20H16.9513Z" fill="#87B166"/>
<circle cx="14.1182" cy="14" r="13.5" stroke="#87B166"/>
</svg>
