<svg width="32" height="30" viewBox="0 0 32 30" fill="none" xmlns="http://www.w3.org/2000/svg">
<circle cx="14.3076" cy="14.1523" r="13.5" stroke="#87B166"/>
<circle cx="25.3076" cy="23.1523" r="6" fill="#87B166"/>
<path d="M27.3076 24.1523L25.3076 26.1523L23.3076 24.1523" stroke="white" stroke-linecap="round" stroke-linejoin="round"/>
<path d="M25.3076 25.1523L25.3076 20.1523" stroke="white" stroke-linecap="round"/>
<path d="M5.80762 14.1523C5.80762 10.5625 8.71777 7.65234 12.3076 7.65234H17.3076C20.8975 7.65234 23.8076 10.5625 23.8076 14.1523C23.8076 15.5331 22.6883 16.6523 21.3076 16.6523H8.30762C6.92691 16.6523 5.80762 15.5331 5.80762 14.1523Z" stroke="#87B166"/>
<path d="M16.3076 7.15234V10.6523C16.3076 11.4808 16.9792 12.1523 17.8076 12.1523V12.1523C18.636 12.1523 19.3076 11.4808 19.3076 10.6523V7.98568" stroke="#87B166"/>
<path d="M13.3076 7.15234V10.6523C13.3076 11.4808 12.636 12.1523 11.8076 12.1523V12.1523C10.9792 12.1523 10.3076 11.4808 10.3076 10.6523V7.98568" stroke="#87B166"/>
</svg>
