<svg width="30" height="28" viewBox="0 0 30 28" fill="none" xmlns="http://www.w3.org/2000/svg">
<path d="M5.52 8.92996L9.24 10.68C8.45 11.5 8.12 12.59 8.28 13.71C8.47 14.86 9.15 15.81 10.19 16.31L21.15 21.78C21.37 21.89 21.61 21.83 21.78 21.67L21.83 21.62C21.94 21.5 22 21.37 22 21.23C22 21.15 21.97 21.07 21.95 20.98L16.48 10.02C15.96 8.98996 15 8.29996 13.88 8.10996C13.01 7.96996 12.13 8.15996 11.39 8.62996L9.59 4.82996L8.61 5.29996L10.28 8.82996L6.45 4.99996L5.68 5.75996L9.51 9.58996L5.98 7.91996L5.52 8.92996ZM13.69 9.20996C14.48 9.34996 15.14 9.80996 15.49 10.55L20.33 20.17L16.5 18.26L17.35 17.41L16.58 16.64L15.49 17.73L13.93 16.96L15.41 15.48L14.64 14.71L12.89 16.46L11.09 15.56L13.47 13.18L12.7 12.41L10.14 15C9.73 14.64 9.46 14.15 9.37 13.58C9.34 13.44 9.34 13.31 9.34 13.17C9.34 12.51 9.59 11.91 10.05 11.45L10.68 10.82L11.45 10.05L11.56 9.93996C12.13 9.33996 12.92 9.09996 13.69 9.20996Z" fill="#87B166"/>
<path d="M26.79 11.74C26.92 12.48 27 13.23 27 14C27 21.17 21.17 27 14 27C6.83 27 1 21.17 1 14C1 6.83 6.83 1 14 1C15.93 1 17.76 1.44 19.41 2.19C19.58 1.9 19.77 1.62 19.99 1.36C18.17 0.5 16.14 0 14 0C6.28 0 0 6.28 0 14C0 21.72 6.28 28 14 28C21.72 28 28 21.72 28 14C28 13.11 27.91 12.23 27.75 11.39C27.44 11.53 27.12 11.65 26.79 11.74Z" fill="#87B166"/>
<path d="M18 6C21.43 4.58 22.58 3.43 24 0C25.42 3.43 26.57 4.58 30 6C26.57 7.42 25.42 8.57 24 12C22.58 8.57 21.43 7.42 18 6Z" fill="#87B166"/>
</svg>
