<svg width="30" height="28" viewBox="0 0 30 28" fill="none" xmlns="http://www.w3.org/2000/svg">
<path d="M26.79 11.74C26.92 12.48 27 13.23 27 14C27 21.17 21.17 27 14 27C6.83 27 1 21.17 1 14C1 6.83 6.83 1 14 1C15.93 1 17.76 1.44 19.41 2.19C19.58 1.9 19.77 1.62 19.99 1.36C18.17 0.5 16.14 0 14 0C6.28 0 0 6.28 0 14C0 21.72 6.28 28 14 28C21.72 28 28 21.72 28 14C28 13.11 27.91 12.23 27.75 11.39C27.44 11.53 27.12 11.65 26.79 11.74Z" fill="#87B166"/>
<path d="M18 6C21.43 4.58 22.58 3.43 24 0C25.42 3.43 26.57 4.58 30 6C26.57 7.42 25.42 8.57 24 12C22.58 8.57 21.43 7.42 18 6Z" fill="#87B166"/>
<path d="M12.11 12.35C12.01 12.45 11.96 12.57 11.96 12.71C11.96 12.85 12.01 12.97 12.11 13.07C12.31 13.27 12.63 13.27 12.83 13.07C12.93 12.97 12.98 12.85 12.98 12.71C12.98 12.57 12.93 12.45 12.83 12.35C12.73 12.25 12.6 12.2 12.47 12.2C12.34 12.2 12.21 12.25 12.11 12.35Z" fill="#87B166"/>
<path d="M10.04 11.59C9.91 11.59 9.78 11.64 9.68 11.74C9.48 11.94 9.48 12.26 9.68 12.46C9.78 12.56 9.9 12.61 10.04 12.61C10.18 12.61 10.3 12.56 10.4 12.46C10.5 12.36 10.55 12.24 10.55 12.1C10.55 11.96 10.5 11.84 10.4 11.74C10.3 11.64 10.17 11.59 10.04 11.59Z" fill="#87B166"/>
<path d="M9.94 9.67003C9.94 9.53003 9.89 9.41003 9.79 9.31003C9.69 9.21003 9.57 9.16003 9.43 9.16003C9.29 9.16003 9.17 9.21003 9.07 9.31003C8.87 9.51003 8.87 9.83003 9.07 10.03C9.27 10.23 9.59 10.23 9.79 10.03C9.89 9.93003 9.94 9.80003 9.94 9.67003Z" fill="#87B166"/>
<path d="M11.86 10.78C12 10.78 12.12 10.73 12.22 10.63C12.42 10.43 12.42 10.11 12.22 9.91001C12.12 9.81001 11.99 9.76001 11.86 9.76001C11.73 9.76001 11.6 9.81001 11.5 9.91001C11.3 10.11 11.3 10.43 11.5 10.63C11.6 10.73 11.73 10.78 11.86 10.78Z" fill="#87B166"/>
<path d="M20.92 14.03C19.91 12.52 18.86 10.95 19.05 9.10999C19.07 8.93999 19 8.78 18.88 8.67C18.75 8.56 18.58 8.52 18.42 8.56C17.37 8.83 16.51 9.3 15.88 9.97L15.81 10.04L15.74 9.97999C13.36 7.87999 10.38 6.12 8.28 6.12C7.58 6.12 6.97 6.32 6.52 6.77C4.71 8.57 6.94 12.81 9.79 15.99L9.86 16.06L9.79 16.13C9.08 16.78 8.59 17.63 8.33 18.66C8.29 18.81 8.33 18.97 8.42 19.1C8.52 19.22 8.66 19.3 8.82 19.3C10.84 19.32 12.41 20.32 13.92 21.3C16.09 22.69 18.33 24.13 21.14 21.33C23.73 18.74 22.63 16.58 20.92 14.03ZM7.25 7.48C8.47 6.26 12.31 8.26999 15.17 10.82L15.23 10.87L15.19 10.94C14.67 11.94 14.48 13.16 14.63 14.65L14.64 14.77L14.52 14.76C13.05 14.66 11.79 14.89 10.76 15.43L10.69 15.47L10.64 15.41C8.06 12.56 6.02 8.71 7.25 7.48ZM16.65 21.67C15.97 21.41 15.28 20.96 14.48 20.44L14.47 20.43C13.11 19.55 11.56 18.56 9.64 18.33L9.5 18.31L9.55 18.19C10.32 16.38 12.11 15.56 14.73 15.8L14.8 15.81L14.81 15.88C15.13 17.49 15.79 19.39 16.77 21.53L16.87 21.75L16.65 21.67ZM20.42 20.6C19.62 21.4 18.89 21.81 18.14 21.9L18.06 21.91L18.02 21.81C15.74 17.03 15.06 13.58 16.01 11.55C16.38 10.76 16.99 10.19 17.88 9.81L18.01 9.76L18.02 9.89999C18.14 11.7 19.17 13.24 20.07 14.6C21.7 17.03 22.52 18.51 20.42 20.6Z" fill="#87B166"/>
</svg>
