<svg width="28" height="28" viewBox="0 0 28 28" fill="none" xmlns="http://www.w3.org/2000/svg">
<path d="M14 0C6.28 0 0 6.28 0 14C0 21.53 5.98 27.67 13.44 27.97C13.46 27.97 13.5 27.98 13.51 27.98L13.48 27.97C13.49 27.97 13.5 27.97 13.51 27.97V27.98L13.54 27.97C13.69 27.98 13.84 28 14 28C21.72 28 28 21.72 28 14C28 6.28 21.72 0 14 0ZM8.62 25.82V16.05C8.62 14.75 9.5 13.61 10.76 13.28C10.99 13.22 11.16 13.02 11.17 12.78C11.18 12.54 11.04 12.32 10.82 12.24C9.35 11.68 8.36 10.25 8.36 8.68C8.36 6.58 10.07 4.86 12.18 4.86C14.29 4.86 16 6.56 16 8.67C16 10.24 15.01 11.67 13.54 12.23C13.32 12.32 13.17 12.53 13.19 12.77C13.2 13.01 13.37 13.21 13.6 13.27C14.62 13.54 15.41 14.35 15.66 15.36C14.24 16.07 13.34 17.53 13.34 19.12C13.34 20.44 13.98 21.7 15.03 22.49C14.11 23.12 13.55 24.16 13.55 25.3L13.52 26.98C11.78 26.91 10.12 26.51 8.62 25.82ZM18.7 23.07C19.71 23.33 20.42 24.25 20.42 25.29C18.7 26.27 16.74 26.87 14.64 26.97V25.3C14.64 24.25 15.35 23.33 16.36 23.07C16.59 23.01 16.76 22.81 16.77 22.57C16.78 22.33 16.64 22.11 16.42 22.03C15.22 21.57 14.42 20.41 14.42 19.13C14.42 17.42 15.81 16.03 17.52 16.03C19.23 16.03 20.62 17.42 20.62 19.13C20.62 20.41 19.82 21.57 18.62 22.03C18.4 22.12 18.25 22.34 18.27 22.57C18.3 22.8 18.47 23.01 18.7 23.07ZM21.44 24.64C21.27 23.77 20.78 22.99 20.04 22.49C21.09 21.7 21.73 20.45 21.73 19.12C21.73 16.8 19.84 14.92 17.53 14.92C17.25 14.92 16.97 14.95 16.69 15C16.43 14.05 15.81 13.22 14.98 12.69C16.29 11.77 17.09 10.27 17.09 8.66C17.09 5.95 14.88 3.74 12.17 3.74C9.46 3.74 7.26 5.96 7.26 8.67C7.26 10.27 8.06 11.78 9.37 12.7C8.24 13.42 7.52 14.69 7.52 16.05V25.26C3.63 23 1 18.81 1 14C1 6.83 6.83 1 14 1C21.17 1 27 6.83 27 14C27 18.4 24.8 22.29 21.44 24.64Z" fill="#87B166"/>
<path d="M19.13 20.29C19.12 20.14 19.06 20.01 18.95 19.91C18.84 19.81 18.7 19.77 18.55 19.77C18.4 19.78 18.27 19.84 18.17 19.95C17.82 20.33 17.17 20.33 16.83 19.95C16.73 19.84 16.6 19.78 16.45 19.77C16.3 19.77 16.16 19.81 16.05 19.91C15.83 20.11 15.81 20.46 16.01 20.69C16.39 21.11 16.93 21.35 17.5 21.35C18.07 21.35 18.61 21.11 18.99 20.69C19.09 20.58 19.14 20.44 19.13 20.29Z" fill="#87B166"/>
<path d="M13.76 9.93996C13.53 9.73996 13.19 9.75996 12.98 9.97996C12.64 10.36 11.98 10.36 11.64 9.97996C11.54 9.86996 11.41 9.80996 11.26 9.79996C11.11 9.78996 10.97 9.83996 10.86 9.93996C10.75 10.04 10.69 10.17 10.68 10.32C10.67 10.47 10.72 10.61 10.82 10.72C11.2 11.14 11.74 11.38 12.31 11.38C12.87 11.38 13.42 11.14 13.8 10.72C14 10.5 13.98 10.15 13.76 9.93996Z" fill="#87B166"/>
</svg>
