<svg width="31" height="31" viewBox="0 0 31 31" fill="none" xmlns="http://www.w3.org/2000/svg">
<circle cx="14.2112" cy="16.1523" r="13.5" stroke="#87B166"/>
<circle cx="24.2112" cy="6.15234" r="6" fill="#87B166"/>
<path d="M22.2112 5.15234L24.2112 3.15234L26.2112 5.15234" stroke="white" stroke-linecap="round" stroke-linejoin="round"/>
<path d="M24.2112 4.15234V9.15234" stroke="white" stroke-linecap="round"/>
<path d="M14.2112 13.1172L14.2112 26.0012" stroke="#87B166" stroke-linecap="round"/>
<path d="M9.86743 19.7188L14.2113 24.0821L18.3882 19.7188" stroke="#87B166" stroke-linecap="round"/>
<path d="M15.6011 22.7724C15.6143 18.6497 18.9539 15.3101 23.0766 15.2969C23.0634 19.4196 19.7238 22.7592 15.6011 22.7724Z" stroke="#87B166"/>
<path d="M13.6637 17.8531C10.7348 14.9242 10.7348 10.1754 13.6637 7.24651L14.2112 6.69907L14.7586 7.24651C17.6875 10.1754 17.6875 14.9242 14.7586 17.8531L14.2112 18.4005L13.6637 17.8531Z" stroke="#87B166"/>
<path d="M12.8212 22.7724C12.8081 18.6497 9.46849 15.3101 5.34578 15.2969C5.35895 19.4196 8.69853 22.7592 12.8212 22.7724Z" stroke="#87B166"/>
</svg>
