<svg width="20" height="20" viewBox="0 0 20 20" fill="none" xmlns="http://www.w3.org/2000/svg">
<path d="M10 0C4.48837 0 0 4.48837 0 10C0 15.5116 4.48837 20 10 20C15.5116 20 20 15.5116 20 10C20 4.48837 15.5116 0 10 0ZM10 18.6047C5.25581 18.6047 1.39535 14.7442 1.39535 10C1.39535 5.25581 5.25581 1.39535 10 1.39535C14.7442 1.39535 18.6047 5.25581 18.6047 10C18.6047 14.7442 14.7442 18.6047 10 18.6047Z" fill="#01402E"/>
<path d="M10.0001 7.90723C9.60475 7.90723 9.30243 8.20955 9.30243 8.6049V13.9537C9.30243 14.3491 9.60475 14.6514 10.0001 14.6514C10.3955 14.6514 10.6978 14.3491 10.6978 13.9537V8.6049C10.6978 8.20955 10.3955 7.90723 10.0001 7.90723Z" fill="#01402E"/>
<path d="M10.0001 5.34912C9.48843 5.34912 9.06982 5.76773 9.06982 6.27935C9.06982 6.79098 9.48843 7.20959 10.0001 7.20959C10.5117 7.20959 10.9303 6.79098 10.9303 6.27935C10.9303 5.76773 10.5117 5.34912 10.0001 5.34912Z" fill="#01402E"/>
</svg>
