<svg width="30" height="28" viewBox="0 0 30 28" fill="none" xmlns="http://www.w3.org/2000/svg">
<path d="M23.29 18.57C23.23 18.49 23.15 18.43 23.06 18.39C22.97 18.35 22.87 18.34 22.77 18.36C22.47 18.41 22.17 18.44 21.87 18.47C21.99 18.14 22.05 17.79 22.06 17.44C22.1 15.6 20.63 14.07 18.79 14.03C18.61 14.03 18.43 14.04 18.25 14.06C17.96 14.1 17.76 14.37 17.8 14.66C17.84 14.95 18.11 15.16 18.4 15.11C18.52 15.09 18.65 15.09 18.77 15.09C20.02 15.12 21.02 16.16 21 17.41C20.99 17.81 20.87 18.19 20.66 18.53C20.55 18.53 20.43 18.54 20.32 18.54C18.95 18.51 17.63 18.26 16.38 17.83C17.03 17.22 17.42 16.37 17.44 15.47C17.47 14.01 16.52 12.67 15.13 12.22C14.85 12.13 14.55 12.28 14.46 12.56C14.37 12.84 14.52 13.14 14.8 13.23C15.75 13.54 16.39 14.45 16.37 15.44C16.35 16.25 15.93 16.97 15.22 17.37C14.12 16.86 13.11 16.2 12.2 15.41C13.23 14.84 13.9 13.78 13.92 12.57C13.96 10.73 12.49 9.2 10.65 9.16C9.88 9.15 9.12 9.41 8.52 9.89C8.38 9.47 8.25 9.04 8.15 8.6C8.15 8.58 8.15 8.57 8.15 8.55C8.1 8.23 8.08 7.91 8.08 7.59C8.1 6.61 8.4 5.66 8.95 4.84C9.11 4.6 9.05 4.27 8.8 4.1C8.56 3.94 8.23 4 8.06 4.25C7.41 5.23 7.04 6.38 7.02 7.57C7.01 7.89 7.05 8.21 7.09 8.53C6.12 9.62 5.55 11 5.52 12.47C5.48 14.5 6.43 16.4 8.08 17.59C8.82 20.16 11.17 21.97 13.85 22.03C14.27 22.04 14.71 22 15.15 21.91C15.96 22.3 16.81 22.51 17.71 22.53C20.07 22.58 22.27 21.24 23.33 19.13C23.37 19.04 23.39 18.94 23.38 18.85C23.38 18.74 23.35 18.65 23.29 18.57ZM10.64 10.23C11.89 10.26 12.89 11.3 12.87 12.55C12.85 13.49 12.26 14.31 11.39 14.63C10.38 13.57 9.54 12.34 8.94 10.97C9.38 10.49 9.98 10.21 10.64 10.23ZM17.74 21.46C16.95 21.44 16.19 21.25 15.48 20.87C15.37 20.81 15.24 20.79 15.11 20.82C14.69 20.92 14.27 20.96 13.88 20.95C11.6 20.9 9.62 19.33 9.06 17.12C9.03 17 8.95 16.89 8.84 16.81C7.39 15.84 6.55 14.22 6.58 12.48C6.6 11.54 6.88 10.64 7.38 9.86C9.11 15.53 14.27 19.48 20.29 19.6C20.79 19.61 21.29 19.59 21.8 19.55C20.82 20.77 19.32 21.49 17.74 21.46Z" fill="#87B166"/>
<path d="M26.79 11.74C26.92 12.48 27 13.23 27 14C27 21.17 21.17 27 14 27C6.83 27 1 21.17 1 14C1 6.83 6.83 1 14 1C15.93 1 17.76 1.44 19.41 2.19C19.58 1.9 19.77 1.62 19.99 1.36C18.17 0.5 16.14 0 14 0C6.28 0 0 6.28 0 14C0 21.72 6.28 28 14 28C21.72 28 28 21.72 28 14C28 13.11 27.91 12.23 27.75 11.39C27.44 11.53 27.12 11.65 26.79 11.74Z" fill="#87B166"/>
<path d="M18 6C21.43 4.58 22.58 3.43 24 0C25.42 3.43 26.57 4.58 30 6C26.57 7.42 25.42 8.57 24 12C22.58 8.57 21.43 7.42 18 6Z" fill="#87B166"/>
</svg>
