<svg width="30" height="28" viewBox="0 0 30 28" fill="none" xmlns="http://www.w3.org/2000/svg">
<path d="M26.79 11.74C26.92 12.48 27 13.23 27 14C27 21.17 21.17 27 14 27C6.83 27 1 21.17 1 14C1 6.83 6.83 1 14 1C15.93 1 17.76 1.44 19.41 2.19C19.58 1.9 19.77 1.62 19.99 1.36C18.17 0.5 16.14 0 14 0C6.28 0 0 6.28 0 14C0 21.72 6.28 28 14 28C21.72 28 28 21.72 28 14C28 13.11 27.91 12.23 27.75 11.39C27.44 11.53 27.12 11.65 26.79 11.74Z" fill="#87B166"/>
<path d="M18 6C21.43 4.58 22.58 3.43 24 0C25.42 3.43 26.57 4.58 30 6C26.57 7.42 25.42 8.57 24 12C22.58 8.57 21.43 7.42 18 6Z" fill="#87B166"/>
<path d="M23.07 13.89C22.69 12.31 21.41 10.84 19.62 9.96003C19.42 9.86003 19.2 9.77003 19 9.68003C18.43 9.43003 17.9 9.20003 17.53 8.80003C17.34 8.60003 17.17 8.38003 16.98 8.15003C16.62 7.67003 16.21 7.24003 15.74 6.85003C15.07 6.33003 14.27 6.00003 13.44 5.87003C12.6 5.74003 11.74 5.83003 10.95 6.12003C10.2 6.36003 9.54001 6.81003 9.02001 7.40003C8.51001 7.99003 8.15001 8.71003 7.99001 9.47003C7.76001 10.56 7.92001 11.67 8.45001 12.78L8.52001 12.93L8.68001 12.89C8.86001 12.84 9.04001 12.8 9.23001 12.75L9.48001 12.69L9.36001 12.46C9.27001 12.28 9.19001 12.09 9.12001 11.91L9.32001 11.61C9.39001 11.51 9.42001 11.38 9.39001 11.26C9.37001 11.14 9.30001 11.03 9.20001 10.96C9.10001 10.89 8.98001 10.86 8.86001 10.87C8.82001 10.47 8.83001 10.07 8.92001 9.67003C9.06001 9.06003 9.34001 8.50003 9.75001 8.03003C10.16 7.57003 10.68 7.21003 11.27 7.01003C11.72 6.85003 12.19 6.76003 12.67 6.76003C12.68 6.76003 12.68 6.76003 12.69 6.76003C13.57 6.76003 14.45 7.06003 15.14 7.59003C15.54 7.93003 15.9 8.32003 16.22 8.74003C16.41 8.97003 16.61 9.22003 16.82 9.44003C16.9 9.54003 17 9.62003 17.09 9.70003C17.02 9.80003 16.94 9.88003 16.84 9.94003C16.73 10.01 16.65 10.11 16.62 10.24C16.59 10.37 16.61 10.5 16.68 10.61C16.75 10.72 16.85 10.79 16.98 10.82C17.1 10.85 17.23 10.83 17.34 10.76C17.56 10.62 17.75 10.43 17.9 10.22C18.14 10.34 18.39 10.45 18.61 10.55C18.81 10.64 19 10.72 19.19 10.81C19.88 11.15 20.5 11.6 21.03 12.16L20.91 12.34C20.87 12.39 20.85 12.45 20.84 12.51C20.83 12.57 20.83 12.64 20.84 12.7C20.85 12.76 20.88 12.82 20.91 12.87C20.95 12.92 20.99 12.97 21.04 13C21.09 13.03 21.15 13.06 21.21 13.07C21.27 13.08 21.34 13.08 21.4 13.07C21.46 13.06 21.52 13.03 21.57 13C21.59 12.98 21.62 12.97 21.64 12.95C21.86 13.31 22.02 13.69 22.13 14.1C22.26 14.69 22.26 15.31 22.13 15.9C22 16.49 21.74 17.05 21.37 17.53C20.71 18.36 19.76 18.62 19.08 18.7L18.95 18.72L18.91 18.84C18.85 19.03 18.78 19.22 18.7 19.4L18.57 19.7L18.9 19.68C20.24 19.59 21.38 19.04 22.12 18.13C22.58 17.54 22.91 16.84 23.07 16.11C23.24 15.39 23.24 14.61 23.07 13.89Z" fill="#87B166"/>
<path d="M17.61 14.05C16.39 12.97 14.59 12.47 12.25 12.57C10.4 12.65 4.77 12.89 4.8 17.65C4.81 20 6.93 21.6 8.9 22.08C10.03 22.36 11.19 22.5 12.36 22.51C14.22 22.51 16.72 22.11 18.08 20.2C19.29 18.51 19.39 15.63 17.61 14.05ZM15.21 20.57C15.12 20.66 15.07 20.78 15.07 20.91V21.17C13.49 21.69 11.28 21.68 9.13 21.15C9.04 21.13 8.95 21.1 8.86 21.07V20.63C8.86 20.5 8.81 20.38 8.72 20.29C8.54 20.11 8.22 20.11 8.04 20.29C7.95 20.38 7.9 20.5 7.9 20.63V20.68C6.57 19.98 5.78 18.86 5.77 17.64C5.75 15.2 7.55 13.9 11.42 13.58V13.73C11.42 13.86 11.47 13.98 11.56 14.07C11.74 14.25 12.06 14.25 12.24 14.07C12.33 13.98 12.38 13.86 12.38 13.73V13.52C12.53 13.52 12.73 13.51 12.83 13.51C14.65 13.51 16.04 13.93 16.98 14.76C18.37 16 18.27 18.28 17.31 19.63C16.97 20.1 16.53 20.48 16.02 20.76C16 20.68 15.96 20.62 15.9 20.56C15.71 20.39 15.39 20.39 15.21 20.57Z" fill="#87B166"/>
<path d="M7.19 16.63C7.1 16.72 7.05 16.84 7.05 16.97V17.53C7.05 17.66 7.1 17.78 7.19 17.87C7.28 17.96 7.4 18.01 7.53 18.01C7.66 18.01 7.78 17.96 7.87 17.87C7.96 17.78 8.01 17.66 8.01 17.53V16.97C8.01 16.84 7.96 16.72 7.87 16.63C7.69 16.45 7.37 16.45 7.19 16.63Z" fill="#87B166"/>
<path d="M11.41 17.1901C11.32 17.2801 11.27 17.4001 11.27 17.5301V18.0901C11.27 18.2201 11.32 18.3401 11.41 18.4301C11.5 18.5201 11.62 18.5701 11.75 18.5701C11.88 18.5701 12 18.5201 12.09 18.4301C12.18 18.3401 12.23 18.2201 12.23 18.0901V17.5301C12.23 17.4001 12.18 17.2801 12.09 17.1901C11.91 17.0101 11.59 17.0101 11.41 17.1901Z" fill="#87B166"/>
<path d="M11.6 9.85004C11.68 9.85004 11.76 9.83003 11.83 9.79003C11.9 9.75003 11.96 9.70003 12.01 9.63003L12.29 9.21003C12.33 9.16003 12.35 9.10003 12.36 9.04003C12.37 8.98003 12.37 8.91004 12.36 8.85004C12.35 8.79004 12.32 8.73003 12.29 8.68003C12.25 8.63003 12.21 8.58003 12.16 8.55003C12.11 8.52003 12.05 8.49003 11.98 8.48003C11.92 8.47003 11.86 8.47003 11.79 8.48003C11.73 8.49003 11.67 8.52003 11.62 8.55003C11.57 8.59003 11.52 8.63003 11.49 8.68003L11.21 9.10004C11.16 9.17004 11.14 9.26003 11.13 9.34003C11.12 9.42003 11.15 9.51003 11.19 9.59003C11.23 9.67003 11.29 9.73004 11.37 9.77004C11.44 9.83004 11.52 9.85004 11.6 9.85004Z" fill="#87B166"/>
<path d="M14.41 12.3901C14.5 12.3901 14.58 12.3701 14.64 12.3301C14.71 12.2901 14.77 12.2401 14.81 12.1701L15.09 11.7501C15.13 11.7001 15.15 11.6401 15.16 11.5801C15.17 11.5201 15.17 11.4501 15.16 11.3901C15.15 11.3301 15.12 11.2701 15.09 11.2101C15.06 11.1501 15.01 11.1101 14.96 11.0801C14.91 11.0501 14.85 11.0201 14.78 11.0101C14.72 11.0001 14.65 11.0001 14.59 11.0101C14.53 11.0201 14.47 11.0501 14.42 11.0801C14.37 11.1201 14.32 11.1601 14.29 11.2101L14 11.6401C13.96 11.7101 13.93 11.8001 13.93 11.8801C13.93 11.9601 13.95 12.0501 13.99 12.1201C14.03 12.1901 14.09 12.2601 14.16 12.3001C14.25 12.3601 14.33 12.3901 14.41 12.3901Z" fill="#87B166"/>
<path d="M20.04 16.33C20.12 16.33 20.2 16.31 20.27 16.27C20.34 16.23 20.4 16.18 20.45 16.11L20.73 15.69C20.77 15.64 20.79 15.58 20.8 15.52C20.81 15.46 20.81 15.39 20.8 15.33C20.79 15.27 20.76 15.21 20.73 15.16C20.69 15.11 20.65 15.06 20.6 15.03C20.55 15 20.49 14.97 20.43 14.96C20.37 14.95 20.31 14.95 20.24 14.96C20.18 14.97 20.12 15 20.06 15.03C20.01 15.07 19.96 15.11 19.93 15.16L19.65 15.59C19.6 15.66 19.58 15.75 19.57 15.83C19.57 15.92 19.59 16 19.63 16.08C19.67 16.16 19.73 16.22 19.8 16.26C19.87 16.3 19.96 16.32 20.04 16.33Z" fill="#87B166"/>
<path d="M16.31 17.88C16.4 17.79 16.45 17.67 16.45 17.54V16.98C16.45 16.85 16.4 16.73 16.31 16.64C16.13 16.46 15.81 16.46 15.63 16.64C15.54 16.73 15.49 16.85 15.49 16.98V17.54C15.49 17.67 15.54 17.79 15.63 17.88C15.72 17.97 15.84 18.02 15.97 18.02C16.1 18.02 16.22 17.97 16.31 17.88Z" fill="#87B166"/>
</svg>
