<svg width="30" height="31" viewBox="0 0 30 31" fill="none" xmlns="http://www.w3.org/2000/svg">
<circle cx="14" cy="17" r="13.5" stroke="#87B166"/>
<path d="M9.52361 10.6762C10.162 10.0883 11.0467 9.83105 11.9931 9.83105C14.3322 9.83105 15.7317 12.4332 14.4423 14.3848L13.5085 15.7982C12.9271 16.6781 12.9522 17.8263 13.5715 18.68L13.9649 19.2222C15.3958 21.1944 13.9868 23.9573 11.5502 23.9573C10.6894 23.9573 9.88972 23.703 9.3277 23.1516C8.11966 21.9663 6.39967 19.7441 6.48737 16.7912C6.57298 13.9084 8.28667 11.8153 9.52361 10.6762Z" stroke="#87B166"/>
<path d="M11.9589 14.9268C10.9773 16.072 10.9363 18.4853 11.959 19.5488" stroke="#87B166" stroke-linecap="round"/>
<path d="M13.1473 23.5325L13.2557 23.6154C15.4854 25.3206 18.7048 23.7478 18.7303 20.9409V20.9409C18.7371 20.1873 19.2105 19.5169 19.9183 19.2583L21.3704 18.7279C23.7031 17.8758 24.1509 14.7709 22.154 13.2944V13.2944C21.409 12.7435 20.5217 12.398 19.5997 12.49C18.0202 12.6476 15.4583 13.2584 13.7247 15.4629" stroke="#87B166" stroke-linecap="round"/>
<path d="M19.6544 17.3414C18.1842 17.6787 16.7165 19.5947 16.9065 21.0579" stroke="#87B166" stroke-linecap="round"/>
<path d="M12.8208 13.6484H12.8562M21.1342 16.8682H21.1696" stroke="#87B166" stroke-linecap="round"/>
<circle cx="24" cy="6" r="6" transform="rotate(180 24 6)" fill="#87B166"/>
<path d="M22 5L24 3L26 5" stroke="white" stroke-linecap="round" stroke-linejoin="round"/>
<path d="M24 4L24 9" stroke="white" stroke-linecap="round"/>
</svg>
