<svg width="28" height="28" viewBox="0 0 28 28" fill="none" xmlns="http://www.w3.org/2000/svg">
<path fill-rule="evenodd" clip-rule="evenodd" d="M14 27C21.1797 27 27 21.1797 27 14C27 6.8203 21.1797 1 14 1C6.8203 1 1 6.8203 1 14C1 21.1797 6.8203 27 14 27ZM14 28C21.732 28 28 21.732 28 14C28 6.26801 21.732 0 14 0C6.26801 0 0 6.26801 0 14C0 21.732 6.26801 28 14 28Z" fill="#87B166"/>
<path fill-rule="evenodd" clip-rule="evenodd" d="M13.9702 4.0001C13.9885 4 14.0068 4 14.0251 4L14.0332 4.00005H14.0375C14.0575 4.00014 14.0775 4.00029 14.0975 4.00052L14.109 4.00062L14.1146 4.00071H14.1163L14.1192 4.00076L14.127 4.00086L14.1319 4.00095H14.1346L14.1384 4.00105L14.1448 4.00114L14.1495 4.00119L14.1528 4.00124L14.1571 4.00133L14.1627 4.00143L14.1674 4.00152L14.1711 4.00157L14.1754 4.00167L14.1806 4.00176L14.1856 4.00186L14.1893 4.00195L14.1932 4.002L14.1985 4.00214L14.2041 4.00224L14.2076 4.00233L14.2107 4.00238L14.2164 4.00252L14.2232 4.00271L14.2258 4.00276L14.228 4.00281L14.2343 4.00295L14.2428 4.00319L14.245 4.00324C17.2283 4.08171 20.1562 5.55609 21.9854 7.97009C22.0086 8.00076 22.0317 8.03161 22.0546 8.06257C22.0665 8.07871 22.0784 8.09485 22.0902 8.11104C22.1337 8.17061 22.1765 8.23071 22.2188 8.29119L22.2202 8.29409C23.9354 10.7675 24.4667 14.0298 23.5694 16.9429C23.2738 17.9024 22.8273 18.8108 22.2587 19.6358C22.2468 19.6607 22.2321 19.6845 22.2188 19.7087C22.218 19.7102 22.1774 19.7677 22.1767 19.7687C22.1268 19.8392 22.0759 19.9091 22.0242 19.9783C21.5534 20.608 21.007 21.177 20.4028 21.6756C19.6351 22.3192 18.7721 22.8504 17.8422 23.237C17.2303 23.4915 16.593 23.6805 15.9429 23.8048C15.3272 23.9295 14.6982 23.9961 14.0649 23.9998C12.3535 24.0098 10.6465 23.5711 9.15117 22.7435C8.96884 22.6428 8.78955 22.5361 8.6137 22.4234C8.57554 22.3989 8.53756 22.3742 8.49978 22.3493C8.45948 22.3226 8.41931 22.2957 8.37939 22.2685C7.37115 21.5816 6.49097 20.7078 5.79161 19.7087L5.73829 19.6032L5.73791 19.6013C4.64777 17.9871 4.01301 16.057 4.0002 14.0646C3.98724 12.0519 4.61971 10.0568 5.74801 8.38685C5.75983 8.35414 5.77469 8.32209 5.79165 8.29119C5.79237 8.2899 5.8332 8.23204 5.83377 8.23128C6.23355 7.66676 6.69103 7.14876 7.19525 6.68357C7.5874 6.31457 8.01077 5.97657 8.46243 5.67547C9.94835 4.6849 11.6963 4.11 13.4855 4.01419C13.6253 4.00662 13.7653 4.002 13.9058 4.00048C13.9128 4.00043 13.9198 4.00033 13.9267 4.00029C13.9314 4.00029 13.936 4.00024 13.9407 4.00019C13.9505 4.00014 13.9604 4.0001 13.9702 4.0001ZM14.4214 18.1677V23.1259C14.535 23.1057 14.6486 23.0762 14.7617 23.0365C15.5728 22.7515 16.191 22.0917 16.6581 21.4095C17.2491 20.546 17.6632 19.5744 17.9541 18.5556C16.796 18.3142 15.6093 18.1919 14.4214 18.1677ZM13.589 18.1676C12.4011 18.1913 11.2166 18.314 10.0619 18.5547C10.1512 18.856 10.2507 19.154 10.3605 19.4479C10.7863 20.5876 11.3667 21.7041 12.3099 22.4875C12.6777 22.793 13.1194 23.0225 13.589 23.1149V18.1676ZM18.7575 18.7438C18.3351 20.2354 17.6878 21.6962 16.6035 22.7867C16.7896 22.7322 16.974 22.6718 17.1563 22.6058C18.2604 22.1967 19.2863 21.5755 20.1631 20.7858C20.5519 20.4291 20.9099 20.0386 21.2329 19.6203C20.4347 19.2542 19.6058 18.9649 18.7575 18.7438ZM9.24917 18.7452C8.40459 18.9657 7.57978 19.2536 6.78546 19.6166L6.77069 19.6234C7.27872 20.2685 7.87322 20.8461 8.53199 21.3382C9.38953 21.9682 10.3567 22.4517 11.3797 22.7625C10.9925 22.3651 10.6632 21.9072 10.3849 21.4395C9.88613 20.6013 9.51822 19.6903 9.24917 18.7452ZM6.27777 9.06452C4.62705 11.6678 4.36272 15.1234 5.73725 17.9729C5.89738 18.3048 6.07838 18.626 6.27829 18.935C7.1617 18.515 8.09076 18.1863 9.04459 17.9387C8.95783 17.5522 8.8856 17.1619 8.82581 16.7703C8.4864 14.547 8.53118 12.2448 9.04159 10.0599C8.08966 9.81285 7.16213 9.48471 6.27777 9.06452ZM21.727 9.06752C20.8429 9.48804 19.918 9.81842 18.9684 10.0672C19.0518 10.443 19.1217 10.8218 19.1802 11.2007C19.5253 13.4365 19.4683 15.7399 18.9653 17.9327C19.9077 18.1783 20.8296 18.5062 21.719 18.9287C22.6351 17.4924 23.1667 15.8017 23.1779 14.0593C23.1892 12.3006 22.6688 10.5511 21.727 9.06752ZM9.85244 10.2498C9.76363 10.6528 9.69131 11.0596 9.63214 11.4658C9.32845 13.5511 9.37181 15.7119 9.84887 17.7502C11.0792 17.4917 12.3403 17.3605 13.589 17.3357V10.6657C13.3123 10.6596 13.036 10.6483 12.7604 10.632C11.7845 10.5742 10.8091 10.4504 9.85244 10.2498ZM18.1594 10.2584C16.9348 10.5174 15.6776 10.6481 14.4214 10.6683V17.3354C15.679 17.3589 16.9332 17.4861 18.1588 17.7433C18.2472 17.3437 18.3193 16.9395 18.3783 16.5341C18.6818 14.4499 18.6341 12.3007 18.1594 10.2584ZM14.4214 4.87295V9.83276C15.6061 9.81023 16.7898 9.68866 17.9465 9.44747C17.9039 9.30233 17.8591 9.1579 17.8119 9.01423C17.3869 7.71909 16.7983 6.44633 15.7383 5.54419C15.3604 5.22247 14.9135 4.96862 14.4214 4.87295ZM13.589 4.87467C12.7439 5.04567 12.0083 5.70347 11.5116 6.36785C10.8309 7.27833 10.3695 8.33514 10.0547 9.4439C11.2124 9.68566 12.4006 9.80914 13.589 9.83252V4.87467ZM11.3952 5.22528C10.425 5.51909 9.50054 5.97071 8.67225 6.5569C7.99266 7.03895 7.37701 7.61223 6.85135 8.26423C6.80595 8.3209 6.7645 8.37371 6.7645 8.37371C7.56415 8.74142 8.39763 9.03295 9.25222 9.2558C9.3134 9.04566 9.3791 8.83685 9.44942 8.62961C9.8735 7.37957 10.4661 6.17147 11.3933 5.22728L11.3952 5.22528ZM16.5951 5.21705C16.8096 5.42766 17.0055 5.65428 17.1786 5.88733C17.9192 6.88404 18.423 8.04176 18.7648 9.25533C19.6063 9.03499 20.4299 8.74709 21.2249 8.38338L21.242 8.37557C21.1057 8.19909 20.9631 8.02757 20.8141 7.86147C19.6826 6.61781 18.2051 5.7 16.5951 5.21705Z" fill="#87B166"/>
</svg>
