<svg width="30" height="28" viewBox="0 0 30 28" fill="none" xmlns="http://www.w3.org/2000/svg">
<path d="M18 6C21.43 4.58 22.58 3.43 24 0C25.42 3.43 26.57 4.58 30 6C26.57 7.42 25.42 8.57 24 12C22.58 8.57 21.43 7.42 18 6Z" fill="#87B166"/>
<path d="M27.75 11.39C27.44 11.53 27.13 11.65 26.79 11.75C26.92 12.48 27 13.23 27 14C27 19.89 23.07 24.86 17.69 26.46V22.87L18.67 21.51C18.89 21.21 19.19 20.97 19.53 20.82C20.44 20.43 21.12 19.67 21.41 18.72C21.63 18 21.6 17.22 21.33 16.53L21.27 16.39L21.4 16.3C22.1 15.82 22.58 15.1 22.77 14.27C22.96 13.39 22.8 12.5 22.32 11.74L22.16 11.49L22.17 11.42C22.41 9.62 21.22 7.9 19.44 7.51C18.6 7.32 17.72 7.45 16.96 7.88L16.8 7.97L16.7 7.82C16.04 6.82 14.94 6.23 13.76 6.23C12.57 6.23 11.46 6.83 10.81 7.84L10.71 7.99L10.55 7.9C10.01 7.59 9.41 7.44 8.81 7.44C8.56 7.44 8.3 7.47 8.05 7.52C6.27 7.91 5.07 9.63 5.32 11.43L5.33 11.5L5.17 11.75C4.69 12.51 4.53 13.4 4.72 14.28C4.9 15.11 5.39 15.83 6.09 16.31L6.22 16.4L6.16 16.54C5.89 17.24 5.86 18.02 6.08 18.73C6.37 19.67 7.06 20.44 7.97 20.83C8.31 20.98 8.61 21.21 8.83 21.52L9.81 22.88V26.31C4.7 24.55 1 19.71 1 14C1 6.83 6.83 1 14 1C15.93 1 17.76 1.44 19.41 2.19C19.58 1.9 19.77 1.62 19.99 1.36C18.17 0.5 16.14 0 14 0C6.28 0 0 6.28 0 14C0 21.72 6.28 28 14 28C21.72 28 28 21.72 28 14C28 13.11 27.91 12.23 27.75 11.39ZM14.39 26.98C14.26 26.98 14.13 27 14 27C13.71 27 13.43 26.98 13.15 26.96V22.68H14.39V26.98ZM16.66 26.72C16.25 26.8 15.84 26.87 15.42 26.91V23.41H16.66V26.72ZM17.31 8.87C17.88 8.49 18.56 8.36 19.23 8.51C20.57 8.81 21.42 10.14 21.13 11.48C21.1 11.61 21.13 11.75 21.2 11.87L21.47 12.3C21.8 12.82 21.91 13.45 21.78 14.05C21.65 14.65 21.28 15.17 20.76 15.51L20.33 15.78C20.21 15.85 20.13 15.97 20.1 16.1C20.07 16.23 20.1 16.37 20.17 16.49C20.54 17.07 20.63 17.77 20.43 18.43C20.23 19.09 19.75 19.61 19.12 19.88C18.61 20.1 18.16 20.46 17.83 20.91L16.75 22.4H15.65L15.44 21.39L16.02 20.07C16.11 19.86 16.24 19.67 16.39 19.5L16.5 19.38L16.64 19.46C16.69 19.49 16.74 19.51 16.79 19.52C16.93 19.55 17.06 19.52 17.18 19.45L19.03 18.27C19.27 18.12 19.34 17.8 19.19 17.56C19.04 17.32 18.72 17.25 18.48 17.4L17.9 17.77L18.02 17.29C18.06 17.12 18.09 16.94 18.11 16.75C18.16 16.09 18.02 15.43 17.7 14.85L17.5 14.49L17.91 14.57C18.04 14.59 18.17 14.57 18.28 14.5L20.13 13.32C20.37 13.17 20.44 12.85 20.29 12.61C20.22 12.49 20.1 12.41 19.97 12.38C19.84 12.35 19.7 12.38 19.58 12.45L18.32 13.25L18.41 12.8C18.46 12.57 18.48 12.34 18.48 12.11C18.48 11.21 18.13 10.37 17.5 9.74L17.29 9.53L17.28 9.46C17.27 9.33 17.25 9.21 17.23 9.09L17.21 8.96L17.31 8.87ZM10.77 10.45L11.13 10.09C11.23 9.99 11.28 9.86 11.28 9.73C11.28 8.36 12.4 7.24 13.77 7.24C15.14 7.24 16.26 8.36 16.26 9.73C16.26 9.87 16.31 10 16.41 10.09L16.77 10.45C17.21 10.89 17.45 11.47 17.45 12.09C17.45 12.71 17.21 13.3 16.77 13.73L16.41 14.09C16.21 14.29 16.21 14.62 16.41 14.82C16.89 15.3 17.14 15.97 17.08 16.65C17.02 17.33 16.67 17.95 16.12 18.35C15.67 18.68 15.31 19.12 15.08 19.63L14.73 20.43L14.67 20.46C14.64 20.47 14.62 20.49 14.59 20.51L14.28 20.74V18.19L15.68 16.79C15.88 16.59 15.88 16.26 15.68 16.06C15.48 15.86 15.15 15.86 14.95 16.06L14.28 16.73V13.12L15.68 11.72C15.78 11.62 15.83 11.49 15.83 11.36C15.83 11.23 15.78 11.09 15.68 11C15.48 10.8 15.15 10.8 14.95 11L14.28 11.67V10.57C14.28 10.29 14.05 10.05 13.76 10.05C13.47 10.05 13.24 10.28 13.24 10.57V11.67L12.57 11C12.37 10.8 12.04 10.8 11.84 11C11.64 11.2 11.64 11.53 11.84 11.73L13.24 13.13V16.74L12.57 16.07C12.38 15.87 12.04 15.87 11.84 16.07C11.64 16.27 11.64 16.6 11.84 16.8L13.24 18.2V20.8L12.92 20.53C12.89 20.51 12.86 20.49 12.83 20.47L12.77 20.44L12.39 19.6C12.17 19.11 11.82 18.68 11.38 18.36C10.82 17.95 10.47 17.33 10.42 16.65C10.37 15.97 10.61 15.31 11.09 14.82C11.2 14.71 11.26 14.58 11.26 14.44C11.26 14.3 11.21 14.17 11.11 14.08L10.75 13.72C10.31 13.28 10.07 12.7 10.07 12.08C10.07 11.46 10.33 10.89 10.77 10.45ZM9.67 20.9C9.34 20.45 8.9 20.09 8.38 19.87C7.75 19.6 7.28 19.07 7.07 18.42C6.87 17.77 6.96 17.06 7.33 16.48C7.4 16.36 7.43 16.23 7.4 16.09C7.37 15.96 7.29 15.84 7.17 15.77L6.76 15.5C6.24 15.17 5.87 14.65 5.74 14.04C5.61 13.43 5.72 12.81 6.05 12.29L6.32 11.86C6.39 11.74 6.42 11.61 6.39 11.47C6.09 10.13 6.94 8.8 8.28 8.5C8.95 8.35 9.66 8.49 10.23 8.88L10.33 8.95L10.31 9.07C10.29 9.19 10.27 9.3 10.26 9.42L10.25 9.49L10.04 9.7C9.41 10.33 9.06 11.18 9.06 12.07C9.06 12.31 9.09 12.55 9.14 12.78L9.24 13.24L7.94 12.41C7.82 12.34 7.69 12.31 7.55 12.34C7.41 12.4 7.3 12.48 7.22 12.6C7.14 12.72 7.12 12.85 7.15 12.99C7.18 13.13 7.26 13.24 7.38 13.31L9.23 14.49C9.34 14.56 9.49 14.59 9.62 14.56L10.06 14.45L9.84 14.84C9.51 15.42 9.37 16.08 9.42 16.75C9.43 16.93 9.46 17.11 9.51 17.29L9.63 17.76L9.04 17.38C8.92 17.31 8.78 17.28 8.65 17.31C8.52 17.34 8.4 17.42 8.33 17.54C8.26 17.66 8.23 17.79 8.26 17.93C8.29 18.06 8.37 18.18 8.49 18.25L10.34 19.43C10.45 19.5 10.6 19.53 10.73 19.5C10.78 19.49 10.83 19.47 10.88 19.44L11 19.37L11.11 19.49C11.26 19.65 11.38 19.84 11.47 20.04L12.06 21.36L11.85 22.4H10.75L9.67 20.9ZM10.85 23.64H12.09V26.85C11.67 26.79 11.26 26.71 10.85 26.6V23.64Z" fill="#87B166"/>
</svg>
