<svg viewbox="0 0 126 126" width="126" height="126" fill="none" xmlns="http://www.w3.org/2000/svg">
  <g clip-path="url(#a)">
    <path d="M122.258 42.642c-16.128 3.53-36.79 5.784-59.263 5.784S19.83 46.172 3.743 42.642c0 30.794 26.512 56.033 59.252 56.033s59.263-25.24 59.263-56.033Zm0 0a218.582 218.582 0 0 0-12.485-2.333M89.488 92.78v9.972a3.01 3.01 0 0 1-.489 1.62c-.314.481-.76.86-1.283 1.093a63.053 63.053 0 0 1-24.75 4.756 63.052 63.052 0 0 1-24.751-4.756 2.983 2.983 0 0 1-1.243-1.107 3.01 3.01 0 0 1-.46-1.606v-9.972m-9.395-17.63a46.103 46.103 0 0 1-11.762-19.156m-.98-15.387a266.983 266.983 0 0 0-10.632 1.994m36.66-4.976c-1.891.13-3.752.27-5.584.44m25.959-1.208c-1.624 0-3.238 0-4.852.07m-38.383 8.247a17.564 17.564 0 0 1-4.049-6.74 23.552 23.552 0 0 1-1.178-8.088 1.584 1.584 0 0 1 .262-.904c.178-.268.431-.474.728-.592a19.504 19.504 0 0 1 7.663-1.197 15.003 15.003 0 0 1 8.643 3.221 17.026 17.026 0 0 1 5.504 8.117 23.93 23.93 0 0 1 1.149 7.978 1.507 1.507 0 0 1-.05.37m-1.158-.1-8.821-6.213m14.454 6.651 8.366-15.845m22.513 16.483-5.287-7.469m24.86 6.372 1.564-14.07M82.25 47.868l-3.98-15.706m32.453 12.654c-.416-2.313-.584-4.338-1.842-6.392-1.653-2.692-5.187-3.57-7.494-5.544-2.307-1.975-3.91-5.495-6.693-6.622-2.781-1.127-6.098.39-9.108.24-3.01-.15-6.088-1.995-9.039-1.157-2.95.838-4.83 4.198-7.217 5.903-2.386 1.706-6.108 2.284-7.92 4.737-1.812 2.453-1.594 6.362-2.663 9.344a18.658 18.658 0 0 1-1.525 3.051m-6.82-6.75a19.994 19.994 0 0 1-6.614 2.133 1.466 1.466 0 0 1-.904-.166 1.481 1.481 0 0 1-.63-.672 23.762 23.762 0 0 1-2.258-7.708 18.064 18.064 0 0 1 1.614-9.902 16.279 16.279 0 0 1 6.425-6.98 19.924 19.924 0 0 1 7.356-2.563c.312-.042.63.017.905.17.276.152.497.39.63.678a23.59 23.59 0 0 1 2.266 7.817 18.064 18.064 0 0 1-1.603 9.783 16.494 16.494 0 0 1-6.723 7.15l-.465.26Z" stroke="currentColor" stroke-width="1.5" stroke-linecap="round" stroke-linejoin="round"/>
  </g>
  <defs>
    <clipPath id="a">
      <path fill="#fff" transform="translate(3 15)" d="M0 0h120v96H0z"/>
    </clipPath>
  </defs>
</svg>
