<svg viewbox="0 0 126 126" width="130" height="126" fill="none" xmlns="http://www.w3.org/2000/svg">
  <path d="M29.304 15.655a.754.754 0 0 1-.752.755A10.151 10.151 0 0 0 18.41 26.552a.753.753 0 0 1-1.507-.002A11.658 11.658 0 0 1 28.55 14.903c.416 0 .754.336.754.752Z" fill="currentColor"/>
  <path fill-rule="evenodd" clip-rule="evenodd" d="M43.412 46.289a3.513 3.513 0 0 1 3.513-3.513h11.42a3.512 3.512 0 0 1 3.512 3.513v11.066a3.512 3.512 0 0 1-3.512 3.513h-11.42a3.513 3.513 0 0 1-3.513-3.513V46.29Zm3.513-2.006a2.006 2.006 0 0 0-2.006 2.006v11.066c0 1.108.898 2.006 2.006 2.006h11.42a2.006 2.006 0 0 0 2.006-2.005V46.288a2.006 2.006 0 0 0-2.006-2.006h-11.42ZM71.15 42.776a3.512 3.512 0 0 0-3.513 3.513v11.066a3.512 3.512 0 0 0 3.513 3.513h11.42a3.513 3.513 0 0 0 3.513-3.513V46.29a3.513 3.513 0 0 0-3.513-3.513H71.15Zm-2.006 3.513c0-1.108.898-2.006 2.006-2.006h11.42c1.108 0 2.006.898 2.006 2.006v11.066a2.006 2.006 0 0 1-2.006 2.006H71.15a2.006 2.006 0 0 1-2.006-2.005V46.288ZM91.873 46.289a3.513 3.513 0 0 1 3.512-3.513h11.42a3.513 3.513 0 0 1 3.513 3.513v11.066a3.513 3.513 0 0 1-3.513 3.513h-11.42a3.513 3.513 0 0 1-3.512-3.513V46.29Zm3.512-2.006a2.006 2.006 0 0 0-2.006 2.006v11.066c0 1.108.898 2.006 2.006 2.006h11.42a2.006 2.006 0 0 0 2.006-2.005V46.288a2.006 2.006 0 0 0-2.006-2.006h-11.42ZM22.69 66.082a3.513 3.513 0 0 0-3.513 3.513V80.66a3.513 3.513 0 0 0 3.512 3.513h11.42a3.513 3.513 0 0 0 3.513-3.513V69.594a3.513 3.513 0 0 0-3.513-3.512H22.69Zm-2.006 3.513c0-1.108.897-2.006 2.005-2.006h11.42c1.108 0 2.006.898 2.006 2.005v11.067a2.006 2.006 0 0 1-2.006 2.006H22.69a2.006 2.006 0 0 1-2.005-2.006V69.594ZM43.412 69.594a3.513 3.513 0 0 1 3.513-3.512h11.42a3.512 3.512 0 0 1 3.512 3.513V80.66a3.512 3.512 0 0 1-3.512 3.513h-11.42a3.513 3.513 0 0 1-3.513-3.513V69.594Zm3.513-2.005a2.006 2.006 0 0 0-2.006 2.005v11.067c0 1.108.898 2.006 2.006 2.006h11.42a2.006 2.006 0 0 0 2.006-2.006V69.594a2.006 2.006 0 0 0-2.006-2.005h-11.42ZM71.15 66.082a3.512 3.512 0 0 0-3.513 3.513V80.66a3.512 3.512 0 0 0 3.513 3.513h11.42a3.513 3.513 0 0 0 3.513-3.513V69.594a3.513 3.513 0 0 0-3.513-3.512H71.15Zm-2.006 3.513c0-1.108.898-2.006 2.006-2.006h11.42c1.108 0 2.006.898 2.006 2.005v11.067a2.006 2.006 0 0 1-2.006 2.006H71.15a2.006 2.006 0 0 1-2.006-2.006V69.594ZM91.873 69.594a3.513 3.513 0 0 1 3.512-3.512h11.42a3.513 3.513 0 0 1 3.513 3.513V80.66a3.513 3.513 0 0 1-3.513 3.513h-11.42a3.513 3.513 0 0 1-3.512-3.513V69.594Zm3.512-2.005a2.006 2.006 0 0 0-2.006 2.005v11.067c0 1.108.898 2.006 2.006 2.006h11.42a2.006 2.006 0 0 0 2.006-2.006V69.594a2.006 2.006 0 0 0-2.006-2.005h-11.42ZM22.69 89.388a3.513 3.513 0 0 0-3.513 3.512v11.067a3.512 3.512 0 0 0 3.512 3.512h11.42a3.512 3.512 0 0 0 3.513-3.512V92.9a3.513 3.513 0 0 0-3.513-3.512H22.69ZM20.683 92.9c0-1.108.897-2.006 2.005-2.006h11.42c1.108 0 2.006.898 2.006 2.006v11.067a2.006 2.006 0 0 1-2.006 2.005H22.69a2.005 2.005 0 0 1-2.005-2.005V92.9ZM43.412 92.9a3.513 3.513 0 0 1 3.513-3.512h11.42a3.512 3.512 0 0 1 3.512 3.512v11.067a3.512 3.512 0 0 1-3.512 3.512h-11.42a3.512 3.512 0 0 1-3.513-3.512V92.9Zm3.513-2.006a2.006 2.006 0 0 0-2.006 2.006v11.067c0 1.107.898 2.005 2.006 2.005h11.42a2.006 2.006 0 0 0 2.006-2.005V92.9a2.006 2.006 0 0 0-2.006-2.006h-11.42ZM71.15 89.388a3.512 3.512 0 0 0-3.513 3.512v11.067a3.512 3.512 0 0 0 3.513 3.512h11.42a3.512 3.512 0 0 0 3.513-3.512V92.9a3.513 3.513 0 0 0-3.513-3.512H71.15ZM69.144 92.9c0-1.108.898-2.006 2.006-2.006h11.42c1.108 0 2.006.898 2.006 2.006v11.067a2.005 2.005 0 0 1-2.006 2.005H71.15a2.006 2.006 0 0 1-2.006-2.005V92.9Z" fill="currentColor"/>
  <path fill-rule="evenodd" clip-rule="evenodd" d="M10 99.449C10 109.694 18.305 118 28.551 118h72.898C111.694 118 120 109.694 120 99.449V26.551C120 16.306 111.694 8 101.449 8H28.551C18.306 8 10 16.305 10 26.551v72.898ZM28.551 9.507c-9.413 0-17.044 7.63-17.044 17.044v8.464h106.986V26.55c0-9.413-7.631-17.044-17.044-17.044H28.551Zm89.942 27.015H11.507v62.927c0 9.413 7.63 17.044 17.044 17.044h72.898c9.413 0 17.044-7.631 17.044-17.044V36.522Z" fill="currentColor"/>
</svg>
