<svg viewbox="0 0 126 126" width="126" height="126" fill="none" xmlns="http://www.w3.org/2000/svg">
  <path d="M111.763 46.799a.753.753 0 1 0-1.506 0 13.034 13.034 0 0 1-13.032 13.035.753.753 0 0 0 0 1.507 14.552 14.552 0 0 0 10.281-4.263 14.539 14.539 0 0 0 4.257-10.279ZM59.03 19.397a.754.754 0 0 1-.475.953 13.77 13.77 0 0 0-8.292 7.656.753.753 0 1 1-1.386-.59 15.27 15.27 0 0 1 9.2-8.495.753.753 0 0 1 .953.476ZM51.701 72.179c.416 0 .754.337.754.754v21.056a.753.753 0 1 1-1.507 0V72.933c0-.417.337-.754.753-.754ZM74.954 72.933a.753.753 0 1 0-1.506 0v21.056a.753.753 0 1 0 1.506 0V72.933Z" fill="currentColor"/>
  <path fill-rule="evenodd" clip-rule="evenodd" d="M62.951 9a24.412 24.412 0 0 0-14.667 4.897 24.394 24.394 0 0 0-8.501 11.833 23.785 23.785 0 0 0-28.886 5.402 23.764 23.764 0 0 0-1.02 30.088 23.775 23.775 0 0 0 18.046 9.332v43.406A3.055 3.055 0 0 0 30.98 117h64.796a3.07 3.07 0 0 0 2.184-.871 3.06 3.06 0 0 0 .918-2.171V70.507a23.77 23.77 0 0 0 15.794-7.559 23.751 23.751 0 0 0 6.312-17.046V45.9a23.852 23.852 0 0 0-7.002-15.908 23.873 23.873 0 0 0-15.938-6.94 23.645 23.645 0 0 0-11.924 2.677 24.394 24.394 0 0 0-8.5-11.832A24.411 24.411 0 0 0 62.95 9Zm34.42 94.501V69.793c0-.405.32-.737.724-.753a22.264 22.264 0 0 0 15.471-7.116 22.245 22.245 0 0 0 5.911-15.963 22.344 22.344 0 0 0-6.559-14.901 22.367 22.367 0 0 0-14.933-6.502h-.002a22.137 22.137 0 0 0-11.935 2.928.753.753 0 0 1-1.099-.444 22.886 22.886 0 0 0-8.236-11.94 22.904 22.904 0 0 0-35.76 11.94.754.754 0 0 1-1.098.445 22.281 22.281 0 0 0-27.826 4.64 22.258 22.258 0 0 0-.955 28.179A22.27 22.27 0 0 0 28.68 69.06c.415.002.75.339.75.754V103.5H97.37Zm-67.941 1.507v8.945a1.546 1.546 0 0 0 1.549 1.54h64.816a1.558 1.558 0 0 0 1.11-.442 1.54 1.54 0 0 0 .466-1.098v-8.945H29.43Z" fill="currentColor"/>
</svg>
