<svg viewbox="0 0 126 126" width="126" height="126" fill="none" xmlns="http://www.w3.org/2000/svg">
  <path d="M66.309 68.984 35.962 5.748S57.91 9.411 79.063 53.487l-4.506 2.163a5.108 5.108 0 0 0-2.89 4.89c.037.671.205 1.328.496 1.933l1.438 3.019M26.346 69.98h22.501m-13.126 7.396h19.584m24.472 24.161-21.123 21.132a7.924 7.924 0 0 1-11.225 0L3.322 78.594a7.962 7.962 0 0 1 0-11.24L45.347 25.31m8.52-8.514 7.735-7.728c2.926-2.928 7.835-3.351 10.762-.423 15.3 15.296 15.219 15.215 35.054-4.629A10.299 10.299 0 0 1 125 11.307c0 2.735-1.085 5.357-3.017 7.292-19.876 19.813-19.775 19.884-4.657 35.029 2.927 2.928 2.505 7.849-.422 10.777L88.74 92.581m-13.056.403-20.48 20.478a3.087 3.087 0 0 1-4.365 0l-38.283-38.3a3.1 3.1 0 0 1 0-4.377L49.46 33.864m10.682-10.687 4.929-4.93a3.098 3.098 0 0 1 4.375 0l38.283 38.35a3.089 3.089 0 0 1 0 4.367L84.656 83.998M65.842 69.204l8.233-3.956a1.428 1.428 0 0 1 1.906.67l21.675 45.157a1.428 1.428 0 0 1-.67 1.906l-8.233 3.956a1.43 1.43 0 0 1-1.906-.67L65.173 71.11a1.43 1.43 0 0 1 .669-1.906Zm52.973-56.855a5.06 5.06 0 1 1-10.119 0 5.06 5.06 0 1 1 10.119 0Z" stroke="currentColor" stroke-width="1.5" stroke-linecap="round" stroke-linejoin="round"/>
</svg>

