<svg viewbox="0 0 126 126" width="126" height="126" fill="none" xmlns="http://www.w3.org/2000/svg">
  <path d="M94.744 112.325a10.477 10.477 0 0 0 6.574-2.337 10.345 10.345 0 0 0 3.616-5.93M88.446 43.171h25.475c1.489.002 2.959.33 4.305.963a10.079 10.079 0 0 1 3.48 2.696 10 10 0 0 1 1.988 3.913 9.953 9.953 0 0 1 .117 4.38l-10.291 50.648a18.982 18.982 0 0 1-6.642 10.937A19.217 19.217 0 0 1 94.764 121H31.206a19.218 19.218 0 0 1-12.114-4.292 18.981 18.981 0 0 1-6.642-10.937L2.19 55.173a9.952 9.952 0 0 1 .116-4.38 9.994 9.994 0 0 1 1.988-3.913 10.08 10.08 0 0 1 3.48-2.696 10.148 10.148 0 0 1 4.305-.963h25.475v-12.42a25.142 25.142 0 0 1 1.792-9.835 25.282 25.282 0 0 1 5.487-8.378 25.485 25.485 0 0 1 8.326-5.614 25.63 25.63 0 0 1 19.732 0 25.484 25.484 0 0 1 8.326 5.614 25.282 25.282 0 0 1 5.487 8.378 25.144 25.144 0 0 1 1.792 9.835l-.05 12.37Zm-8.165 0V32.086a17.086 17.086 0 0 0-1.195-6.705 17.177 17.177 0 0 0-3.724-5.718 17.316 17.316 0 0 0-5.666-3.834 17.416 17.416 0 0 0-13.442 0 17.317 17.317 0 0 0-5.666 3.834 17.18 17.18 0 0 0-3.724 5.718 17.086 17.086 0 0 0-1.195 6.705V43.17H80.28ZM68.155 81.737 79.99 69.984a4.625 4.625 0 0 0 1.354-3.267 4.625 4.625 0 0 0-1.354-3.267 4.69 4.69 0 0 0-3.29-1.344 4.69 4.69 0 0 0-3.29 1.344L61.577 75.203 49.74 63.45a4.68 4.68 0 0 0-3.284-1.343 4.68 4.68 0 0 0-3.285 1.343 4.605 4.605 0 0 0-1.362 3.267c0 1.225.49 2.4 1.362 3.267l11.825 11.753L43.171 93.49a4.604 4.604 0 0 0-1.216 3.22 4.606 4.606 0 0 0 1.359 3.162 4.676 4.676 0 0 0 6.426.152l11.836-11.753L73.4 100.024a4.67 4.67 0 0 0 3.266 1.274 4.667 4.667 0 0 0 3.234-1.353 4.606 4.606 0 0 0 1.363-3.211 4.604 4.604 0 0 0-1.284-3.244L68.155 81.737Z" stroke="currentColor" stroke-width="1.5" stroke-linecap="round" stroke-linejoin="round"/>
</svg>

