<svg viewbox="0 0 126 126" width="126" height="126" fill="none" xmlns="http://www.w3.org/2000/svg">
  <path d="M8 51.599c0 .992 11.483 1.707 25.65 1.707 14.168 0 25.661-.764 25.661-1.707M8 51.599c0-14.05 9.752-17.94 9.752-36.793V11.66M8 51.6v58.94c0 2.977 11.483 5.359 25.65 5.359 2.83 0 5.547-.1 8.11-.278m17.551-64.021V78.26m0-26.662c0-14.05-9.752-17.99-9.752-36.793V11.66m1.92 36.535c-1.276-10.508-8.277-15.38-9.397-29.45M15.81 89.95V68.656m98.729 21.206v2.053c.017.301.143.59.359.823a1.6 1.6 0 0 0 .839.466c1.464.388 2.219.804 2.219 1.24v23.914c0 1.985-17.075 3.642-38.12 3.642-21.046 0-38.076-1.657-38.076-3.642V94.475c0-.437.799-.854 2.219-1.24.327-.072.62-.236.834-.468.215-.233.338-.522.353-.823v-2.02M118 112.87c0 1.637-17.074 2.977-38.12 2.977-21.046 0-38.12-1.33-38.12-2.977m76.121-16.06c0 .992-17.074 1.825-38.12 1.825-21.045 0-37.646-.619-37.646-1.611m58.922-9.546-.011-6.033m6.911 5.26V82.22M8 103.861c0 1.886 11.483 3.414 25.65 3.414 2.83 0 5.547-.06 8.11-.169m8.565-95.446h-33.35a2.193 2.193 0 0 1-1.459-.54 1.752 1.752 0 0 1-.604-1.305v-.12c0-.749.165-1.491.487-2.184a5.701 5.701 0 0 1 1.386-1.85 6.469 6.469 0 0 1 2.073-1.233A7.028 7.028 0 0 1 21.302 4H46.01c.836.001 1.664.15 2.436.437a6.46 6.46 0 0 1 2.064 1.238 5.696 5.696 0 0 1 1.377 1.85c.318.692.482 1.433.48 2.18v.11c0 .486-.214.952-.596 1.298a2.19 2.19 0 0 1-1.445.547ZM79.88 78.073c24.108 0 32.861.555 36.045.992a2.1 2.1 0 0 1 1.259.535c.334.308.533.713.561 1.142v7.203c-.018.243-.09.48-.212.698-.122.217-.292.41-.498.569a2.124 2.124 0 0 1-.706.351c-.259.074-.532.101-.803.08 0 0-4.249.992-35.701.992-31.453 0-35.69-.993-35.69-.993a2.197 2.197 0 0 1-1.474-.45 1.763 1.763 0 0 1-.69-1.246v-7.234c.027-.427.224-.83.556-1.139a2.1 2.1 0 0 1 1.252-.538c3.24-.367 12.004-.962 36.101-.962Z" stroke="currentColor" stroke-width="1.5" stroke-linecap="round" stroke-linejoin="round"/>
</svg>

