<svg viewbox="0 0 126 126" width="126" height="126" fill="none" xmlns="http://www.w3.org/2000/svg">
  <g clip-path="url(#a)">
    <mask id="b" fill="#fff">
      <path d="M40.872 27.16a2.627 2.627 0 0 1-1.857-.763.708.708 0 0 1-.01-.996.7.7 0 0 1 .992-.01 1.25 1.25 0 0 0 1.78-.02c.486-.5.476-1.303-.02-1.793a.714.714 0 0 1-.01-1 .7.7 0 0 1 .992-.01 2.703 2.703 0 0 1 .045 3.79c-.531.53-1.224.802-1.912.802ZM86.405 81.767c-.904 0-1.862-.173-2.88-.55-2.496-.931-5.203-3.909-5.105-6.693a.704.704 0 0 1 .727-.679.702.702 0 0 1 .673.733c-.073 2.051 2.232 4.588 4.192 5.321 4.87 1.814 8-1.986 11.966-6.797 1.528-1.853 3.11-3.77 4.938-5.539a.701.701 0 0 1 .993.02.709.709 0 0 1-.02.996c-1.774 1.714-3.326 3.602-4.83 5.425-3.283 3.968-6.413 7.763-10.654 7.763ZM60.607 54.067a.685.685 0 0 1-.492-.203l-5.041-4.97c-5.371-5.295-8.222-5.98-11.244-6.702-2.958-.709-6.02-1.442-11.258-6.605l-20.83-20.54a.708.708 0 0 1-.01-.996.7.7 0 0 1 .993-.01l20.83 20.54c4.958 4.89 7.7 5.545 10.6 6.243 3.076.733 6.25 1.496 11.901 7.07l5.037 4.97c.275.272.28.718.01.995a.722.722 0 0 1-.496.208Z"/>
      <path d="M65.914 50.986a.685.685 0 0 1-.492-.203l-6.23-6.134c-5.652-5.574-6.472-8.76-7.273-11.841-.752-2.908-1.465-5.658-6.423-10.548L24.671 1.72a.708.708 0 0 1-.01-.997.7.7 0 0 1 .992-.01L46.48 21.25c5.238 5.168 6.03 8.235 6.796 11.202.786 3.027 1.523 5.891 6.894 11.187l6.231 6.134c.275.272.28.718.01 1a.67.67 0 0 1-.496.214ZM34.277 31.98a.684.684 0 0 1-.491-.203L14.228 12.485a.71.71 0 0 1-.014-1 .7.7 0 0 1 .992-.01L34.77 30.766c.275.272.28.718.01.996a.676.676 0 0 1-.502.218ZM37.02 29.157a.685.685 0 0 1-.492-.204L16.965 9.661a.708.708 0 0 1-.01-.996.7.7 0 0 1 .993-.01l19.563 19.293a.708.708 0 0 1-.492 1.209ZM39.501 26.595a.685.685 0 0 1-.491-.203L19.447 7.1a.708.708 0 0 1-.01-.996.7.7 0 0 1 .993-.01l19.562 19.292a.708.708 0 0 1-.491 1.21Z"/>
      <path d="M42.243 23.776a.685.685 0 0 1-.491-.203L22.189 4.281a.708.708 0 0 1-.01-.996.7.7 0 0 1 .993-.01l19.562 19.292a.708.708 0 0 1-.491 1.21ZM45.987 22.463a.684.684 0 0 1-.49-.203L24.67 1.72a.708.708 0 0 1-.01-.997.7.7 0 0 1 .992-.01L46.48 21.25c.275.273.28.719.01.996a.676.676 0 0 1-.502.218ZM12.233 15.245a.685.685 0 0 1-.491-.204 2.51 2.51 0 0 1-.04-3.527 2.467 2.467 0 0 1 1.745-.753c.673-.02 1.287.248 1.76.713.274.273.28.719.009 1.001a.7.7 0 0 1-.993.01 1.049 1.049 0 0 0-.761-.307 1.073 1.073 0 0 0-.757.327 1.087 1.087 0 0 0 .02 1.53.708.708 0 0 1-.492 1.21ZM17.457 9.864a.685.685 0 0 1-.492-.203 2.51 2.51 0 0 1-.039-3.527 2.467 2.467 0 0 1 1.745-.754c.668.01 1.287.248 1.759.714.275.272.28.718.01 1a.7.7 0 0 1-.993.01 1.099 1.099 0 0 0-.762-.307 1.073 1.073 0 0 0-.756.327 1.087 1.087 0 0 0 .02 1.531.708.708 0 0 1-.492 1.21Z"/>
      <path d="M22.675 4.479a.685.685 0 0 1-.49-.203 2.504 2.504 0 0 1-.748-1.754 2.46 2.46 0 0 1 .708-1.774c.958-.986 2.526-1 3.503-.04.276.273.28.719.01 1.001a.7.7 0 0 1-.992.01 1.072 1.072 0 0 0-1.828.783c.005.287.118.56.324.763.275.272.28.718.01.996a.658.658 0 0 1-.497.218ZM35.648 32.54a2.626 2.626 0 0 1-1.857-.763.708.708 0 0 1-.01-.995.7.7 0 0 1 .993-.01 1.25 1.25 0 0 0 1.779-.02c.486-.5.476-1.303-.02-1.794a.714.714 0 0 1-.01-1 .7.7 0 0 1 .993-.01 2.703 2.703 0 0 1 .044 3.79 2.68 2.68 0 0 1-1.912.802ZM111.359 102.932a3.587 3.587 0 0 1-2.546-1.05L94.788 88.049l.978-1.01 14.025 13.832a2.284 2.284 0 0 0 1.592.644 2.21 2.21 0 0 0 1.578-.678 2.28 2.28 0 0 0-.035-3.2l-12.653-12.481a.708.708 0 0 1-.01-.996.7.7 0 0 1 .992-.01l12.654 12.48a3.703 3.703 0 0 1 .054 5.198 3.601 3.601 0 0 1-2.565 1.104h-.039Z"/>
      <path d="M56.631 126c-.855 0-1.71-.426-2.29-1.144-.59-.739-.806-1.66-.594-2.532 1.656-7.684 2.049-21.413-.492-31.688-.668-2.696-1.892-5.525-3.184-8.517-2.005-4.627-4.074-9.418-4.088-13.957.113-5.222 4.275-8.08 8.304-10.845 1.676-1.15 3.258-2.234 4.531-3.468.02-.015.034-.034.054-.05 3.012-2.362 6.555-4.884 10.516-4.884h.093c3.337.04 5.14 2.165 6.885 4.22.486.576.983 1.16 1.513 1.695.703-2.021 1.509-4.043 2.949-5.717a.764.764 0 0 1 .236-.178c2.304-1.076 5.233-.788 7.833.767 2.614 1.561 4.28 4.043 4.452 6.64v.059c0 .074-.005.143-.005.203l.226.015c3.14.252 5.872 1.793 7.494 4.23 1.331 2.002 1.744 4.366 1.189 6.734l.177.054c.019.005.039.015.059.02 2.044.823 3.621 2.656 4.447 5.158.722 2.184.752 4.612.088 6.525-.014 1.739-1.346 4.77-2.663 7.53-.152.327-.265.56-.315.674a.697.697 0 0 1-.914.382.708.708 0 0 1-.378-.922c.049-.124.177-.386.344-.743.708-1.481 2.585-5.42 2.526-7.01a.654.654 0 0 1 .044-.273c1.234-3.35-.133-8.541-3.671-9.993l-.801-.243a.694.694 0 0 1-.417-.347.719.719 0 0 1-.049-.545c.687-2.17.393-4.374-.826-6.207-1.38-2.076-3.73-3.394-6.442-3.607-.172-.015-.31-.015-.418-.02-.285-.005-.61-.015-.87-.288-.265-.282-.25-.604-.236-1.01.005-.084.005-.188.01-.302-.157-2.12-1.563-4.172-3.769-5.49-2.152-1.283-4.53-1.565-6.398-.758-1.42 1.71-2.177 3.929-2.904 6.074l-.025.08a.706.706 0 0 1-.471.45.71.71 0 0 1-.64-.138c-.918-.768-1.695-1.685-2.446-2.572-1.68-1.981-3.136-3.69-5.838-3.725h-.084c-3.503 0-6.673 2.249-9.621 4.563-1.357 1.303-3.047 2.467-4.683 3.592-3.907 2.68-7.598 5.217-7.696 9.69.015 4.231 2.025 8.879 3.97 13.377 1.318 3.047 2.566 5.926 3.264 8.74 2.594 10.483 2.191 24.489.496 32.347-.113.456.01.936.324 1.328.32.401.787.634 1.244.619h32.747a1.61 1.61 0 0 0 1.198-.54 1.64 1.64 0 0 0 .403-1.263c-.53-5.044-.673-12.02.207-16.236.083-.545.457-.827.894-1.154.757-.57 2.172-1.63 4.442-5.247 1.283-1.997 2.477-4.3 3.76-7.258a.7.7 0 0 1 .923-.367.709.709 0 0 1 .359.932c-1.312 3.032-2.54 5.4-3.862 7.456-2.408 3.835-3.956 4.994-4.786 5.618-.138.104-.295.218-.354.283v.01c-.85 4.067-.708 10.874-.187 15.819a3.066 3.066 0 0 1-.757 2.353 3.006 3.006 0 0 1-2.24 1.006H56.695c-.02-.005-.04-.005-.064-.005Z"/>
      <path d="M88.317 107.748c-1.519 0-3.076-.272-4.3-.813a.708.708 0 0 1-.359-.931.697.697 0 0 1 .924-.362c2.275 1.006 5.519.843 7.116.06a.695.695 0 0 1 .933.327.706.706 0 0 1-.324.941c-1.061.515-2.506.778-3.99.778ZM93.014 88.62c-1.1 0-2.068-.278-2.894-.828-3.145-2.195-3.631-5.069-3.042-7.026a.7.7 0 0 1 .875-.47c.369.114.58.505.467.882-.216.718-.678 3.24 2.486 5.45.895.599 2.104.738 3.578.406 4.6-1.046 10.069-6.193 11.243-8.175a.694.694 0 0 1 .958-.243.702.702 0 0 1 .241.966c-1.43 2.408-7.268 7.72-12.138 8.829a8.205 8.205 0 0 1-1.773.208ZM77.22 75.535c-2.648 0-4.795-1.863-6.373-5.544a.708.708 0 0 1 .364-.927.698.698 0 0 1 .919.367c1.376 3.2 3.16 4.786 5.273 4.692 2.457-.105 5.533-2.398 8.658-6.46 2.904-3.776 5.067-8.047 5.922-10.608a.7.7 0 0 1 .889-.446.709.709 0 0 1 .442.897c-1.995 5.975-9.4 17.756-15.847 18.029h-.246ZM77.953 98.949a.7.7 0 0 1-.427-.149.713.713 0 0 1-.128-.99c5.037-6.59 5.621-12.604 1.96-20.12a.707.707 0 0 1 .32-.947.7.7 0 0 1 .939.323c3.877 7.961 3.228 14.625-2.109 21.606a.689.689 0 0 1-.555.277ZM81.363 50.287a.704.704 0 0 1-.697-.654c-.266-3.602-1.784-5.96-4.384-6.827-3.818-1.268-9.341.872-12.85 4.974a.696.696 0 0 1-.988.074.71.71 0 0 1-.073-.995c3.852-4.514 10.024-6.828 14.349-5.396 3.135 1.04 5.032 3.904 5.341 8.061a.704.704 0 0 1-.644.758c-.02 0-.039.005-.054.005Z"/>
      <path d="M61.59 71.76c-.34 0-.689-.025-1.037-.075a.706.706 0 0 1 .206-1.397c3.597.535 7.017-2.705 7.052-2.735a.685.685 0 0 1 .565-.188.695.695 0 0 1 .506.317s.81 1.03 4.034 1.63c8.354 1.546 10.865.703 12.811-1.511 1.96-2.24.732-4.509-.305-5.495-.58-.554-1.518-1.179-2.609-1.907-1.454-.971-3.263-2.175-5.086-3.785a.71.71 0 0 1-.064-.996.696.696 0 0 1 .988-.065c1.75 1.546 3.513 2.72 4.934 3.667 1.14.763 2.127 1.422 2.796 2.056 1.813 1.734 2.712 4.806.393 7.456-2.29 2.616-5.106 3.637-14.113 1.967-2.457-.456-3.75-1.174-4.393-1.68-1.062.877-3.676 2.74-6.678 2.74Z"/>
      <path d="M68.297 68.767a.693.693 0 0 1-.653-.456c-.713-1.912-.84-3.26-.443-4.662a.7.7 0 0 1 .865-.486.71.71 0 0 1 .482.872c-.31 1.095-.197 2.156.408 3.776a.704.704 0 0 1-.408.906.645.645 0 0 1-.25.05Z"/>
    </mask>
    <path d="M40.872 27.16a2.627 2.627 0 0 1-1.857-.763.708.708 0 0 1-.01-.996.7.7 0 0 1 .992-.01 1.25 1.25 0 0 0 1.78-.02c.486-.5.476-1.303-.02-1.793a.714.714 0 0 1-.01-1 .7.7 0 0 1 .992-.01 2.703 2.703 0 0 1 .045 3.79c-.531.53-1.224.802-1.912.802ZM86.405 81.767c-.904 0-1.862-.173-2.88-.55-2.496-.931-5.203-3.909-5.105-6.693a.704.704 0 0 1 .727-.679.702.702 0 0 1 .673.733c-.073 2.051 2.232 4.588 4.192 5.321 4.87 1.814 8-1.986 11.966-6.797 1.528-1.853 3.11-3.77 4.938-5.539a.701.701 0 0 1 .993.02.709.709 0 0 1-.02.996c-1.774 1.714-3.326 3.602-4.83 5.425-3.283 3.968-6.413 7.763-10.654 7.763ZM60.607 54.067a.685.685 0 0 1-.492-.203l-5.041-4.97c-5.371-5.295-8.222-5.98-11.244-6.702-2.958-.709-6.02-1.442-11.258-6.605l-20.83-20.54a.708.708 0 0 1-.01-.996.7.7 0 0 1 .993-.01l20.83 20.54c4.958 4.89 7.7 5.545 10.6 6.243 3.076.733 6.25 1.496 11.901 7.07l5.037 4.97c.275.272.28.718.01.995a.722.722 0 0 1-.496.208Z" fill="currentColor"/>
    <path d="M65.914 50.986a.685.685 0 0 1-.492-.203l-6.23-6.134c-5.652-5.574-6.472-8.76-7.273-11.841-.752-2.908-1.465-5.658-6.423-10.548L24.671 1.72a.708.708 0 0 1-.01-.997.7.7 0 0 1 .992-.01L46.48 21.25c5.238 5.168 6.03 8.235 6.796 11.202.786 3.027 1.523 5.891 6.894 11.187l6.231 6.134c.275.272.28.718.01 1a.67.67 0 0 1-.496.214ZM34.277 31.98a.684.684 0 0 1-.491-.203L14.228 12.485a.71.71 0 0 1-.014-1 .7.7 0 0 1 .992-.01L34.77 30.766c.275.272.28.718.01.996a.676.676 0 0 1-.502.218ZM37.02 29.157a.685.685 0 0 1-.492-.204L16.965 9.661a.708.708 0 0 1-.01-.996.7.7 0 0 1 .993-.01l19.563 19.293a.708.708 0 0 1-.492 1.209ZM39.501 26.595a.685.685 0 0 1-.491-.203L19.447 7.1a.708.708 0 0 1-.01-.996.7.7 0 0 1 .993-.01l19.562 19.292a.708.708 0 0 1-.491 1.21Z" fill="currentColor"/>
    <path d="M42.243 23.776a.685.685 0 0 1-.491-.203L22.189 4.281a.708.708 0 0 1-.01-.996.7.7 0 0 1 .993-.01l19.562 19.292a.708.708 0 0 1-.491 1.21ZM45.987 22.463a.684.684 0 0 1-.49-.203L24.67 1.72a.708.708 0 0 1-.01-.997.7.7 0 0 1 .992-.01L46.48 21.25c.275.273.28.719.01.996a.676.676 0 0 1-.502.218ZM12.233 15.245a.685.685 0 0 1-.491-.204 2.51 2.51 0 0 1-.04-3.527 2.467 2.467 0 0 1 1.745-.753c.673-.02 1.287.248 1.76.713.274.273.28.719.009 1.001a.7.7 0 0 1-.993.01 1.049 1.049 0 0 0-.761-.307 1.073 1.073 0 0 0-.757.327 1.087 1.087 0 0 0 .02 1.53.708.708 0 0 1-.492 1.21ZM17.457 9.864a.685.685 0 0 1-.492-.203 2.51 2.51 0 0 1-.039-3.527 2.467 2.467 0 0 1 1.745-.754c.668.01 1.287.248 1.759.714.275.272.28.718.01 1a.7.7 0 0 1-.993.01 1.099 1.099 0 0 0-.762-.307 1.073 1.073 0 0 0-.756.327 1.087 1.087 0 0 0 .02 1.531.708.708 0 0 1-.492 1.21Z" fill="currentColor"/>
    <path d="M22.675 4.479a.685.685 0 0 1-.49-.203 2.504 2.504 0 0 1-.748-1.754 2.46 2.46 0 0 1 .708-1.774c.958-.986 2.526-1 3.503-.04.276.273.28.719.01 1.001a.7.7 0 0 1-.992.01 1.072 1.072 0 0 0-1.828.783c.005.287.118.56.324.763.275.272.28.718.01.996a.658.658 0 0 1-.497.218ZM35.648 32.54a2.626 2.626 0 0 1-1.857-.763.708.708 0 0 1-.01-.995.7.7 0 0 1 .993-.01 1.25 1.25 0 0 0 1.779-.02c.486-.5.476-1.303-.02-1.794a.714.714 0 0 1-.01-1 .7.7 0 0 1 .993-.01 2.703 2.703 0 0 1 .044 3.79 2.68 2.68 0 0 1-1.912.802ZM111.359 102.932a3.587 3.587 0 0 1-2.546-1.05L94.788 88.049l.978-1.01 14.025 13.832a2.284 2.284 0 0 0 1.592.644 2.21 2.21 0 0 0 1.578-.678 2.28 2.28 0 0 0-.035-3.2l-12.653-12.481a.708.708 0 0 1-.01-.996.7.7 0 0 1 .992-.01l12.654 12.48a3.703 3.703 0 0 1 .054 5.198 3.601 3.601 0 0 1-2.565 1.104h-.039Z" fill="currentColor"/>
    <path d="M56.631 126c-.855 0-1.71-.426-2.29-1.144-.59-.739-.806-1.66-.594-2.532 1.656-7.684 2.049-21.413-.492-31.688-.668-2.696-1.892-5.525-3.184-8.517-2.005-4.627-4.074-9.418-4.088-13.957.113-5.222 4.275-8.08 8.304-10.845 1.676-1.15 3.258-2.234 4.531-3.468.02-.015.034-.034.054-.05 3.012-2.362 6.555-4.884 10.516-4.884h.093c3.337.04 5.14 2.165 6.885 4.22.486.576.983 1.16 1.513 1.695.703-2.021 1.509-4.043 2.949-5.717a.764.764 0 0 1 .236-.178c2.304-1.076 5.233-.788 7.833.767 2.614 1.561 4.28 4.043 4.452 6.64v.059c0 .074-.005.143-.005.203l.226.015c3.14.252 5.872 1.793 7.494 4.23 1.331 2.002 1.744 4.366 1.189 6.734l.177.054c.019.005.039.015.059.02 2.044.823 3.621 2.656 4.447 5.158.722 2.184.752 4.612.088 6.525-.014 1.739-1.346 4.77-2.663 7.53-.152.327-.265.56-.315.674a.697.697 0 0 1-.914.382.708.708 0 0 1-.378-.922c.049-.124.177-.386.344-.743.708-1.481 2.585-5.42 2.526-7.01a.654.654 0 0 1 .044-.273c1.234-3.35-.133-8.541-3.671-9.993l-.801-.243a.694.694 0 0 1-.417-.347.719.719 0 0 1-.049-.545c.687-2.17.393-4.374-.826-6.207-1.38-2.076-3.73-3.394-6.442-3.607-.172-.015-.31-.015-.418-.02-.285-.005-.61-.015-.87-.288-.265-.282-.25-.604-.236-1.01.005-.084.005-.188.01-.302-.157-2.12-1.563-4.172-3.769-5.49-2.152-1.283-4.53-1.565-6.398-.758-1.42 1.71-2.177 3.929-2.904 6.074l-.025.08a.706.706 0 0 1-.471.45.71.71 0 0 1-.64-.138c-.918-.768-1.695-1.685-2.446-2.572-1.68-1.981-3.136-3.69-5.838-3.725h-.084c-3.503 0-6.673 2.249-9.621 4.563-1.357 1.303-3.047 2.467-4.683 3.592-3.907 2.68-7.598 5.217-7.696 9.69.015 4.231 2.025 8.879 3.97 13.377 1.318 3.047 2.566 5.926 3.264 8.74 2.594 10.483 2.191 24.489.496 32.347-.113.456.01.936.324 1.328.32.401.787.634 1.244.619h32.747a1.61 1.61 0 0 0 1.198-.54 1.64 1.64 0 0 0 .403-1.263c-.53-5.044-.673-12.02.207-16.236.083-.545.457-.827.894-1.154.757-.57 2.172-1.63 4.442-5.247 1.283-1.997 2.477-4.3 3.76-7.258a.7.7 0 0 1 .923-.367.709.709 0 0 1 .359.932c-1.312 3.032-2.54 5.4-3.862 7.456-2.408 3.835-3.956 4.994-4.786 5.618-.138.104-.295.218-.354.283v.01c-.85 4.067-.708 10.874-.187 15.819a3.066 3.066 0 0 1-.757 2.353 3.006 3.006 0 0 1-2.24 1.006H56.695c-.02-.005-.04-.005-.064-.005Z" fill="currentColor"/>
    <path d="M88.317 107.748c-1.519 0-3.076-.272-4.3-.813a.708.708 0 0 1-.359-.931.697.697 0 0 1 .924-.362c2.275 1.006 5.519.843 7.116.06a.695.695 0 0 1 .933.327.706.706 0 0 1-.324.941c-1.061.515-2.506.778-3.99.778ZM93.014 88.62c-1.1 0-2.068-.278-2.894-.828-3.145-2.195-3.631-5.069-3.042-7.026a.7.7 0 0 1 .875-.47c.369.114.58.505.467.882-.216.718-.678 3.24 2.486 5.45.895.599 2.104.738 3.578.406 4.6-1.046 10.069-6.193 11.243-8.175a.694.694 0 0 1 .958-.243.702.702 0 0 1 .241.966c-1.43 2.408-7.268 7.72-12.138 8.829a8.205 8.205 0 0 1-1.773.208ZM77.22 75.535c-2.648 0-4.795-1.863-6.373-5.544a.708.708 0 0 1 .364-.927.698.698 0 0 1 .919.367c1.376 3.2 3.16 4.786 5.273 4.692 2.457-.105 5.533-2.398 8.658-6.46 2.904-3.776 5.067-8.047 5.922-10.608a.7.7 0 0 1 .889-.446.709.709 0 0 1 .442.897c-1.995 5.975-9.4 17.756-15.847 18.029h-.246ZM77.953 98.949a.7.7 0 0 1-.427-.149.713.713 0 0 1-.128-.99c5.037-6.59 5.621-12.604 1.96-20.12a.707.707 0 0 1 .32-.947.7.7 0 0 1 .939.323c3.877 7.961 3.228 14.625-2.109 21.606a.689.689 0 0 1-.555.277ZM81.363 50.287a.704.704 0 0 1-.697-.654c-.266-3.602-1.784-5.96-4.384-6.827-3.818-1.268-9.341.872-12.85 4.974a.696.696 0 0 1-.988.074.71.71 0 0 1-.073-.995c3.852-4.514 10.024-6.828 14.349-5.396 3.135 1.04 5.032 3.904 5.341 8.061a.704.704 0 0 1-.644.758c-.02 0-.039.005-.054.005Z" fill="currentColor"/>
    <path d="M61.59 71.76c-.34 0-.689-.025-1.037-.075a.706.706 0 0 1 .206-1.397c3.597.535 7.017-2.705 7.052-2.735a.685.685 0 0 1 .565-.188.695.695 0 0 1 .506.317s.81 1.03 4.034 1.63c8.354 1.546 10.865.703 12.811-1.511 1.96-2.24.732-4.509-.305-5.495-.58-.554-1.518-1.179-2.609-1.907-1.454-.971-3.263-2.175-5.086-3.785a.71.71 0 0 1-.064-.996.696.696 0 0 1 .988-.065c1.75 1.546 3.513 2.72 4.934 3.667 1.14.763 2.127 1.422 2.796 2.056 1.813 1.734 2.712 4.806.393 7.456-2.29 2.616-5.106 3.637-14.113 1.967-2.457-.456-3.75-1.174-4.393-1.68-1.062.877-3.676 2.74-6.678 2.74Z" fill="currentColor"/>
    <path d="M68.297 68.767a.693.693 0 0 1-.653-.456c-.713-1.912-.84-3.26-.443-4.662a.7.7 0 0 1 .865-.486.71.71 0 0 1 .482.872c-.31 1.095-.197 2.156.408 3.776a.704.704 0 0 1-.408.906.645.645 0 0 1-.25.05Z" fill="currentColor"/>
    <path d="m24.67 1.72-.703.71.001.001.703-.712Zm-.01-.997-.716-.697.717.697Zm.993-.01.703-.712-.005-.004-.698.716Zm20.545 20.835L25.373 1.008 23.968 2.43l20.826 20.541 1.404-1.424ZM25.374 1.008a.292.292 0 0 1 .003.413L23.944.026a1.708 1.708 0 0 0 .023 2.404l1.407-1.421Zm.003.413a.3.3 0 0 1-.42.01L26.35-.004a1.7 1.7 0 0 0-2.407.029l1.433 1.395Zm-.426.004 20.826 20.536 1.404-1.424L26.356.001 24.95 1.425Zm14.064 24.972-1.408 1.421.001.001 1.407-1.422Zm-.01-.996-1.433-1.395 1.433 1.395Zm.992-.01 1.406-1.422-.005-.006-.006-.005-1.395 1.433Zm1.76-1.813-1.408 1.421.002.002 1.406-1.423Zm-.01-1-1.433-1.396-.006.006-.006.006 1.445 1.383Zm.992-.01 1.407-1.423-.006-.005-.006-.006-1.395 1.433Zm.045 3.79 1.413 1.414.012-.011.011-.012-1.436-1.392Zm40.742 54.86-.7 1.873.005.002.695-1.876Zm-5.106-6.694-1.999-.075v.004l1.999.07Zm.727-.679-.077 1.999.077-1.999Zm.673.733-1.998-.075v.004l1.998.071Zm4.192 5.321-.7 1.874h.002l.698-1.874Zm11.966-6.797-1.543-1.273 1.543 1.273Zm4.938-5.539-1.381-1.446-.01.009 1.391 1.437Zm.993.02 1.457-1.37-.006-.006-.006-.007-1.445 1.383Zm-.02.996-1.381-1.447-.008.008 1.389 1.439Zm-4.83 5.425 1.541 1.274.002-.002-1.543-1.272Zm-36.944-20.14 1.42-1.408-.008-.008-.008-.008-1.404 1.424Zm-5.041-4.97-1.405 1.425 1.405-1.424ZM43.83 42.193l-.465 1.945.465-1.945Zm-11.258-6.605-1.404 1.424 1.404-1.424Zm-20.83-20.54-1.407 1.42.002.004 1.405-1.425Zm-.01-.996-1.433-1.396 1.433 1.396Zm.993-.01 1.404-1.424-.01-.01-1.394 1.434Zm20.83 20.54 1.404-1.423-1.404 1.424Zm10.6 6.243-.469 1.945h.005l.464-1.945Zm11.901 7.07 1.405-1.424-1.405 1.424Zm5.037 4.97 1.407-1.422-.002-.002-1.405 1.423Zm.01.995 1.394 1.434.02-.019.019-.02-1.433-1.395Zm4.32-3.077 1.42-1.408-.009-.009-.009-.008-1.403 1.425ZM59.19 44.65l-1.404 1.424.001.001 1.404-1.425ZM51.92 32.808l-1.937.5.001.003 1.936-.503ZM45.496 22.26l1.404-1.424-2.824 2.833 1.42-1.409Zm.983-1.01 1.404-1.424-2.811 2.845 1.407-1.422Zm6.796 11.201-1.936.5v.003l1.936-.503Zm6.894 11.187-1.404 1.424.001.002 1.403-1.426Zm6.231 6.134 1.407-1.421-.004-.005-1.403 1.426Zm.01 1-1.445-1.382-.012.013-.012.013 1.47 1.357ZM33.786 31.777l1.42-1.408-.008-.008-.007-.007-1.405 1.423ZM14.228 12.485l1.405-1.424-.01-.01-1.395 1.434Zm-.014-1-1.433-1.396-.006.006-.006.006 1.445 1.383Zm20.555 19.282 1.407-1.421-.003-.003-1.404 1.424Zm.01.996-1.433-1.396-.018.018-.017.019 1.468 1.359Zm1.75-2.81 1.419-1.408-.008-.008-.008-.008-1.404 1.424ZM16.955 8.665l1.432 1.396-1.432-1.396Zm.992-.01 1.405-1.424-.01-.009-1.395 1.433Zm19.563 19.293 1.407-1.422-.003-.002-1.404 1.424Zm.01.995-1.433-1.395-.006.006-.006.006 1.445 1.384Zm1.489-2.551 1.42-1.408-.008-.008-.008-.008-1.404 1.424ZM19.447 7.1 18.04 8.52l.003.004L19.447 7.1Zm-.01-.996-1.433-1.396 1.433 1.396Zm20.555 19.282 1.408-1.42-.003-.004-1.405 1.424Zm.01.996-1.432-1.396-.006.007-.006.006 1.444 1.383Zm1.75-2.809 1.42-1.409-.008-.007-.008-.008-1.404 1.424ZM22.189 4.281 20.782 5.7l.003.004 1.404-1.424Zm.983-1.006 1.404-1.424-.01-.01-1.394 1.434Zm19.562 19.292 1.408-1.42-.003-.004-1.405 1.424Zm.01.996 1.42 1.409.007-.007.006-.006-1.433-1.396Zm3.745-1.318-1.433-1.395-.018.018-.017.019 1.468 1.358Zm-34.747-7.204 1.42-1.408-.01-.009-.008-.009-1.402 1.426Zm-.04-3.527 1.435 1.394-1.434-1.394Zm1.745-.753.03 2H13.506l-.059-2Zm1.769 1.714 1.433 1.396.006-.007.006-.006-1.445-1.383Zm-.993.01-1.403 1.426.009.008 1.394-1.434Zm-.761-.307v-2h-.035l.035 2Zm-.757.327 1.436 1.391-1.436-1.391Zm.02 1.53 1.407-1.42-.006-.006-.006-.006-1.395 1.433Zm.01.997-1.433-1.396-.006.006-.006.006 1.444 1.384Zm4.191-8.898 1.434 1.393-1.434-1.393Zm1.745-.754.03-2h-.06l.03 2Zm1.769 1.715 1.432 1.395.006-.006.006-.006-1.444-1.383Zm-.993.01L18.044 8.53l.008.008 1.395-1.433Zm-.762-.308.068-1.998-.052-.002h-.05l.034 2Zm-.756.327 1.436 1.392-1.436-1.392Zm.029 2.527 1.42 1.409.006-.007.007-.006-1.433-1.396Zm4.226-5.375 1.42-1.409-.007-.007-.008-.008-1.405 1.424Zm-.747-1.754-2 .03 2-.03Zm.708-1.774 1.427 1.401.007-.007L22.145.748Zm3.503-.04 1.408-1.42-.006-.006L25.648.708Zm.01 1.001 1.433 1.396.006-.007.006-.006-1.445-1.383Zm-.992.01-1.412 1.417.008.008.009.009 1.395-1.434Zm-1.524.015-1.428-1.4-.008.009 1.436 1.391Zm-.304.768 2-.034-2 .034Zm.324.763 1.407-1.421-.004-.004-1.403 1.425Zm.01.996-1.433-1.396-.03.031-.03.033 1.493 1.332ZM33.79 31.777 32.384 33.2l1.407-1.422Zm-.01-.995-1.432-1.396 1.432 1.396Zm.993-.01 1.406-1.423-.006-.005-.006-.006-1.394 1.434Zm1.779-.02 1.434 1.394-1.434-1.394Zm-.02-1.794-1.407 1.422h.001l1.406-1.422Zm-.01-1-1.433-1.396-.006.006-.006.007 1.445 1.383Zm.993-.01 1.406-1.422-.006-.006-.006-.006-1.394 1.434Zm.044 3.79 1.42 1.408.008-.008.009-.009-1.437-1.391Zm71.253 70.144 1.41-1.419-.005-.005-1.405 1.424ZM94.788 88.049l-1.437-1.39-1.377 1.423 1.41 1.391 1.404-1.424Zm.978-1.01 1.405-1.424-1.438-1.418-1.404 1.451 1.437 1.39Zm14.025 13.832-1.404 1.424v.001l1.404-1.425Zm1.592.644-.017 2h.034l-.017-2Zm1.578-.678-1.436-1.393h-.001l1.437 1.393Zm-.035-3.2-1.404 1.423 1.404-1.424Zm-12.653-12.481-1.408 1.421.003.003 1.405-1.424Zm-.01-.996-1.433-1.395 1.433 1.395Zm.992-.01 1.405-1.424-.01-.01-1.395 1.434Zm12.654 12.48 1.405-1.423h-.001l-1.404 1.423Zm.054 5.198 1.435 1.393.002-.002-1.437-1.391Zm-2.565 1.104v2h.02l-.02-2Zm-57.057 21.924-1.562 1.248.006.008 1.556-1.256Zm-.594-2.532 1.944.471.005-.025.006-.025-1.955-.421Zm-.492-31.688 1.942-.48v-.002l-1.942.482Zm-3.184-8.517 1.836-.793v-.002l-1.836.795Zm-4.088-13.957-2-.043v.05l2-.007Zm8.304-10.845-1.131-1.649 1.131 1.65Zm4.531-3.468-1.206-1.595-.098.074-.088.085 1.392 1.436Zm.054-.05 1.206 1.596.014-.01.014-.012-1.234-1.573Zm10.61-4.884.023-2h-.024v2Zm6.884 4.22 1.526-1.291-.001-.002-1.525 1.294Zm1.513 1.695-1.42 1.409 2.257 2.275 1.053-3.027-1.89-.657Zm2.949-5.717 1.516 1.304-1.516-1.304Zm.236-.178-.846-1.813-.027.013-.028.014.9 1.785Zm7.833.767L87.87 51.42h.001l1.026-1.717Zm4.452 6.64h2v-.067l-.005-.066-1.995.132Zm-.005.262h-2v1.861l1.856.134.144-1.995Zm.226.015.16-1.994-.02-.002h-.022l-.118 1.996Zm7.494 4.23-1.665 1.109 1.665-1.108Zm1.189 6.734-1.947-.457-.427 1.818 1.785.55.589-1.911Zm.177.054-.589 1.912.05.015.05.013.489-1.94Zm.059.02.746-1.855-.126-.051-.131-.033-.489 1.94Zm4.447 5.158-1.899.626v.001l1.899-.627Zm.088 6.525-1.889-.656-.108.31-.003.329 2 .017Zm-2.663 7.53-1.805-.861-.004.008-.004.009 1.813.844Zm-.315.674-1.836-.792-.008.019-.008.018 1.852.755Zm-.914.382.775-1.844-.009-.004-.766 1.847Zm-.378-.922 1.848.764.006-.013.005-.013-1.859-.738Zm.344-.743-1.805-.862-.003.007-.003.006 1.811.849Zm2.526-7.01 1.998-.075v-.015l-.001-.015-1.997.104Zm.044-.273 1.866.72.006-.015.005-.014-1.877-.691Zm-3.671-9.993.759-1.85-.088-.037-.091-.027-.58 1.914Zm-.801-.243.58-1.914-.005-.002-.575 1.916Zm-.417-.347-1.771.93 1.771-.93Zm-.049-.545-1.907-.604-.004.012-.004.012 1.915.58Zm-.826-6.207 1.665-1.108-1.665 1.108Zm-6.442-3.607-.172 1.992h.007l.008.002.157-1.994Zm-.418-.02.092-1.998-.029-.001h-.028l-.035 1.999Zm-.87-.288-1.457 1.37.006.006.005.006 1.446-1.382Zm-.236-1.01-1.996-.117-.001.022-.001.022 1.998.073Zm.01-.302 1.998.086.005-.117-.008-.117-1.995.148Zm-3.769-5.49 1.026-1.717h-.002l-1.024 1.717Zm-6.398-.758-.794-1.836-.439.19-.305.368 1.538 1.278Zm-2.904 6.074-1.894-.642-.009.025-.007.025 1.91.592Zm-.025.08 1.895.64.008-.024.008-.024-1.91-.593Zm-.471.45.519 1.932.02-.006.02-.005-.56-1.92Zm-.64-.138 1.287-1.532-.004-.003-1.282 1.535Zm-2.446-2.572 1.525-1.293-1.525 1.293Zm-5.838-3.725.026-2h-.026v2ZM59.752 54.9l-1.235-1.574-.079.062-.072.07 1.386 1.442Zm-4.683 3.592L56.2 60.14l.001-.001-1.132-1.648Zm-7.696 9.69-2-.044V68.19l2-.007Zm3.97 13.377 1.837-.793-1.836.793Zm3.264 8.74 1.941-.48v-.002l-1.941.482Zm.496 32.347 1.941.481.008-.029.006-.03-1.955-.422Zm.324 1.328 1.565-1.246-.006-.007-1.559 1.253Zm1.244.619v-2h-.033l-.032.001.065 1.999Zm33.946-.54-1.494-1.331 1.493 1.331Zm.402-1.263-1.989.209v.003l1.99-.212Zm.207-16.236 1.958.408.01-.052.009-.053-1.977-.303Zm.894-1.154 1.198 1.601.005-.004-1.203-1.597Zm4.442-5.247-1.682-1.081-.006.009-.005.009 1.693 1.063Zm3.76-7.258 1.835.795.004-.01-1.839-.785Zm.923-.367.818-1.825-.015-.007-.015-.006-.788 1.838Zm.359.932-1.83-.807-.005.012 1.835.795Zm-3.862 7.456-1.683-1.082-.005.01-.006.008 1.694 1.064Zm-4.786 5.618-1.202-1.599-.005.004 1.207 1.595Zm-.354.283-1.475-1.351-.525.573v.778h2Zm0 .01 1.957.409.043-.203v-.206h-2Zm-.187 15.819 1.99-.205-.001-.005-1.989.21Zm-.757 2.353 1.493 1.331-1.493-1.331Zm-34.963 1.006-.488 1.939.24.061h.248v-2Zm27.322-19.07-.818 1.826.01.004.808-1.83Zm.565-1.293.809-1.829-.809 1.829Zm7.116.06-.87-1.801-.01.005.88 1.796Zm.933.327-1.806.858 1.806-.858Zm-.324.941-.87-1.801-.004.002.874 1.799ZM90.12 87.792l-1.144 1.64.017.012.018.012 1.11-1.664Zm-3.042-7.026-1.913-.582-.002.005 1.915.577Zm.875-.47.59-1.911-.006-.002-.584 1.913Zm.467.882 1.915.576v-.001l-1.915-.575Zm2.486 5.45-1.145 1.64.016.01.016.01 1.113-1.66Zm3.578.406.44 1.95h.003l-.443-1.95Zm11.243-8.175 1.721 1.02v-.001l-1.721-1.019Zm.958-.243-1.05 1.702.015.01.015.008 1.02-1.72Zm.241.966-1.71-1.037-.005.008-.005.008 1.72 1.021Zm-12.138 8.829.434 1.952.01-.002-.444-1.95Zm-23.94-18.42-1.84.785.001.002 1.838-.787Zm.363-.927-.796-1.834.796 1.834Zm.919.367-1.84.785.003.005 1.837-.79Zm5.273 4.692-.085-1.999h-.004l.089 1.999Zm8.658-6.46 1.585 1.219-1.585-1.22Zm5.922-10.608 1.897.633.002-.006-1.9-.627Zm.889-.446.637-1.896-.637 1.896Zm.442.897 1.897.633.002-.006-1.899-.627ZM77.467 75.535v2h.042l.042-.002-.084-1.998Zm.059 23.265-1.231 1.577.005.004 1.226-1.58Zm-.128-.99 1.586 1.218.003-.004-1.59-1.215Zm1.96-20.12 1.799-.876-.002-.003-1.796.879Zm.32-.947-.87-1.8-.01.004-.01.005.89 1.791Zm.939.323 1.798-.876-.002-.003-1.796.879Zm-2.109 21.606-1.588-1.215-.006.007-.005.007 1.6 1.2Zm2.158-49.039-1.995.147v.011l1.995-.158Zm-4.384-6.827.633-1.897-.002-.001-.63 1.898Zm-12.85 4.974-1.52-1.3-.004.006-.005.005 1.53 1.29Zm-1.061-.921L60.85 45.56l-.008.01 1.529 1.289Zm14.349-5.396.63-1.898h-.002l-.628 1.898Zm5.341 8.061-1.994.149v.001l1.994-.15Zm-.644.758v2h.078l.077-.006-.154-1.994ZM60.553 71.685l-.307 1.976.013.002.013.002.28-1.98Zm-.59-.803-1.977-.301 1.977.301Zm.796-.594.294-1.978-.009-.002-.285 1.98Zm7.052-2.735 1.307 1.513.033-.028.032-.03-1.372-1.455Zm.565-.188-.285 1.98.023.003.023.002.239-1.985Zm.506.317-1.69 1.07.055.087.063.08 1.572-1.237Zm4.034 1.63-.365 1.966h.001l.364-1.966ZM85.727 67.8l1.502 1.32.003-.003-1.505-1.317Zm-.305-5.495-1.382 1.445.004.005 1.378-1.45ZM82.813 60.4l1.11-1.663-1.11 1.663Zm-5.086-3.785L76.4 58.109l.004.004 1.324-1.5Zm.924-1.06-1.329 1.495.005.003 1.324-1.498Zm4.934 3.666 1.112-1.662-.003-.003-1.11 1.665Zm2.796 2.056 1.382-1.446-.006-.005-1.376 1.45Zm.393 7.456 1.505 1.317-1.505-1.317ZM72.66 70.7l-.365 1.966.365-1.966Zm-4.393-1.68 1.235-1.573-1.267-.994-1.242 1.026 1.274 1.542Zm-.624-.708 1.878-.686-.004-.012-1.874.698ZM67.2 63.65l-1.922-.552-.002.006 1.924.546Zm.865-.486.56-1.92-.011-.003-.012-.003-.537 1.926Zm.482.872 1.924.545.003-.01-1.927-.535Zm.408 3.776-1.874.699.001.003 1.873-.702Zm-.408.906-.7-1.874-.033.013-.034.014.767 1.847ZM40.872 25.16a.627.627 0 0 1-.451-.185l-2.813 2.844a4.627 4.627 0 0 0 3.264 1.341v-4Zm-.45-.184c.502.497.515 1.308.015 1.82l-2.865-2.79a2.708 2.708 0 0 0 .035 3.812l2.815-2.842Zm.015 1.82a1.3 1.3 0 0 1-1.834.029l2.789-2.867a2.7 2.7 0 0 0-3.82.048l2.865 2.79Zm-1.845.018a3.25 3.25 0 0 0 4.618-.048l-2.868-2.789a.75.75 0 0 1 1.061-.008l-2.811 2.845Zm4.618-.048a3.275 3.275 0 0 0-.047-4.61L40.35 25a.725.725 0 0 1-.009-1.024l2.868 2.789Zm-.046-4.61c.509.505.504 1.307.028 1.804l-2.89-2.766A2.714 2.714 0 0 0 40.349 25l2.815-2.842Zm.015 1.817a1.3 1.3 0 0 1-1.834.028l2.789-2.867a2.7 2.7 0 0 0-3.82.048l2.865 2.79Zm-1.846.016c.27.267.27.712.014.977l2.873 2.783a4.703 4.703 0 0 0-.074-6.604l-2.813 2.844Zm.037.953a.71.71 0 0 1-.498.218v4a4.708 4.708 0 0 0 3.325-1.388l-2.827-2.83Zm45.035 54.825c-.643 0-1.367-.122-2.185-.425l-1.389 3.75c1.216.451 2.41.675 3.574.675v-4Zm-2.18-.423c-.862-.322-1.88-1.06-2.67-2.035-.799-.99-1.162-1.971-1.136-2.715l-3.998-.14c-.072 2.04.87 3.94 2.023 5.368 1.165 1.442 2.748 2.66 4.382 3.27l1.399-3.748Zm-3.806-4.745a1.296 1.296 0 0 1-1.35 1.245l.156-3.997a2.704 2.704 0 0 0-2.804 2.602l3.998.15Zm-1.348 1.245a1.298 1.298 0 0 1-1.25-1.34l3.998.15a2.702 2.702 0 0 0-2.595-2.807l-.153 3.997Zm-1.25-1.337c-.061 1.733.842 3.353 1.791 4.5.977 1.182 2.316 2.248 3.7 2.766l1.4-3.747c-.576-.216-1.37-.785-2.017-1.567-.675-.817-.887-1.491-.876-1.809l-3.997-.143Zm5.493 7.267c1.513.563 2.977.718 4.399.477 1.407-.239 2.653-.845 3.77-1.63 2.157-1.513 4.114-3.913 6.038-6.247l-3.087-2.544c-2.041 2.477-3.632 4.383-5.25 5.518-.768.54-1.466.845-2.14.959-.659.112-1.412.062-2.334-.282l-1.396 3.749Zm14.207-7.4c1.538-1.864 3.051-3.695 4.786-5.374l-2.781-2.874c-1.922 1.859-3.573 3.862-5.091 5.703l3.086 2.546Zm4.777-5.365a1.3 1.3 0 0 1-1.834-.043l2.89-2.766a2.7 2.7 0 0 0-3.82-.083l2.764 2.892Zm-1.847-.057a1.292 1.292 0 0 1 .057-1.82l2.763 2.893c1.101-1.052 1.087-2.757.095-3.812l-2.915 2.74Zm.049-1.812c-1.87 1.806-3.493 3.783-4.984 5.591l3.086 2.545c1.516-1.838 2.998-3.637 4.677-5.26L100.5 67.14Zm-4.982 5.589c-1.673 2.022-3.156 3.808-4.712 5.112-1.526 1.28-2.927 1.926-4.4 1.926v4c2.766 0 5.051-1.251 6.97-2.86 1.89-1.586 3.614-3.682 5.224-5.629l-3.082-2.549ZM60.607 52.067c.315 0 .662.12.928.389l-2.84 2.816a2.685 2.685 0 0 0 1.912.795v-4Zm.912.373-5.041-4.97-2.808 2.85 5.041 4.968 2.808-2.848Zm-5.041-4.97c-2.778-2.738-4.99-4.37-6.979-5.413-2.001-1.05-3.684-1.447-5.203-1.81l-.931 3.89c1.503.36 2.756.665 4.278 1.463 1.535.804 3.433 2.161 6.026 4.719l2.809-2.848Zm-12.182-7.223c-1.471-.353-2.77-.669-4.328-1.467-1.564-.802-3.477-2.139-5.992-4.617l-2.808 2.849c2.724 2.684 4.961 4.295 6.976 5.328 2.022 1.036 3.733 1.44 5.22 1.797l.932-3.89Zm-10.32-6.084-20.83-20.54-2.809 2.848 20.831 20.54 2.809-2.848ZM13.15 13.625c.502.497.515 1.309.016 1.821l-2.866-2.79a2.708 2.708 0 0 0 .036 3.812l2.814-2.843Zm.016 1.821a1.3 1.3 0 0 1-1.835.028l2.79-2.867a2.7 2.7 0 0 0-3.82.048l2.865 2.791Zm-1.845.019 20.83 20.54 2.81-2.848-20.831-20.54-2.809 2.848Zm20.83 20.54c2.577 2.542 4.663 4.066 6.559 5.046 1.903.984 3.525 1.368 4.977 1.718l.937-3.89c-1.447-.348-2.646-.64-4.078-1.381-1.44-.744-3.204-1.992-5.586-4.34l-2.808 2.848Zm11.54 6.765c1.526.363 2.88.692 4.528 1.549 1.66.862 3.707 2.31 6.434 4.999l2.809-2.848c-2.925-2.884-5.29-4.605-7.4-5.7-2.12-1.103-3.892-1.522-5.443-1.891l-.927 3.89Zm10.962 6.548 5.037 4.969 2.809-2.847-5.037-4.97-2.81 2.848Zm5.034 4.967a1.292 1.292 0 0 1-.016-1.821l2.866 2.79a2.708 2.708 0 0 0-.036-3.812l-2.814 2.843Zm.023-1.86c.217-.21.528-.358.898-.358v4c.723 0 1.398-.295 1.89-.774l-2.788-2.868Zm6.205-3.44c.315 0 .662.121.928.39l-2.84 2.816a2.685 2.685 0 0 0 1.912.795v-4Zm.911.372-6.23-6.133-2.807 2.85 6.231 6.134 2.806-2.85Zm-6.23-6.132c-2.725-2.688-4.205-4.722-5.098-6.38-.887-1.647-1.244-3.008-1.643-4.54l-3.871 1.006c.403 1.55.857 3.322 1.992 5.431 1.131 2.1 2.887 4.446 5.812 7.33l2.809-2.847Zm-6.74-10.918c-.377-1.458-.791-3.081-1.808-4.976-1.012-1.886-2.57-3.954-5.146-6.495l-2.81 2.848c2.382 2.349 3.66 4.101 4.431 5.539.768 1.43 1.086 2.636 1.46 4.086l3.873-1.002Zm-8.78-9.634c2.514 2.48 3.883 4.38 4.713 5.941.827 1.556 1.17 2.86 1.55 4.337l3.873-1c-.385-1.49-.822-3.203-1.891-5.215-1.067-2.006-2.713-4.223-5.437-6.91l-2.809 2.847Zm6.264 10.281c.395 1.519.825 3.203 1.906 5.194 1.076 1.98 2.742 4.175 5.52 6.914l2.809-2.848c-2.593-2.556-3.98-4.442-4.814-5.975-.826-1.521-1.157-2.782-1.55-4.29l-3.87 1.005Zm7.427 12.11 6.231 6.133 2.806-2.85-6.23-6.134-2.807 2.85Zm6.227 6.129a1.286 1.286 0 0 1-.028-1.803l2.89 2.765a2.714 2.714 0 0 0-.047-3.804l-2.815 2.842Zm-.052-1.777c.28-.304.65-.43.973-.43v4a2.67 2.67 0 0 0 1.965-.857l-2.938-2.713ZM34.277 29.98c.316 0 .663.12.929.388l-2.84 2.817a2.685 2.685 0 0 0 1.911.795v-4Zm.914.373L15.633 11.06l-2.81 2.848L32.383 33.2l2.809-2.847ZM15.623 11.052a1.29 1.29 0 0 1 .036 1.815l-2.89-2.766a2.71 2.71 0 0 0 .065 3.818l2.789-2.867Zm.023 1.828a1.3 1.3 0 0 1-1.834.028L16.6 10.04a2.7 2.7 0 0 0-3.82.048l2.865 2.79Zm-1.844.018 19.563 19.293 2.808-2.848L16.61 10.05l-2.808 2.848Zm19.56 19.29a1.292 1.292 0 0 1-.016-1.821l2.865 2.791a2.708 2.708 0 0 0-.035-3.812l-2.814 2.842Zm-.051-1.784c.268-.29.632-.423.966-.423v4c.699 0 1.426-.273 1.97-.86l-2.936-2.717Zm3.709-3.247c.315 0 .662.12.928.388l-2.84 2.817a2.684 2.684 0 0 0 1.912.795v-4Zm.912.372L18.37 8.237l-2.809 2.848 19.563 19.292 2.808-2.848ZM18.372 8.24c.503.498.515 1.31.016 1.822L15.523 7.27a2.708 2.708 0 0 0 .035 3.812l2.815-2.842Zm.016 1.822a1.3 1.3 0 0 1-1.834.028l2.789-2.867a2.7 2.7 0 0 0-3.82.048l2.865 2.79Zm-1.844.018 19.562 19.293 2.81-2.848L19.352 7.23l-2.81 2.848Zm19.56 19.29a1.292 1.292 0 0 1-.016-1.821l2.865 2.791a2.708 2.708 0 0 0-.035-3.813l-2.814 2.843Zm-.028-1.809c.263-.274.614-.403.944-.403v4a2.69 2.69 0 0 0 1.945-.83l-2.889-2.767Zm3.425-2.965c.315 0 .663.12.929.389L37.59 27.8a2.684 2.684 0 0 0 1.911.795v-4Zm.913.373L20.851 5.676l-2.808 2.848 19.562 19.292 2.809-2.848Zm-19.56-19.29c.502.497.515 1.309.016 1.821l-2.866-2.79a2.708 2.708 0 0 0 .036 3.812l2.814-2.843ZM20.87 7.5a1.3 1.3 0 0 1-1.835.028l2.79-2.867a2.7 2.7 0 0 0-3.82.048L20.87 7.5Zm-1.845.019L38.588 26.81l2.809-2.848L21.834 4.67l-2.809 2.848Zm19.56 19.29a1.292 1.292 0 0 1-.015-1.822l2.865 2.792a2.708 2.708 0 0 0-.035-3.813l-2.815 2.842Zm-.027-1.81c.262-.273.613-.403.943-.403v4c.694 0 1.408-.268 1.946-.83L38.557 25Zm3.685-3.222c.315 0 .663.12.929.389l-2.84 2.816a2.684 2.684 0 0 0 1.911.795v-4Zm.913.373L23.593 2.857l-2.808 2.848 19.562 19.292 2.809-2.848Zm-19.56-19.29c.502.497.515 1.309.016 1.821l-2.865-2.79a2.708 2.708 0 0 0 .035 3.812l2.814-2.843Zm.016 1.821a1.3 1.3 0 0 1-1.835.028l2.79-2.867a2.7 2.7 0 0 0-3.82.048l2.865 2.791Zm-1.845.019L41.33 23.99l2.809-2.848L24.576 1.851l-2.809 2.848Zm19.56 19.29a1.292 1.292 0 0 1-.015-1.822l2.865 2.792a2.708 2.708 0 0 0-.035-3.813l-2.815 2.842Zm-.003-1.834c.231-.233.558-.379.919-.379v4c.725 0 1.415-.294 1.921-.805l-2.84-2.816Zm4.663-1.692c.316 0 .663.12.93.389l-2.84 2.817a2.685 2.685 0 0 0 1.91.794v-4Zm-.915 2.207a1.292 1.292 0 0 1-.016-1.82l2.865 2.79a2.709 2.709 0 0 0-.035-3.812l-2.814 2.843Zm-.05-1.784c.267-.289.63-.423.965-.423v4c.699 0 1.426-.273 1.97-.86l-2.936-2.716Zm-32.789-7.641c.316 0 .663.12.929.388l-2.84 2.817a2.685 2.685 0 0 0 1.911.795v-4Zm.91.37a.51.51 0 0 1-.006-.707l-2.869-2.788a4.51 4.51 0 0 0 .072 6.348l2.804-2.853Zm-.006-.708a.467.467 0 0 1 .34-.146l-.06-4a4.467 4.467 0 0 0-3.15 1.36l2.87 2.786Zm.369-.147a.31.31 0 0 1 .132.024c.043.018.1.051.163.114l2.81-2.847c-.824-.814-1.955-1.327-3.223-1.29l.118 4Zm.293.136a1.286 1.286 0 0 1-.028-1.804l2.89 2.766a2.714 2.714 0 0 0-.048-3.805L13.8 12.895Zm-.016-1.816a1.3 1.3 0 0 1 1.835-.028l-2.79 2.867a2.7 2.7 0 0 0 3.82-.048l-2.865-2.791Zm1.843-.02a3.048 3.048 0 0 0-2.164-.882v4a.947.947 0 0 1-.641-.267l2.805-2.851Zm-2.2-.882a3.072 3.072 0 0 0-2.158.936l2.874 2.782a.928.928 0 0 1-.646.282l-.07-4Zm-2.158.935a3.087 3.087 0 0 0 .061 4.356l2.79-2.866a.913.913 0 0 1 .022 1.293l-2.873-2.783Zm.05 4.344a1.292 1.292 0 0 1-.016-1.821l2.865 2.791a2.708 2.708 0 0 0-.035-3.812l-2.815 2.842Zm-.028-1.809a1.31 1.31 0 0 1 .943-.403v4c.694 0 1.408-.269 1.946-.83l-2.889-2.767Zm6.167-5.784c.315 0 .662.12.928.389l-2.84 2.816a2.685 2.685 0 0 0 1.912.795v-4Zm.91.37a.51.51 0 0 1-.007-.707L15.492 4.74a4.51 4.51 0 0 0 .071 6.347l2.804-2.852Zm-.006-.707a.467.467 0 0 1 .34-.147l-.06-4a4.467 4.467 0 0 0-3.15 1.36l2.87 2.787Zm.28-.147c.2.003.312.066.384.137l2.81-2.846c-.872-.86-1.999-1.273-3.135-1.29l-.06 4Zm.382.135a1.286 1.286 0 0 1-.028-1.803l2.89 2.766a2.714 2.714 0 0 0-.048-3.805l-2.814 2.842Zm-.016-1.816a1.3 1.3 0 0 1 1.835-.028l-2.79 2.867a2.7 2.7 0 0 0 3.82-.048L19.007 5.7Zm1.843-.02a3.096 3.096 0 0 0-2.098-.88l-.134 3.997a.769.769 0 0 1-.25-.056.974.974 0 0 1-.324-.21l2.806-2.85Zm-2.2-.881a3.073 3.073 0 0 0-2.158.935l2.873 2.783a.927.927 0 0 1-.645.281l-.07-4Zm-2.158.935a3.087 3.087 0 0 0 .061 4.355l2.79-2.866a.913.913 0 0 1 .022 1.294l-2.873-2.783Zm.049 4.343a1.292 1.292 0 0 1-.016-1.82l2.866 2.79a2.708 2.708 0 0 0-.035-3.812l-2.815 2.842Zm-.003-1.833c.23-.233.557-.379.919-.379v4c.725 0 1.415-.294 1.921-.805l-2.84-2.816Zm6.137-5.764c.316 0 .663.12.93.388l-2.84 2.817a2.684 2.684 0 0 0 1.91.795v-4Zm.914.373a.504.504 0 0 1-.152-.36l-4 .06a4.504 4.504 0 0 0 1.342 3.147l2.81-2.847Zm-.152-.36a.46.46 0 0 1 .135-.343L20.717-.653a4.46 4.46 0 0 0-1.28 3.204l4-.059Zm.142-.35a.467.467 0 0 1 .668-.007L27.05-.718a4.467 4.467 0 0 0-6.34.072l2.869 2.788Zm.662-.012a1.286 1.286 0 0 1-.028-1.804l2.89 2.766a2.714 2.714 0 0 0-.047-3.805L24.24 2.13ZM24.226.314A1.3 1.3 0 0 1 26.06.286l-2.789 2.867a2.7 2.7 0 0 0 3.82-.048L24.226.314Zm1.851-.012a3.072 3.072 0 0 0-4.363.032l2.857 2.8a.928.928 0 0 1-1.317.002L26.077.302Zm-4.372.04a3.07 3.07 0 0 0-.867 2.194l4-.068a.93.93 0 0 1-.259.657L21.706.343Zm-.867 2.194a3.09 3.09 0 0 0 .921 2.154l2.806-2.85a.91.91 0 0 1 .272.628l-4 .068Zm.917 2.15a1.292 1.292 0 0 1-.016-1.82l2.865 2.79a2.708 2.708 0 0 0-.035-3.812l-2.814 2.842ZM21.68 2.93c.285-.32.668-.45.995-.45v4c.692 0 1.438-.27 1.989-.886L21.68 2.929ZM35.648 30.54a.627.627 0 0 1-.45-.185L32.384 33.2a4.626 4.626 0 0 0 3.264 1.341v-4Zm-.45-.184c.502.497.515 1.309.016 1.821l-2.865-2.791a2.708 2.708 0 0 0 .035 3.813l2.814-2.843Zm.016 1.821a1.3 1.3 0 0 1-1.835.028l2.79-2.867a2.7 2.7 0 0 0-3.82.048l2.865 2.791Zm-1.846.017a3.25 3.25 0 0 0 4.619-.048l-2.868-2.788a.75.75 0 0 1 1.06-.009l-2.811 2.845Zm4.619-.048a3.275 3.275 0 0 0-.048-4.61l-2.812 2.845a.725.725 0 0 1-.008-1.023l2.868 2.788Zm-.047-4.609c.51.504.504 1.306.028 1.803l-2.89-2.765a2.714 2.714 0 0 0 .048 3.805l2.814-2.843Zm.016 1.816a1.3 1.3 0 0 1-1.835.028l2.79-2.867a2.7 2.7 0 0 0-3.82.048l2.865 2.791Zm-1.847.016c.27.268.271.712.014.977l2.874 2.783a4.703 4.703 0 0 0-.075-6.603l-2.813 2.843Zm.031.96a.68.68 0 0 1-.492.211v4a4.68 4.68 0 0 0 3.332-1.394l-2.84-2.817Zm75.219 70.603c-.431 0-.828-.163-1.136-.469l-2.82 2.838a5.59 5.59 0 0 0 3.956 1.631v-4Zm-1.141-.474L96.193 86.626l-2.809 2.847 14.025 13.833 2.809-2.848ZM96.226 89.44l.978-1.01-2.875-2.782-.978 1.01 2.875 2.782Zm-1.864-.977 14.025 13.832 2.808-2.848-14.024-13.832-2.809 2.848Zm14.025 13.833a4.284 4.284 0 0 0 2.979 1.219l.034-4c-.113 0-.177-.04-.206-.069l-2.807 2.85Zm3.013 1.219a4.208 4.208 0 0 0 2.997-1.287l-2.873-2.783a.208.208 0 0 1-.157.07l.033 4Zm2.996-1.286a4.28 4.28 0 0 0-.066-6.017l-2.808 2.848a.258.258 0 0 1 .077.19.27.27 0 0 1-.074.194l2.871 2.785Zm-.065-6.017-12.654-12.48-2.809 2.848 12.654 12.48 2.809-2.848ZM101.68 83.735a1.29 1.29 0 0 1 .015 1.82l-2.865-2.79a2.708 2.708 0 0 0 .035 3.812l2.815-2.842Zm.015 1.82a1.3 1.3 0 0 1-1.834.029l2.789-2.867a2.7 2.7 0 0 0-3.82.048l2.865 2.79Zm-1.844.02 12.653 12.48 2.809-2.849-12.653-12.48-2.81 2.848Zm12.653 12.478c.652.645.667 1.718.022 2.383l2.874 2.783c2.166-2.238 2.132-5.822-.086-8.012l-2.81 2.847Zm.024 2.381a1.596 1.596 0 0 1-1.151.498l.041 4a5.6 5.6 0 0 0 3.98-1.711l-2.87-2.787Zm-1.13.498H111.359v4H111.398v-4ZM56.631 124c-.2 0-.5-.112-.733-.401l-3.113 2.513c.927 1.148 2.337 1.888 3.846 1.888v-4Zm-.727-.393c-.227-.284-.27-.577-.214-.812l-3.887-.942c-.366 1.509.023 3.059.976 4.251l3.125-2.497Zm-.202-.862c1.712-7.946 2.117-21.985-.505-32.59l-3.883.96c2.459 9.947 2.077 23.365.478 30.787l3.91.843Zm-.505-32.59c-.716-2.888-2.015-5.877-3.29-8.829l-3.672 1.586c1.31 3.033 2.458 5.701 3.08 8.205l3.882-.963Zm-3.29-8.831c-2.05-4.731-3.911-9.122-3.924-13.168l-4 .013c.016 5.03 2.293 10.221 4.253 14.745l3.67-1.59Zm-3.925-13.118c.087-4.03 3.203-6.335 7.437-9.24l-2.263-3.298c-3.826 2.625-9.034 6.037-9.173 12.451l4 .087Zm7.437-9.24c1.641-1.125 3.374-2.307 4.791-3.68l-2.784-2.873c-1.128 1.094-2.56 2.082-4.27 3.255l2.263 3.299Zm4.605-3.522c.079-.059.139-.113.177-.149l.045-.043a1.264 1.264 0 0 0-.02.018c-.028.027-.08.073-.148.125l-2.412-3.19a2.193 2.193 0 0 0-.222.192l-.019.02a2.204 2.204 0 0 1 .038-.037c.03-.028.08-.074.149-.126l2.412 3.19Zm.082-.07c3.072-2.41 6.102-4.46 9.282-4.46v-4c-4.742 0-8.797 2.995-11.75 5.312l2.468 3.147Zm9.282-4.46H69.482v-4H69.387v4Zm.07 0c2.317.028 3.576 1.387 5.383 3.516l3.05-2.588c-1.683-1.983-4.03-4.875-8.386-4.927l-.047 4Zm5.381 3.514c.48.566 1.025 1.21 1.62 1.81l2.84-2.816c-.466-.47-.913-.995-1.407-1.578l-3.053 2.584Zm4.93 1.059c.694-1.999 1.401-3.704 2.575-5.07l-3.033-2.608c-1.705 1.983-2.61 4.32-3.32 6.364l3.778 1.314Zm2.575-5.07c-.147.171-.295.26-.38.303l-1.8-3.571c-.263.132-.578.34-.853.66l3.033 2.608Zm-.435.33c1.582-.738 3.805-.618 5.96.672l2.055-3.433c-3.044-1.821-6.678-2.276-9.706-.864l1.691 3.625Zm5.962.673c2.162 1.29 3.361 3.233 3.482 5.053l3.991-.264c-.223-3.371-2.355-6.393-5.422-8.224l-2.05 3.435Zm3.478 4.921V56.4h4V56.341h-4Zm0 .06-.002.035c0 .013 0 .039-.002.064l-.001.104h4v.011-.035c.002-.033.005-.102.005-.18h-4Zm1.851 2.198.251.016.237-3.993c-.074-.004-.139-.008-.2-.013l-.288 3.99Zm.21.013c2.583.208 4.736 1.462 5.989 3.346l3.33-2.216c-1.99-2.992-5.303-4.82-8.999-5.117l-.32 3.987Zm5.989 3.346c1.019 1.531 1.338 3.327.907 5.168l3.894.913c.679-2.894.173-5.826-1.471-8.297l-3.33 2.216Zm2.265 7.536.177.055 1.178-3.823-.177-.055-1.178 3.823Zm.277.083a1.832 1.832 0 0 1-.184-.057l-.005-.002.02.007.047.017c.038.013.102.034.181.055l.978-3.88c.069.018.123.036.151.046.015.005.026.01.032.011l.006.002-.021-.007-.046-.017a2.348 2.348 0 0 0-.181-.054l-.978 3.879Zm-.199-.064c1.388.558 2.613 1.863 3.295 3.928l3.798-1.253c-.969-2.938-2.899-5.3-5.6-6.386l-1.493 3.71Zm3.295 3.93c.603 1.823.599 3.797.098 5.241l3.779 1.311c.826-2.38.762-5.263-.079-7.808l-3.798 1.255Zm-.013 5.88c-.004.485-.221 1.39-.714 2.692-.468 1.239-1.101 2.625-1.754 3.994l3.61 1.723c.664-1.391 1.355-2.9 1.886-4.302.506-1.339.962-2.82.972-4.074l-4-.033Zm-2.476 6.703-.192.408c-.049.104-.105.224-.146.318l3.673 1.584.001-.001.001-.004a.077.077 0 0 1 .006-.012l.019-.042.064-.137.2-.425-3.626-1.69Zm-.354.763a1.303 1.303 0 0 1 1.713-.707l-1.549 3.687a2.698 2.698 0 0 0 3.541-1.47l-3.705-1.51Zm1.704-.711c.681.282.97 1.047.704 1.69l-3.696-1.528a2.707 2.707 0 0 0 1.461 3.533l1.531-3.695Zm.715 1.663.015-.032a3.91 3.91 0 0 1 .065-.14l.096-.205.12-.255-3.622-1.697c-.132.282-.313.656-.392.854l3.718 1.475Zm.29-.618c.353-.739 1.024-2.146 1.601-3.58.288-.717.566-1.472.77-2.177.191-.656.376-1.457.348-2.19l-3.997.148c0-.003.001.018-.004.068-.004.05-.013.117-.028.203a6.883 6.883 0 0 1-.16.656 19.963 19.963 0 0 1-.64 1.8c-.524 1.302-1.145 2.605-1.5 3.348l3.61 1.724Zm2.718-7.977a1.36 1.36 0 0 1-.087.552l-3.732-1.44a2.65 2.65 0 0 0-.175 1.097l3.994-.209Zm-.076.523c.798-2.167.723-4.774-.025-7.029-.747-2.253-2.287-4.49-4.764-5.505l-1.518 3.7c1.062.436 1.974 1.521 2.486 3.065.511 1.541.503 3.205.067 4.387l3.754 1.382Zm-4.968-12.598-.801-.243-1.16 3.828.801.243 1.16-3.828Zm-.806-.245c.347.105.624.345.778.64l-3.541 1.86c.331.63.903 1.119 1.614 1.332l1.149-3.832Zm.778.64c.168.319.185.665.095.964l-3.829-1.16a2.726 2.726 0 0 0 .193 2.055l3.541-1.86Zm.087.989c.864-2.727.5-5.564-1.067-7.92l-3.33 2.215c.87 1.31 1.096 2.882.584 4.496l3.813 1.209Zm-1.067-7.92c-1.754-2.637-4.688-4.237-7.95-4.493l-.314 3.988c2.162.17 3.926 1.205 4.934 2.72l3.33-2.215Zm-7.935-4.492a6.581 6.581 0 0 0-.334-.02l-.164-.005-.183 3.996.117.004a10.563 10.563 0 0 1 .22.01l.344-3.985Zm-.555-.027c-.035 0-.056 0-.074-.002h-.023s.01 0 .026.003a1.09 1.09 0 0 1 .336.119c.105.057.199.13.276.21l-2.892 2.764c.897.939 2.046.901 2.281.906l.07-4Zm.553.343a1.163 1.163 0 0 1 .292.583c.01.057.008.083.008.05 0-.038 0-.086.005-.202l-3.997-.145c-.01.251-.147 1.47.777 2.453l2.915-2.739Zm.303.475c.005-.081.007-.162.008-.208l.003-.124-3.996-.172-.006.2-.002.056v.015l3.993.233Zm.008-.566c-.216-2.908-2.103-5.485-4.738-7.059l-2.051 3.434c1.777 1.062 2.7 2.587 2.8 3.92l3.989-.295Zm-4.74-7.06c-2.56-1.526-5.62-1.998-8.216-.876l1.588 3.672c1.139-.493 2.835-.4 4.58.64l2.048-3.436Zm-8.96-.318c-1.699 2.044-2.557 4.637-3.26 6.71l3.788 1.284c.752-2.217 1.406-4.063 2.548-5.438l-3.076-2.556Zm-3.276 6.76-.025.08 3.82 1.184.025-.08-3.82-1.184Zm-.01.03c.138-.405.463-.711.864-.828l1.119 3.84a2.706 2.706 0 0 0 1.807-1.73l-3.79-1.281Zm.904-.84a1.29 1.29 0 0 1 1.167.262l-2.573 3.063a2.71 2.71 0 0 0 2.445.539L77.86 54.84Zm1.163.259c-.765-.64-1.433-1.421-2.204-2.33l-3.05 2.587c.732.864 1.617 1.916 2.69 2.812l2.564-3.07Zm-2.204-2.33c-1.594-1.88-3.602-4.384-7.337-4.432l-.052 4c1.67.02 2.572.935 4.338 3.019l3.051-2.587Zm-7.363-4.432H69.373v4H69.457v-4Zm-.084 0c-4.291 0-7.98 2.733-10.856 4.99l2.47 3.146c3.02-2.37 5.67-4.136 8.386-4.136v-4Zm-11.007 5.12c-1.217 1.17-2.765 2.242-4.43 3.386L56.2 60.14c1.608-1.105 3.44-2.361 4.936-3.798l-2.771-2.885Zm-4.429 3.385c-1.908 1.31-4.006 2.739-5.608 4.46-1.659 1.78-2.892 3.981-2.955 6.836l3.999.088c.035-1.618.696-2.923 1.884-4.199 1.244-1.336 2.945-2.515 4.943-3.886l-2.263-3.299ZM45.373 68.19c.017 4.726 2.24 9.782 4.135 14.164l3.671-1.588c-1.996-4.615-3.793-8.854-3.806-12.59l-4 .014Zm4.135 14.164c1.334 3.086 2.507 5.805 3.157 8.427l3.883-.963c-.745-3.005-2.068-6.043-3.368-9.051l-3.672 1.587Zm3.157 8.426c2.513 10.154 2.122 23.849.483 31.445l3.91.844c1.752-8.12 2.166-22.437-.51-33.25l-3.883.961Zm.497 31.386c-.281 1.133.05 2.244.706 3.061l3.118-2.505a.344.344 0 0 1 .06.133.575.575 0 0 1-.002.273l-3.882-.962Zm.7 3.054c.658.826 1.7 1.411 2.874 1.373l-.13-3.998a.602.602 0 0 1 .283.055.311.311 0 0 1 .103.079l-3.13 2.491Zm2.809 1.374h32.747v-4H56.67v4Zm32.747 0a3.612 3.612 0 0 0 2.692-1.209l-2.987-2.662a.389.389 0 0 1 .294-.129v4Zm2.692-1.209a3.643 3.643 0 0 0 .898-2.807l-3.977.425a.362.362 0 0 1 .092-.28l2.987 2.662Zm.898-2.804c-.524-4.984-.64-11.711.176-15.618l-3.916-.816c-.944 4.526-.775 11.75-.238 16.853l3.978-.419Zm.195-15.723a.765.765 0 0 1-.163.361c-.013.015-.007.005.043-.036l.094-.075.14-.106-2.394-3.203c-.345.258-1.45.988-1.674 2.453l3.954.606Zm.12.14c.94-.707 2.526-1.945 4.933-5.781l-3.388-2.126c-2.132 3.397-3.377 4.28-3.95 4.712l2.405 3.195Zm4.922-5.763c1.357-2.113 2.6-4.519 3.912-7.544l-3.67-1.59c-1.254 2.89-2.4 5.091-3.607 6.972l3.365 2.162Zm3.916-7.554a1.299 1.299 0 0 1-1.703.687l1.575-3.677a2.702 2.702 0 0 0-3.55 1.42l3.678 1.57Zm-1.733.673a1.291 1.291 0 0 1-.654-1.7l3.66 1.613a2.708 2.708 0 0 0-1.371-3.563l-1.635 3.65Zm-.66-1.688c-1.282 2.964-2.461 5.23-3.709 7.17l3.365 2.162c1.397-2.172 2.674-4.642 4.016-7.743l-3.671-1.589Zm-3.72 7.187c-2.266 3.61-3.641 4.593-4.294 5.084l2.403 3.197c1.008-.758 2.73-2.094 5.279-6.154l-3.388-2.127Zm-4.299 5.087c-.042.032-.15.112-.225.171a4.284 4.284 0 0 0-.155.125 2.62 2.62 0 0 0-.242.231l2.95 2.701-.053.055-.035.034a.618.618 0 0 1-.033.029c-.004.004-.005.004 0 .001l.019-.015.077-.059a2.38 2.38 0 0 1 .052-.039l.058-.044-2.413-3.19Zm-1.147 1.878V106.827h4V106.817h-4Zm.042-.4c-.915 4.38-.745 11.438-.218 16.438l3.978-.419c-.515-4.888-.63-11.445.156-15.2l-3.916-.819Zm-.218 16.434c.03.303-.068.601-.26.817l2.985 2.662a5.065 5.065 0 0 0 1.254-3.889l-3.98.41Zm-.26.817a1.006 1.006 0 0 1-.748.337v4a5.005 5.005 0 0 0 3.733-1.675l-2.985-2.662Zm-.748.337H56.695v4h32.723v-4Zm-32.234.061a2.182 2.182 0 0 0-.4-.062c-.046-.003-.084-.003-.108-.004h-.045v4c.026 0-.025.001-.084-.003a1.797 1.797 0 0 1-.34-.053l.977-3.878Zm31.133-18.318c-1.312 0-2.581-.24-3.492-.642l-1.615 3.659c1.535.678 3.381.983 5.107.983v-4Zm-3.482-.638c.644.289.942 1.045.653 1.701l-3.66-1.614a2.71 2.71 0 0 0 1.371 3.564l1.636-3.651Zm.653 1.701a1.304 1.304 0 0 1-1.714.661l1.617-3.659a2.697 2.697 0 0 0-3.563 1.384l3.66 1.614Zm-1.715.661c1.467.648 3.147.886 4.641.871 1.472-.015 3.006-.278 4.164-.845l-1.76-3.592c-.44.215-1.326.426-2.444.437-1.095.011-2.175-.173-2.983-.53l-1.618 3.659Zm8.794.031a1.305 1.305 0 0 1-1.742-.616l3.613-1.716a2.695 2.695 0 0 0-3.61-1.27l1.74 3.602Zm-1.742-.616a1.294 1.294 0 0 1 .612-1.718l1.74 3.602c1.368-.66 1.886-2.285 1.26-3.6l-3.612 1.716Zm.608-1.716c-.705.343-1.826.577-3.116.577v4c1.678 0 3.446-.291 4.863-.979l-1.747-3.598Zm1.581-18.552c-.75 0-1.322-.183-1.785-.492l-2.218 3.33c1.189.79 2.552 1.162 4.004 1.162v-4Zm-1.75-.467c-2.457-1.716-2.603-3.704-2.27-4.809l-3.83-1.154c-.847 2.81-.02 6.568 3.812 9.243l2.289-3.28Zm-2.272-4.804a1.3 1.3 0 0 1-1.623.86l1.168-3.825a2.7 2.7 0 0 0-3.372 1.801l3.827 1.164Zm-1.63.859a1.292 1.292 0 0 1-.858-1.604l3.831 1.15a2.708 2.708 0 0 0-1.791-3.368l-1.182 3.822Zm-.857-1.606a6.113 6.113 0 0 0-.048 3.235c.381 1.501 1.363 3.076 3.305 4.431l2.29-3.28c-1.224-.854-1.593-1.645-1.718-2.136a2.125 2.125 0 0 1 .001-1.097l-3.83-1.153Zm3.288 7.688c1.507 1.01 3.338 1.1 5.13.696l-.879-3.902c-1.156.26-1.743.072-2.024-.117l-2.227 3.323Zm5.134.695c2.738-.622 5.538-2.391 7.71-4.123 2.156-1.718 4.039-3.68 4.811-4.982l-3.441-2.04c-.404.68-1.842 2.283-3.864 3.895-2.006 1.6-4.24 2.926-6.102 3.35l.886 3.9Zm12.521-9.106c-.355.6-1.16.843-1.813.44l2.1-3.404c-1.311-.81-2.981-.338-3.729.926l3.442 2.038Zm-1.783.458a1.299 1.299 0 0 1-.449-1.791l3.42 2.075a2.703 2.703 0 0 0-.93-3.724l-2.041 3.44Zm-.459-1.775c-.531.895-2.127 2.645-4.295 4.35-2.157 1.697-4.556 3.092-6.567 3.55l.889 3.9c2.86-.652 5.813-2.467 8.151-4.306 2.325-1.829 4.363-3.939 5.262-5.451l-3.44-2.043ZM94.354 86.46c-.5.111-.949.16-1.34.16v4c.72 0 1.462-.09 2.209-.256l-.868-3.904ZM77.222 73.535c-1.469 0-3.09-.96-4.535-4.332l-3.677 1.575c1.71 3.99 4.383 6.757 8.212 6.757v-4Zm-4.534-4.33c.271.636-.005 1.401-.68 1.694l-1.592-3.67a2.708 2.708 0 0 0-1.407 3.547l3.679-1.57Zm-.68 1.694a1.303 1.303 0 0 1-1.716-.683l3.678-1.57a2.698 2.698 0 0 0-3.554-1.416l1.592 3.669Zm-1.714-.678c1.466 3.41 3.782 6.052 7.199 5.9l-.178-3.996c-.81.036-2.06-.493-3.347-3.484l-3.674 1.58Zm7.194 5.9c1.79-.076 3.559-.924 5.19-2.141 1.656-1.236 3.333-2.971 4.97-5.099l-3.171-2.438c-1.489 1.935-2.913 3.378-4.19 4.33-1.303.972-2.3 1.323-2.968 1.351l.17 3.997Zm10.16-7.24c3.025-3.932 5.3-8.398 6.233-11.193l-3.794-1.267c-.778 2.329-2.827 6.404-5.61 10.022l3.17 2.439Zm6.234-11.199a1.3 1.3 0 0 1-1.646.823l1.274-3.792a2.7 2.7 0 0 0-3.425 1.714l3.797 1.255Zm-1.646.823a1.291 1.291 0 0 1-.82-1.627l3.798 1.255a2.709 2.709 0 0 0-1.704-3.42l-1.274 3.792Zm-.818-1.633c-.915 2.742-3.147 6.983-5.934 10.556-1.387 1.779-2.86 3.323-4.308 4.42-1.473 1.116-2.754 1.645-3.793 1.688l.17 3.997c2.184-.093 4.246-1.139 6.038-2.496 1.815-1.375 3.528-3.2 5.047-5.148 3.026-3.88 5.495-8.517 6.574-11.75l-3.794-1.267Zm-13.95 16.663H77.22v4H77.467v-4Zm.486 23.414c.295 0 .574.097.798.271l-2.451 3.161a2.7 2.7 0 0 0 1.653.568v-4Zm.803.275c.553.432.667 1.232.228 1.804l-3.172-2.437a2.713 2.713 0 0 0 .483 3.786l2.461-3.153Zm.23 1.8c2.676-3.5 4.28-6.995 4.644-10.733.364-3.736-.533-7.493-2.473-11.477l-3.596 1.752c1.72 3.531 2.36 6.54 2.088 9.337-.272 2.796-1.478 5.602-3.84 8.692l3.178 2.43Zm2.17-22.213c.308.63.053 1.405-.588 1.723l-1.78-3.582a2.707 2.707 0 0 0-1.226 3.616l3.593-1.757Zm-.609 1.733a1.3 1.3 0 0 1-1.727-.6l3.593-1.757a2.7 2.7 0 0 0-3.605-1.245l1.74 3.603Zm-1.729-.603c1.823 3.742 2.509 7.026 2.21 10.101-.3 3.074-1.605 6.14-4.109 9.415l3.178 2.43c2.834-3.707 4.522-7.463 4.911-11.457.39-3.992-.538-8.02-2.593-12.24l-3.597 1.751Zm-1.91 19.53a1.311 1.311 0 0 1 1.045-.522v4a2.69 2.69 0 0 0 2.155-1.077l-3.2-2.401Zm4.455-49.184c.7 0 1.245.54 1.296 1.188l-3.987.316a2.704 2.704 0 0 0 2.691 2.496v-4Zm1.297 1.2c-.302-4.1-2.125-7.371-5.745-8.578l-1.265 3.794c1.579.527 2.792 1.973 3.021 5.077l3.99-.294Zm-5.747-8.58c-2.483-.824-5.315-.491-7.894.507-2.604 1.008-5.136 2.762-7.107 5.066l3.04 2.6c1.538-1.798 3.522-3.166 5.511-3.936 2.015-.78 3.854-.884 5.189-.44l1.26-3.796Zm-15.01 5.584a1.304 1.304 0 0 1 1.843-.155l-2.603 3.037a2.696 2.696 0 0 0 3.818-.304l-3.058-2.578Zm1.843-.155a1.29 1.29 0 0 1 .154 1.812l-3.058-2.579c-.936 1.11-.855 2.814.301 3.804l2.603-3.037Zm.146 1.821c1.702-1.994 3.925-3.506 6.18-4.353 2.276-.855 4.413-.974 6.019-.442l1.257-3.797c-2.718-.9-5.829-.578-8.683.494-2.876 1.08-5.665 2.982-7.815 5.501l3.042 2.597Zm12.198-4.795c2.148.712 3.708 2.698 3.977 6.31l3.989-.296c-.35-4.702-2.584-8.443-6.706-9.81l-1.26 3.795Zm3.977 6.312a1.296 1.296 0 0 1 1.196-1.386l.31 3.988a2.704 2.704 0 0 0 2.483-2.902l-3.99.3Zm1.35-1.392a2.163 2.163 0 0 0-.264.017l-.03.003h-.004.003l.035-.004a2.175 2.175 0 0 1 .206-.011v4a2.089 2.089 0 0 0 .29-.02h.002-.004a.504.504 0 0 1-.057.007c-.037.003-.1.008-.176.008v-4ZM61.59 69.76a5.41 5.41 0 0 1-.755-.054l-.563 3.96c.44.063.883.094 1.319.094v-4Zm-.73-.05c.696.108 1.19.761 1.081 1.475l-3.954-.603a2.704 2.704 0 0 0 2.26 3.08l.613-3.952Zm1.081 1.475a1.294 1.294 0 0 1-1.466 1.084l.57-3.96a2.707 2.707 0 0 0-3.058 2.273l3.954.603Zm-1.475 1.082c2.449.364 4.681-.56 6.147-1.397 1.508-.86 2.518-1.813 2.506-1.803l-2.615-3.026c-.046.04-.763.722-1.873 1.355-1.153.658-2.429 1.085-3.577.915l-.588 3.956Zm8.718-3.258c-.244.23-.634.402-1.092.336l.57-3.959a2.685 2.685 0 0 0-2.223.713l2.745 2.91Zm-1.046.343a1.305 1.305 0 0 1-.945-.599l3.38-2.14a2.695 2.695 0 0 0-1.958-1.233l-.477 3.971Zm.745-1.67a122.462 122.462 0 0 0-1.57 1.24l.002.003.004.005.009.01a2.029 2.029 0 0 0 .16.18c.077.08.172.17.287.266.23.194.542.414.954.64.823.452 2.04.922 3.823 1.253l.73-3.932c-1.44-.268-2.24-.614-2.628-.827a2 2 0 0 1-.309-.2c-.011-.008-.005-.004.015.016a1.024 1.024 0 0 1 .08.09l.007.01a.21.21 0 0 1 .006.008s.002.002-1.57 1.239Zm3.67 3.597c4.222.782 7.213 1.013 9.476.665 2.431-.373 3.955-1.403 5.201-2.822l-3.004-2.64c-.7.795-1.405 1.294-2.804 1.509-1.568.24-4.009.12-8.14-.645l-.729 3.933Zm14.68-2.16c1.393-1.591 1.74-3.35 1.429-4.922-.29-1.467-1.117-2.632-1.86-3.339l-2.757 2.899c.293.278.6.74.693 1.215.073.369.053.864-.515 1.512l3.01 2.635Zm-.427-8.257c-.738-.706-1.859-1.443-2.881-2.125l-2.221 3.326c1.159.774 1.915 1.286 2.337 1.69l2.765-2.89Zm-2.881-2.125c-1.46-.975-3.164-2.111-4.873-3.621l-2.648 2.998c1.937 1.71 3.85 2.982 5.3 3.95l2.22-3.328Zm-4.868-3.617a1.29 1.29 0 0 1 .113 1.815l-3.012-2.632a2.71 2.71 0 0 0 .242 3.807l2.657-2.99Zm.113 1.815a1.304 1.304 0 0 1-1.847.115l2.657-2.99a2.696 2.696 0 0 0-3.822.243l3.012 2.632Zm-1.842.118c1.864 1.647 3.734 2.89 5.149 3.832l2.218-3.329c-1.426-.95-3.084-2.056-4.719-3.5l-2.648 2.997Zm5.145 3.83c1.198.801 2.016 1.355 2.532 1.845l2.753-2.902c-.82-.778-1.977-1.543-3.06-2.267l-2.225 3.324Zm2.526 1.84c.618.59 1.046 1.382 1.144 2.182.091.743-.083 1.608-.873 2.511l3.01 2.634c1.53-1.747 2.065-3.744 1.833-5.632-.225-1.833-1.154-3.444-2.35-4.587l-2.764 2.891Zm.27 4.693c-.9 1.028-1.788 1.657-3.38 1.938-1.75.309-4.414.204-8.863-.62l-.729 3.933c4.559.845 7.806 1.064 10.288.626 2.641-.466 4.305-1.655 5.695-3.243l-3.01-2.634Zm-12.242 1.318c-2.212-.41-3.186-1.022-3.523-1.287l-2.47 3.147c.95.745 2.56 1.571 5.263 2.072l.73-3.932Zm-6.032-1.255c-.993.82-3.14 2.281-5.404 2.281v4c3.74 0 6.821-2.264 7.951-3.198l-2.547-3.083Zm1.303-.711c.523 0 1.03.321 1.225.858l-3.757 1.373a2.693 2.693 0 0 0 2.532 1.769v-4Zm1.22.846c-.621-1.669-.635-2.56-.392-3.418l-3.848-1.092c-.552 1.946-.31 3.75.492 5.906l3.749-1.396Zm-.393-3.412a1.3 1.3 0 0 1-1.595.89l1.074-3.854a2.7 2.7 0 0 0-3.324 1.86l3.845 1.104Zm-1.618.882a1.29 1.29 0 0 1-.885-1.583l3.854 1.07a2.71 2.71 0 0 0-1.849-3.326l-1.12 3.84Zm-.883-1.592c-.47 1.666-.223 3.193.459 5.019l3.747-1.398c-.527-1.415-.505-2.008-.357-2.532l-3.849-1.089Zm.46 5.022a1.296 1.296 0 0 1 .766-1.67l1.397 3.748a2.704 2.704 0 0 0 1.582-3.483l-3.745 1.405Zm.698-1.643c.175-.073.354-.103.516-.103v4c.33 0 .675-.06 1.017-.203l-1.533-3.694Z" fill="currentColor" mask="url(#b)"/>
  </g>
  <defs>
    <clipPath id="a">
      <path fill="#fff" d="M0 0h126v126H0z"/>
    </clipPath>
  </defs>
</svg>
