<svg viewbox="0 0 126 126" width="126" height="126" fill="none" xmlns="http://www.w3.org/2000/svg">
  <g clip-path="url(#a)" fill="currentColor">
    <path d="M86.398 36.043a8.603 8.603 0 0 1-2.85-.525c-6.37-2.176-6.936-7.669-7.392-12.08-.322-3.089-.624-6.009-2.573-7.69-2.334-2.012-3.33-4.05-2.954-6.052.387-2.072 2.236-3.97 5.487-5.636l3.312-1.695a.708.708 0 0 1 .644 1.259l-3.311 1.695c-2.845 1.457-4.442 3.019-4.744 4.64-.278 1.472.56 3.063 2.489 4.724 2.374 2.052 2.701 5.24 3.053 8.616.456 4.426.932 9.007 6.454 10.895a7.345 7.345 0 0 0 2.394.446c.452 0 .913-.114 1.324-.327 1.343-.724 1.85-2.692 2.38-4.774.827-3.222 1.863-7.247 6.91-6.776 3.177.288 6.36.887 9.458 1.785 1.725.57 3.445.842 5.15.837.833-.005 1.21-.119 1.215-.119a.712.712 0 0 1 .882.461.702.702 0 0 1-.446.883c-.089.03-.595.178-1.646.188-1.849.025-3.737-.292-5.581-.902a49.312 49.312 0 0 0-9.171-1.73 7.005 7.005 0 0 0-.7-.035c-3.018 0-3.791 2.176-4.713 5.756-.585 2.285-1.195 4.644-3.084 5.67a4.27 4.27 0 0 1-1.987.486ZM101.343 112.755a.71.71 0 0 1-.704-.645l-.069-.778c-.6-6.886-1.16-9.424-8.893-16.988a165.203 165.203 0 0 0-3.763-3.54c-5.601-5.15-7.291-6.702-4.56-15.188.273-.843.66-1.517 1.036-2.166.67-1.155 1.304-2.246 1.309-4.338.005-1.665-1.993-3.757-3.317-5.14-.46-.481-.857-.893-1.125-1.24-3.029-3.861-2.83-7.078-2.132-9.096 1.602-4.615 7.064-7.44 11.253-8.457a10.205 10.205 0 0 1 2.41-.302c2.577 0 4.486 1.17 6.166 2.206 1.666 1.02 3.237 1.988 5.458 1.988.58 0 1.194-.07 1.829-.204 1.185-.258 2.295-.575 3.277-.857 1.903-.546 3.698-1.056 5.517-1.056 2.454 0 4.595.976 6.742 3.078l3.311 3.203a.707.707 0 0 1-.987 1.011l-3.316-3.208c-1.869-1.829-3.698-2.676-5.76-2.676-1.621 0-3.326.485-5.131 1.001-1.001.288-2.136.615-3.366.877-.728.159-1.447.238-2.126.238-2.618 0-4.516-1.17-6.197-2.196-1.67-1.026-3.246-1.997-5.428-1.997-.654 0-1.353.089-2.077.262-3.841.932-8.833 3.47-10.251 7.545-.585 1.686-.729 4.397 1.909 7.758.228.288.6.684 1.036 1.135 1.566 1.64 3.712 3.886 3.707 6.122-.01 2.474-.803 3.837-1.501 5.042-.357.614-.69 1.19-.918 1.888-2.453 7.624-1.313 8.67 4.17 13.712a157.275 157.275 0 0 1 3.792 3.569c7.822 7.654 8.684 10.638 9.314 17.875l.069.778a.702.702 0 0 1-.644.764c0 .02-.02.02-.04.02ZM62.767 126a.707.707 0 0 1-.699-.625l-.134-1.174a18.496 18.496 0 0 1 1.988-10.738c3.262-6.355 7.153-21.632 6.821-29.147a4.692 4.692 0 0 0-2.226-3.922c-1.398-.897-3.48-1.368-6.018-1.368-3.138 0-6.682.714-9.726 1.963-1.284.526-2.686.789-4.174.789-5.304 0-10.667-3.272-14.975-5.904-.862-.526-1.656-1.012-2.419-1.448-1.73-1.056-2.98-2.677-3.53-4.57-1.264-3.817.819-8.006 4.65-9.31 5.646-1.928 7.386-6.092 5.993-14.37-.545-3.242.68-7.679 3.376-9.107a4.182 4.182 0 0 1 1.988-.486c1.69 0 3.554.962 5.542 2.86 1.438 1.374 2.984 2.073 4.6 2.073h.184c.837.02 2.8.054 4.883-2.518 1.259-1.557 1.799-2.994 1.61-4.273-.193-1.329-1.14-2.226-1.903-2.742-3.415-2.33-4.323-5.433-5.284-8.72-.1-.331-.194-.664-.298-1.006a61.5 61.5 0 0 1-.421-1.487c-.753-2.756-1.254-4.575-4.055-5.576-2.37-.848-4.987-.66-8.016-.447-2.691.194-5.745.412-9.165-.089-2.737-.396-4.997-1.517-5.096-1.561a.709.709 0 0 1-.318-.947.703.703 0 0 1 .947-.317c.02.01 2.167 1.065 4.67 1.427 3.272.476 6.24.268 8.863.08 3.188-.228 5.939-.422 8.59.525 3.496 1.25 4.165 3.698 4.943 6.533.13.466.263.952.412 1.453a46 46 0 0 1 .297 1.016c.927 3.168 1.73 5.904 4.724 7.946.992.68 2.236 1.87 2.504 3.703.247 1.686-.397 3.495-1.914 5.369-2.518 3.113-5.051 3.064-6.008 3.044h-.154c-1.987 0-3.861-.828-5.571-2.464-2.335-2.23-4.383-2.95-5.89-2.147-2.067 1.096-3.098 4.928-2.642 7.625 1.492 8.878-.649 13.795-6.93 15.942-3.098 1.056-4.783 4.441-3.752 7.554a6.552 6.552 0 0 0 2.9 3.773c.763.436 1.561.927 2.414 1.447 4.179 2.553 9.354 5.71 14.261 5.71 1.304 0 2.529-.227 3.639-.683 3.207-1.314 6.945-2.068 10.256-2.068 2.81 0 5.156.546 6.777 1.587a6.08 6.08 0 0 1 2.885 5.076c.342 7.688-3.644 23.338-6.98 29.842a17.098 17.098 0 0 0-1.839 9.924l.134 1.175a.708.708 0 0 1-.62.783c-.04-.01-.064-.005-.094-.005ZM49.973 124.632a.703.703 0 0 1-.704-.684l-.03-.992c-.074-2.394-.535-8.278-3.257-11.237a30.007 30.007 0 0 0-2.925-2.672c-2.835-2.345-5.502-4.556-5.502-10.455 0-7.396-9.027-15.783-12.184-18.143a17.876 17.876 0 0 0-4.799-2.3c-4.134-1.492-8.382-3.029-9.498-11.486C9.587 55.396 5.854 52.07 2.47 49.84l-.546-.357a.705.705 0 0 1-.203-.977.716.716 0 0 1 .982-.208l.545.357c3.643 2.404 7.659 5.963 9.225 17.82 1.006 7.605 4.501 8.87 8.546 10.332 1.84.57 3.59 1.407 5.17 2.488 3.332 2.484 12.78 11.317 12.78 19.293 0 5.24 2.196 7.059 4.977 9.359a30.606 30.606 0 0 1 3.068 2.806c3.049 3.321 3.56 9.612 3.639 12.16l.03.991a.708.708 0 0 1-.684.729h-.025Z"/>
    <path d="M63 126C28.26 126 0 97.74 0 63 0 28.26 28.26 0 63 0c34.74 0 63 28.26 63 63 0 34.74-28.26 63-63 63ZM63 1.413C29.039 1.413 1.413 29.039 1.413 63S29.039 124.587 63 124.587 124.587 96.961 124.587 63 96.961 1.413 63 1.413Z"/>
  </g>
  <defs>
    <clipPath id="a">
      <path fill="#fff" d="M0 0h126v126H0z"/>
    </clipPath>
  </defs>
</svg>
