<svg viewbox="0 0 126 126" width="130" height="126" fill="none" xmlns="http://www.w3.org/2000/svg">
  <path d="M45.172 55.574c-5.453 0-10.632-1.395-15.078-4.075-4.856-2.922-8.77-7.34-11.325-12.78-1.912-4.064-3.06-8.624-3.424-13.553a3.422 3.422 0 0 1 2.033-3.377c4.603-2.017 9.246-3.134 13.798-3.316 6.01-.243 11.523 1.117 16.389 4.044 4.906 2.952 8.846 7.431 11.4 12.952 1.862 4.024 2.99 8.528 3.344 13.386a3.423 3.423 0 0 1-2.034 3.377c-4.061 1.78-8.178 2.862-12.235 3.216-.324.025-.642.05-.966.07-.632.036-1.27.056-1.902.056Zm-12.62-35.696c-.435 0-.87.01-1.31.025-4.37.177-8.841 1.254-13.282 3.195a1.981 1.981 0 0 0-1.179 1.952c.35 4.757 1.457 9.145 3.293 13.048 2.433 5.181 6.156 9.382 10.763 12.158 4.715 2.84 10.304 4.155 16.156 3.812.308-.02.617-.04.93-.066 3.9-.339 7.86-1.385 11.78-3.1a1.981 1.981 0 0 0 1.18-1.95c-.345-4.687-1.427-9.02-3.218-12.887-2.432-5.257-6.18-9.519-10.839-12.32-4.264-2.568-9.059-3.867-14.274-3.867Z" fill="currentColor"/>
  <path d="M67.427 54.523a.69.69 0 0 1-.339-.086L42.32 41.277a.723.723 0 0 1-.298-.975.724.724 0 0 1 .976-.298l24.77 13.164a.723.723 0 0 1 .298.975.716.716 0 0 1-.638.38ZM77.255 44.983h-.182a3.417 3.417 0 0 1-3.212-2.29c-1.603-4.6-2.367-9.175-2.26-13.61.146-6.076 1.982-11.753 5.31-16.414 3.298-4.62 7.815-8.063 13.43-10.227C94.593.804 99.297-.02 104.32 0a3.419 3.419 0 0 1 3.212 2.29c1.628 4.661 2.387 9.307 2.251 13.797-.183 6.005-2.014 11.617-5.306 16.227-3.364 4.717-8.2 8.321-13.986 10.44-.303.11-.607.217-.915.318-3.804 1.264-7.952 1.911-12.322 1.911ZM104.15 1.436c-4.78 0-9.251.789-13.288 2.346-5.346 2.062-9.64 5.333-12.771 9.716-3.156 4.429-4.901 9.828-5.043 15.616-.101 4.262.632 8.67 2.18 13.104a1.979 1.979 0 0 0 1.856 1.324c4.28 0 8.33-.601 12.043-1.84.294-.096.587-.197.875-.303 5.514-2.012 10.117-5.445 13.308-9.919 3.126-4.378 4.866-9.716 5.038-15.434.132-4.317-.602-8.786-2.175-13.28a1.979 1.979 0 0 0-1.856-1.325c-.056-.005-.111-.005-.167-.005Z" fill="currentColor"/>
  <path d="M67.427 54.851a.725.725 0 0 1-.571-1.163l21.83-28.34a.724.724 0 0 1 1.012-.131.723.723 0 0 1 .132 1.01L67.998 54.569a.711.711 0 0 1-.572.283Z" fill="currentColor"/>
  <path d="M67.433 76.22a.718.718 0 0 1-.719-.718V53.805a.718.718 0 1 1 1.437 0v21.697a.72.72 0 0 1-.718.718Z" fill="currentColor"/>
  <path d="M123.835 125.995H6.078c-1.912 0-3.626-1.264-4.173-3.073A21.488 21.488 0 0 1 1 116.729c0-11.183 8.619-20.545 19.701-21.526 2.625-6.542 9.049-10.91 16.135-10.91 3.313 0 6.51.93 9.292 2.695 4.926-7.664 13.237-12.214 22.382-12.214a26.672 26.672 0 0 1 16.646 5.844 17.542 17.542 0 0 1 4.254-.53c8.861 0 16.282 6.698 17.263 15.403a17.421 17.421 0 0 1 6.166-.268c7.814 1.052 14.096 7.492 14.936 15.318a17.413 17.413 0 0 1-.516 6.476c1.548 1.335 2.13 3.417 1.477 5.414-.713 2.169-2.635 3.564-4.901 3.564ZM36.836 85.739c-6.636 0-12.645 4.181-14.946 10.4a.718.718 0 0 1-.627.47c-10.552.707-18.821 9.544-18.821 20.125 0 1.966.283 3.913.844 5.778.36 1.203 1.508 2.048 2.792 2.048H123.84c1.978 0 3.136-1.386 3.525-2.569.4-1.213.274-2.911-1.279-4.054l-.056-.04c-.248-.182-.379-.516-.288-.809.627-2.063.829-4.211.597-6.38-.769-7.174-6.525-13.083-13.693-14.044a16.001 16.001 0 0 0-6.423.44.725.725 0 0 1-.916-.647c-.526-8.362-7.506-14.914-15.897-14.914-1.427 0-2.853.193-4.234.572a.725.725 0 0 1-.652-.142A25.221 25.221 0 0 0 68.51 76.22c-8.887 0-16.94 4.545-21.548 12.153a.713.713 0 0 1-.465.334.73.73 0 0 1-.561-.111 15.822 15.822 0 0 0-9.1-2.857Z" fill="currentColor"/>
  <path d="M57.554 103.135a.718.718 0 0 1-.718-.718c0-6.269 5.103-11.37 11.375-11.37 2.681 0 5.281.951 7.325 2.67a.721.721 0 1 1-.931 1.102 9.926 9.926 0 0 0-6.399-2.33c-5.478 0-9.934 4.453-9.934 9.928a.715.715 0 0 1-.718.718ZM102.394 116.254h-.02a.72.72 0 0 1-.704-.738 7.367 7.367 0 0 0-1.608-4.763c-2.529-3.154-7.157-3.665-10.313-1.132a.722.722 0 0 1-1.012-.111.72.72 0 0 1 .111-1.011c3.779-3.023 9.312-2.417 12.337 1.36a8.787 8.787 0 0 1 1.927 5.697.714.714 0 0 1-.718.698ZM26.64 115.92a.718.718 0 0 1-.719-.718c0-6.061 4.937-10.995 11.001-10.995a.717.717 0 1 1 0 1.435c-5.27 0-9.56 4.287-9.56 9.555a.727.727 0 0 1-.723.723Z" fill="currentColor"/>
  <path d="M45.172 55.574c-5.453 0-10.632-1.395-15.078-4.075-4.856-2.922-8.77-7.34-11.325-12.78-1.912-4.064-3.06-8.624-3.424-13.553a3.422 3.422 0 0 1 2.033-3.377c4.603-2.017 9.246-3.134 13.798-3.316 6.01-.243 11.523 1.117 16.389 4.044 4.906 2.952 8.846 7.431 11.4 12.952 1.862 4.024 2.99 8.528 3.344 13.386a3.423 3.423 0 0 1-2.034 3.377c-4.061 1.78-8.178 2.862-12.235 3.216-.324.025-.642.05-.966.07-.632.036-1.27.056-1.902.056Zm-12.62-35.696c-.435 0-.87.01-1.31.025-4.37.177-8.841 1.254-13.282 3.195a1.981 1.981 0 0 0-1.179 1.952c.35 4.757 1.457 9.145 3.293 13.048 2.433 5.181 6.156 9.382 10.763 12.158 4.715 2.84 10.304 4.155 16.156 3.812.308-.02.617-.04.93-.066 3.9-.339 7.86-1.385 11.78-3.1a1.981 1.981 0 0 0 1.18-1.95c-.345-4.687-1.427-9.02-3.218-12.887-2.432-5.257-6.18-9.519-10.839-12.32-4.264-2.568-9.059-3.867-14.274-3.867Z" stroke="currentColor"/>
  <path d="M67.427 54.523a.69.69 0 0 1-.339-.086L42.32 41.277a.723.723 0 0 1-.298-.975.724.724 0 0 1 .976-.298l24.77 13.164a.723.723 0 0 1 .298.975.716.716 0 0 1-.638.38ZM77.255 44.983h-.182a3.417 3.417 0 0 1-3.212-2.29c-1.603-4.6-2.367-9.175-2.26-13.61.146-6.076 1.982-11.753 5.31-16.414 3.298-4.62 7.815-8.063 13.43-10.227C94.593.804 99.297-.02 104.32 0a3.419 3.419 0 0 1 3.212 2.29c1.628 4.661 2.387 9.307 2.251 13.797-.183 6.005-2.014 11.617-5.306 16.227-3.364 4.717-8.2 8.321-13.986 10.44-.303.11-.607.217-.915.318-3.804 1.264-7.952 1.911-12.322 1.911ZM104.15 1.436c-4.78 0-9.251.789-13.288 2.346-5.346 2.062-9.64 5.333-12.771 9.716-3.156 4.429-4.901 9.828-5.043 15.616-.101 4.262.632 8.67 2.18 13.104a1.979 1.979 0 0 0 1.856 1.324c4.28 0 8.33-.601 12.043-1.84.294-.096.587-.197.875-.303 5.514-2.012 10.117-5.445 13.308-9.919 3.126-4.378 4.866-9.716 5.038-15.434.132-4.317-.602-8.786-2.175-13.28a1.979 1.979 0 0 0-1.856-1.325c-.056-.005-.111-.005-.167-.005Z" stroke="currentColor"/>
  <path d="M67.427 54.851a.725.725 0 0 1-.571-1.163l21.83-28.34a.724.724 0 0 1 1.012-.131.723.723 0 0 1 .132 1.01L67.998 54.569a.711.711 0 0 1-.572.283Z" stroke="currentColor"/>
  <path d="M67.433 76.22a.718.718 0 0 1-.719-.718V53.805a.718.718 0 1 1 1.437 0v21.697a.72.72 0 0 1-.718.718Z" stroke="currentColor"/>
  <path d="M123.835 125.995H6.078c-1.912 0-3.626-1.264-4.173-3.073A21.488 21.488 0 0 1 1 116.729c0-11.183 8.619-20.545 19.701-21.526 2.625-6.542 9.049-10.91 16.135-10.91 3.313 0 6.51.93 9.292 2.695 4.926-7.664 13.237-12.214 22.382-12.214a26.672 26.672 0 0 1 16.646 5.844 17.542 17.542 0 0 1 4.254-.53c8.861 0 16.282 6.698 17.263 15.403a17.421 17.421 0 0 1 6.166-.268c7.814 1.052 14.096 7.492 14.936 15.318a17.413 17.413 0 0 1-.516 6.476c1.548 1.335 2.13 3.417 1.477 5.414-.713 2.169-2.635 3.564-4.901 3.564ZM36.836 85.739c-6.636 0-12.645 4.181-14.946 10.4a.718.718 0 0 1-.627.47c-10.552.707-18.821 9.544-18.821 20.125 0 1.966.283 3.913.844 5.778.36 1.203 1.508 2.048 2.792 2.048H123.84c1.978 0 3.136-1.386 3.525-2.569.4-1.213.274-2.911-1.279-4.054l-.056-.04c-.248-.182-.379-.516-.288-.809.627-2.063.829-4.211.597-6.38-.769-7.174-6.525-13.083-13.693-14.044a16.001 16.001 0 0 0-6.423.44.725.725 0 0 1-.916-.647c-.526-8.362-7.506-14.914-15.897-14.914-1.427 0-2.853.193-4.234.572a.725.725 0 0 1-.652-.142A25.221 25.221 0 0 0 68.51 76.22c-8.887 0-16.94 4.545-21.548 12.153a.713.713 0 0 1-.465.334.73.73 0 0 1-.561-.111 15.822 15.822 0 0 0-9.1-2.857Z" stroke="currentColor"/>
  <path d="M57.554 103.135a.718.718 0 0 1-.718-.718c0-6.269 5.103-11.37 11.375-11.37 2.681 0 5.281.951 7.325 2.67a.721.721 0 1 1-.931 1.102 9.926 9.926 0 0 0-6.399-2.33c-5.478 0-9.934 4.453-9.934 9.928a.715.715 0 0 1-.718.718ZM102.394 116.254h-.02a.72.72 0 0 1-.704-.738 7.367 7.367 0 0 0-1.608-4.763c-2.529-3.154-7.157-3.665-10.313-1.132a.722.722 0 0 1-1.012-.111.72.72 0 0 1 .111-1.011c3.779-3.023 9.312-2.417 12.337 1.36a8.787 8.787 0 0 1 1.927 5.697.714.714 0 0 1-.718.698ZM26.64 115.92a.718.718 0 0 1-.719-.718c0-6.061 4.937-10.995 11.001-10.995a.717.717 0 1 1 0 1.435c-5.27 0-9.56 4.287-9.56 9.555a.727.727 0 0 1-.723.723Z" stroke="currentColor"/>
</svg>
