<svg width="126" height="126" viewBox="0 0 126 126" fill="none" xmlns="http://www.w3.org/2000/svg">
<g clip-path="url(#clip0_807_12)">
<path d="M38.69 79.3371C40.3786 92.7157 49.6728 101.591 63.34 101.591C75.7372 101.591 86.1572 92.9971 86.1572 79.7629C86.1572 65.8215 77.1443 57.5086 63.7586 57.5086C58.2671 57.5086 52.9128 59.4786 49.6728 62.4371L42.63 53.7057L75.8743 24.4086H31.2286V13H94.4701V22.2943L63.6214 48.9143C65.0286 48.6328 66.7171 48.4885 68.8314 48.4885C84.0429 48.4885 98.2657 59.8971 98.2657 78.9114C98.2657 99.3328 83.1914 113 63.3328 113C43.4742 113 30.5214 101.454 27 84.5543L38.69 79.3443V79.3371Z" fill="#142D23"/>
</g>
<defs>
<clipPath id="clip0_807_12">
<rect width="71.2729" height="100" fill="white" transform="translate(27 13)"/>
</clipPath>
</defs>
</svg>
