<svg viewbox="0 0 126 126" width="126" height="126" fill="none" xmlns="http://www.w3.org/2000/svg">
  <path d="M99.42 83.156a.753.753 0 0 0-.753 1.305l7.351 4.24a.752.752 0 1 0 .752-1.304l-7.35-4.24ZM83.432 98.391a.753.753 0 0 1 1.03.276l4.24 7.351a.753.753 0 0 1-1.305.753l-4.241-7.35a.753.753 0 0 1 .276-1.03ZM42.844 99.42a.753.753 0 0 0-1.305-.752l-4.24 7.35a.753.753 0 0 0 1.304.753l4.24-7.35ZM27.608 83.432a.753.753 0 0 1-.276 1.03l-7.35 4.24a.753.753 0 0 1-.753-1.305l7.35-4.24a.753.753 0 0 1 1.03.275ZM19.982 37.298a.753.753 0 0 0-.753 1.305l7.35 4.24a.753.753 0 1 0 .753-1.304l-7.35-4.24ZM37.575 18.953a.753.753 0 0 1 1.028.277l4.24 7.35a.753.753 0 0 1-1.304.753l-4.24-7.35a.753.753 0 0 1 .276-1.03ZM63.753 96.136a.753.753 0 1 0-1.506 0v16.972a.753.753 0 0 0 1.506 0V96.136ZM12.139 63c0-.416.337-.753.753-.753h16.972a.753.753 0 0 1 0 1.506H12.892a.753.753 0 0 1-.753-.753ZM73.203 18.85c.1-.405.509-.65.913-.55a45.712 45.712 0 0 1 19.442 10.265.753.753 0 0 1-1.003 1.124 44.206 44.206 0 0 0-18.802-9.927.753.753 0 0 1-.55-.913ZM99.571 34.988a.753.753 0 1 0-1.195.918 43.915 43.915 0 0 1 2.68 3.91.753.753 0 1 0 1.287-.783 45.61 45.61 0 0 0-2.772-4.045Z" fill="currentColor"/>
  <path fill-rule="evenodd" clip-rule="evenodd" d="M120 63c0-31.48-25.52-57-57-57S6 31.52 6 63s25.52 57 57 57 57-25.52 57-57ZM62.247 7.512C31.946 7.915 7.507 32.603 7.507 63c0 30.648 24.845 55.493 55.493 55.493 30.397 0 55.085-24.439 55.488-54.74H63a.753.753 0 0 1-.753-.753V7.512Zm1.506 0v54.735h54.735c-.399-30.05-24.684-54.336-54.735-54.735Z" fill="currentColor"/>
</svg>
