<svg viewbox="0 0 126 126" width="126" height="126" fill="none" xmlns="http://www.w3.org/2000/svg">
  <path d="M83.432 98.391a.753.753 0 0 1 1.03.276l4.24 7.351a.753.753 0 0 1-1.305.753l-4.241-7.35a.753.753 0 0 1 .276-1.03ZM42.844 99.42a.753.753 0 0 0-1.305-.752l-4.24 7.35a.753.753 0 0 0 1.304.753l4.241-7.35ZM27.609 83.432a.753.753 0 0 1-.277 1.03l-7.35 4.24a.753.753 0 0 1-.752-1.305l7.35-4.241a.753.753 0 0 1 1.029.276ZM19.982 37.298a.753.753 0 0 0-.752 1.305l7.35 4.24a.753.753 0 1 0 .753-1.304l-7.35-4.24ZM37.575 18.953a.753.753 0 0 1 1.028.277l4.241 7.35a.753.753 0 0 1-1.305.753l-4.24-7.35a.753.753 0 0 1 .276-1.03ZM63.753 96.136a.753.753 0 1 0-1.506 0v16.972a.753.753 0 0 0 1.506 0V96.136ZM12.139 63c0-.416.337-.753.753-.753h16.972a.753.753 0 1 1 0 1.506H12.892a.753.753 0 0 1-.753-.753ZM73.203 18.85c.1-.404.508-.65.912-.551A45.793 45.793 0 0 1 98.7 33.882a.753.753 0 0 1-1.17.95 44.287 44.287 0 0 0-23.776-15.07.753.753 0 0 1-.551-.912ZM103.872 41.743a.753.753 0 1 0-1.337.694 45.818 45.818 0 0 1 2.861 6.805.753.753 0 1 0 1.431-.47 47.221 47.221 0 0 0-2.955-7.029Z" fill="currentColor"/>
  <path fill-rule="evenodd" clip-rule="evenodd" d="M63 6C31.52 6 6 31.52 6 63s25.52 57 57 57 57-25.52 57-57S94.48 6 63 6Zm-.753 1.512C31.946 7.915 7.507 32.603 7.507 63c0 30.648 24.845 55.493 55.493 55.493 20.276 0 38.013-10.874 47.695-27.11l-48.071-27.73a.753.753 0 0 1-.377-.653V7.512Zm1.506 0v55.053l47.696 27.514c4.487-8.01 7.044-17.245 7.044-27.079 0-30.397-24.439-55.085-54.74-55.488Z" fill="currentColor"/>
</svg>

