<svg width="126" height="126" viewBox="0 0 126 126" fill="none" xmlns="http://www.w3.org/2000/svg">
<g clip-path="url(#clip0_807_7)">
<path d="M73.3719 64.692C80.8903 59.7638 85.4231 53.7028 85.4231 44.5535C85.4231 32.3015 76.6335 23.9892 62.5919 23.9892C49.6908 23.9892 40.4725 33.1458 40.4725 43.8464C40.4725 49.6188 42.3176 54.6913 46.0006 59.201L35.5111 65.962C30.5497 59.4752 28 52.4329 28 44.6906C28 27.3661 41.8963 13 63.1657 13C84.4352 13 97.7649 25.8148 97.7649 43.9835C97.7649 60.1823 89.5419 69.613 73.5172 77.6439C66.8559 81.1651 62.0325 83.8421 58.7709 85.6748C52.531 89.196 46.5744 94.8313 45.4412 101.592H97.9029V113H30.1284C30.1284 93.1429 40.4798 81.8722 57.6377 73.4228C64.4442 69.9017 69.689 67.0876 73.3791 64.692H73.3719Z" fill="#142D23"/>
</g>
<defs>
<clipPath id="clip0_807_7">
<rect width="69.9029" height="100" fill="white" transform="translate(28 13)"/>
</clipPath>
</defs>
</svg>
