<svg viewbox="0 0 126 126" width="126" height="126" fill="none" xmlns="http://www.w3.org/2000/svg">
  <g clip-path="url(#a)">
    <mask id="b" fill="#fff">
      <path d="M24.6 69.83a.69.69 0 0 1-.302-1.316l8.921-4.272a.694.694 0 0 1 .925.325.69.69 0 0 1-.326.923l-8.922 4.272a.702.702 0 0 1-.297.068ZM105.213 73.612a7.015 7.015 0 0 1-3.799-1.117 7.086 7.086 0 0 1-2.946-3.845.692.692 0 0 1 .458-.864.695.695 0 0 1 .866.457 5.688 5.688 0 0 0 2.367 3.092 5.679 5.679 0 0 0 4.291.762 5.654 5.654 0 0 0 3.574-2.485.694.694 0 0 1 1.169.747 7.044 7.044 0 0 1-4.446 3.093 7.85 7.85 0 0 1-1.534.16ZM64.348 70.714a.73.73 0 0 1-.228-.04 8.8 8.8 0 0 1-5.046-4.5 8.75 8.75 0 0 1-.375-6.738.695.695 0 0 1 1.31.461 7.353 7.353 0 0 0 .317 5.68 7.403 7.403 0 0 0 4.251 3.797c.36.126.55.52.424.883a.702.702 0 0 1-.653.457Z"/>
      <path d="M66.26 79.376c-2.865 0-5.645-.66-8.158-1.961-4.208-2.17-7.315-5.84-8.752-10.336a17.498 17.498 0 0 1 1.15-13.477c3.755-7.239 11.897-10.992 19.806-9.127.297.072.682.005.91-.107.225-.175.366-.413.454-.753.19-1.437.604-2.782 1.237-4 2.62-5.05 8.357-7.68 13.957-6.394a.69.69 0 0 1 .521.83.699.699 0 0 1-.833.52c-4.982-1.146-10.085 1.19-12.413 5.68a10.845 10.845 0 0 0-1.1 3.578c-.006.024-.01.048-.015.073-.166.699-.502 1.228-1.028 1.612-.024.019-.049.033-.073.048a2.869 2.869 0 0 1-1.933.262c-7.286-1.718-14.796 1.743-18.253 8.414a16.118 16.118 0 0 0-1.057 12.418c1.325 4.146 4.188 7.525 8.065 9.526 3.063 1.578 6.555 2.136 10.105 1.611 1.928-.242 4.013-1.019 6.394-2.374a.69.69 0 1 1 .687 1.2c-2.542 1.451-4.797 2.281-6.896 2.544-.93.145-1.855.213-2.776.213Z"/>
      <path d="M79.553 109.834c-.03 0-.059 0-.093-.005-7.485-.976-13.402-4.029-18.097-9.336a.691.691 0 0 1-.097-.776c3.706-7.152 5.43-13.968 5.269-20.838a.695.695 0 0 1 1.388-.034c.165 6.972-1.539 13.87-5.206 21.075 4.315 4.724 9.716 7.501 16.47 8.467 3.263-5.447 8.04-11.39 12.55-15.603a.69.69 0 0 1 .98.034.689.689 0 0 1-.03.976c-4.53 4.233-9.331 10.243-12.535 15.69a.683.683 0 0 1-.6.35Z"/>
      <path d="M102.724 98.24a8.756 8.756 0 0 1-4.008-.97c-.784-.403-1.573-1.097-2.337-2.059a2.474 2.474 0 0 0-1.86-.927c-3.176-.102-6.96-1.024-9.42-2.296-4.358-2.248-7.577-6.04-9.058-10.681-1.48-4.641-1.056-9.588 1.198-13.933 2.026-3.913 5.309-6.904 9.234-8.428.336-.17.584-.476.696-.87a.823.823 0 0 0-.277-.869.436.436 0 0 1-.049-.043c-5.206-5.054-6.536-13.026-3.234-19.39.857-1.656 2.021-3.166 3.453-4.496 5.075-4.651 12.618-5.641 18.774-2.466 6.083 3.136 9.555 9.578 8.839 16.414-.039.553.385 1.097.989 1.243 1.427.267 2.615.655 3.711 1.223a12.146 12.146 0 0 1 6.029 7.112 12.069 12.069 0 0 1-.779 9.341c-.838 1.612-1.992 2.986-3.346 3.972a.826.826 0 0 0-.37.713c-.005.253.044.597.277.806 2.713 2.719 3.322 6.627 1.578 9.991-1.943 3.743-6.277 5.482-10.314 4.142-.502-.16-.896.058-1.145.266-.243.21-.321.651-.19 1.069.726 2.272.551 4.544-.501 6.573-1.719 2.913-4.773 4.564-7.89 4.564Zm-3.37-2.199c3.55 1.83 7.963.496 10.047-3.039.872-1.69 1.013-3.544.39-5.486-.302-.942-.059-1.961.603-2.534.716-.617 1.622-.81 2.484-.534 3.39 1.126 7.028-.325 8.649-3.461 1.461-2.816.955-6.093-1.295-8.346-.468-.408-.726-1.053-.716-1.83.01-.748.336-1.38.94-1.816 1.178-.86 2.196-2.063 2.932-3.486a10.687 10.687 0 0 0 .686-8.282 10.764 10.764 0 0 0-5.347-6.307c-.984-.505-2.021-.844-3.36-1.097-1.31-.31-2.172-1.447-2.085-2.714.653-6.287-2.522-12.19-8.094-15.06-5.64-2.907-12.55-2-17.196 2.253a15.214 15.214 0 0 0-3.16 4.117c-3.02 5.816-1.802 13.108 2.95 17.74a2.23 2.23 0 0 1 .717 2.306 2.74 2.74 0 0 1-1.447 1.743c-.014.01-.034.014-.053.024-3.623 1.398-6.657 4.165-8.532 7.782-2.085 4.02-2.48 8.593-1.11 12.88 1.368 4.287 4.343 7.792 8.37 9.87 2.295 1.185 5.845 2.044 8.83 2.141a3.86 3.86 0 0 1 2.903 1.452c.643.786 1.295 1.374 1.894 1.684Z"/>
      <path d="M111.646 98.425c-1.729 0-3.482-.35-5.157-1.078a.691.691 0 0 1-.356-.912.696.696 0 0 1 .916-.355c5.517 2.408 11.98.156 14.712-5.131 1.656-3.204 1.729-6.87.195-10.055a.694.694 0 0 1 1.251-.597c1.724 3.583 1.647 7.695-.214 11.288-2.235 4.325-6.696 6.84-11.347 6.84ZM74.775 96.969a.69.69 0 0 1-.614-1.01c.034-.063 3.37-6.651 1.91-14.594a.694.694 0 0 1 1.363-.252c1.554 8.428-1.89 15.195-2.04 15.477a.688.688 0 0 1-.619.379ZM57.827 119c-1.105 0-2.235-.461-2.985-1.641l-43.616-67.7c-1.232-1.943-1.553-4.254-.9-6.516.71-2.471 2.502-4.55 4.913-5.705l8.245-3.947c2.415-1.155 5.162-1.252 7.539-.257 2.182.908 3.789 2.607 4.539 4.773L61.655 114.1c.716 2.078-.55 3.782-2.026 4.491a4.264 4.264 0 0 1-1.802.408ZM15.838 38.681c-2.06.986-3.584 2.748-4.183 4.84-.541 1.88-.278 3.792.74 5.39l43.616 67.7c.73 1.151 2.04 1.195 3.014.729.974-.466 1.758-1.51 1.315-2.797l-26.098-76.09c-.614-1.791-1.953-3.19-3.76-3.947-2.011-.84-4.344-.757-6.404.228l-8.24 3.947Z"/>
      <path d="M25.919 49.77a.69.69 0 0 1-.302-1.316l10.914-5.224a.694.694 0 0 1 .925.326.69.69 0 0 1-.326.922l-10.914 5.224a.7.7 0 0 1-.297.068ZM41.133 81.356a.69.69 0 0 1-.302-1.316l7.144-3.423a.694.694 0 0 1 .926.325.69.69 0 0 1-.327.923l-7.144 3.422a.7.7 0 0 1-.297.069ZM43.738 99.542a.69.69 0 0 1-.302-1.316l5.002-2.393a.695.695 0 0 1 .925.325.69.69 0 0 1-.326.922l-5.002 2.394a.7.7 0 0 1-.297.068ZM17.494 37.812a.692.692 0 0 1-.692-.626l-2.381-25.62a4.131 4.131 0 0 1 .954-3.053 4.15 4.15 0 0 1 2.84-1.495 4.162 4.162 0 0 1 3.063.951 4.149 4.149 0 0 1 1.5 2.83l2.143 23.037a.692.692 0 0 1-.629.753.693.693 0 0 1-.755-.627l-2.142-23.036a2.772 2.772 0 0 0-1.003-1.893 2.788 2.788 0 0 0-2.05-.636 2.785 2.785 0 0 0-1.9 1 2.767 2.767 0 0 0-.638 2.044l2.381 25.619a.692.692 0 0 1-.628.752h-.063Z"/>
      <path d="M15.044 38.987a.687.687 0 0 1-.482-.194L1.277 26.01A4.14 4.14 0 0 1 0 23.078a4.117 4.117 0 0 1 1.173-2.976A4.207 4.207 0 0 1 7.106 20l10.242 9.855a.694.694 0 0 1 .02.98.704.704 0 0 1-.985.02L6.142 21a2.814 2.814 0 0 0-3.97.068 2.794 2.794 0 0 0-.783 1.99c.014.753.316 1.447.852 1.967l13.28 12.782a.689.689 0 0 1 .02.976.722.722 0 0 1-.497.204Z"/>
    </mask>
    <path d="M24.6 69.83a.69.69 0 0 1-.302-1.316l8.921-4.272a.694.694 0 0 1 .925.325.69.69 0 0 1-.326.923l-8.922 4.272a.702.702 0 0 1-.297.068ZM105.213 73.612a7.015 7.015 0 0 1-3.799-1.117 7.086 7.086 0 0 1-2.946-3.845.692.692 0 0 1 .458-.864.695.695 0 0 1 .866.457 5.688 5.688 0 0 0 2.367 3.092 5.679 5.679 0 0 0 4.291.762 5.654 5.654 0 0 0 3.574-2.485.694.694 0 0 1 1.169.747 7.044 7.044 0 0 1-4.446 3.093 7.85 7.85 0 0 1-1.534.16ZM64.348 70.714a.73.73 0 0 1-.228-.04 8.8 8.8 0 0 1-5.046-4.5 8.75 8.75 0 0 1-.375-6.738.695.695 0 0 1 1.31.461 7.353 7.353 0 0 0 .317 5.68 7.403 7.403 0 0 0 4.251 3.797c.36.126.55.52.424.883a.702.702 0 0 1-.653.457Z" fill="currentColor"/>
    <path d="M66.26 79.376c-2.865 0-5.645-.66-8.158-1.961-4.208-2.17-7.315-5.84-8.752-10.336a17.498 17.498 0 0 1 1.15-13.477c3.755-7.239 11.897-10.992 19.806-9.127.297.072.682.005.91-.107.225-.175.366-.413.454-.753.19-1.437.604-2.782 1.237-4 2.62-5.05 8.357-7.68 13.957-6.394a.69.69 0 0 1 .521.83.699.699 0 0 1-.833.52c-4.982-1.146-10.085 1.19-12.413 5.68a10.845 10.845 0 0 0-1.1 3.578c-.006.024-.01.048-.015.073-.166.699-.502 1.228-1.028 1.612-.024.019-.049.033-.073.048a2.869 2.869 0 0 1-1.933.262c-7.286-1.718-14.796 1.743-18.253 8.414a16.118 16.118 0 0 0-1.057 12.418c1.325 4.146 4.188 7.525 8.065 9.526 3.063 1.578 6.555 2.136 10.105 1.611 1.928-.242 4.013-1.019 6.394-2.374a.69.69 0 1 1 .687 1.2c-2.542 1.451-4.797 2.281-6.896 2.544-.93.145-1.855.213-2.776.213Z" fill="currentColor"/>
    <path d="M79.553 109.834c-.03 0-.059 0-.093-.005-7.485-.976-13.402-4.029-18.097-9.336a.691.691 0 0 1-.097-.776c3.706-7.152 5.43-13.968 5.269-20.838a.695.695 0 0 1 1.388-.034c.165 6.972-1.539 13.87-5.206 21.075 4.315 4.724 9.716 7.501 16.47 8.467 3.263-5.447 8.04-11.39 12.55-15.603a.69.69 0 0 1 .98.034.689.689 0 0 1-.03.976c-4.53 4.233-9.331 10.243-12.535 15.69a.683.683 0 0 1-.6.35Z" fill="currentColor"/>
    <path d="M102.724 98.24a8.756 8.756 0 0 1-4.008-.97c-.784-.403-1.573-1.097-2.337-2.059a2.474 2.474 0 0 0-1.86-.927c-3.176-.102-6.96-1.024-9.42-2.296-4.358-2.248-7.577-6.04-9.058-10.681-1.48-4.641-1.056-9.588 1.198-13.933 2.026-3.913 5.309-6.904 9.234-8.428.336-.17.584-.476.696-.87a.823.823 0 0 0-.277-.869.436.436 0 0 1-.049-.043c-5.206-5.054-6.536-13.026-3.234-19.39.857-1.656 2.021-3.166 3.453-4.496 5.075-4.651 12.618-5.641 18.774-2.466 6.083 3.136 9.555 9.578 8.839 16.414-.039.553.385 1.097.989 1.243 1.427.267 2.615.655 3.711 1.223a12.146 12.146 0 0 1 6.029 7.112 12.069 12.069 0 0 1-.779 9.341c-.838 1.612-1.992 2.986-3.346 3.972a.826.826 0 0 0-.37.713c-.005.253.044.597.277.806 2.713 2.719 3.322 6.627 1.578 9.991-1.943 3.743-6.277 5.482-10.314 4.142-.502-.16-.896.058-1.145.266-.243.21-.321.651-.19 1.069.726 2.272.551 4.544-.501 6.573-1.719 2.913-4.773 4.564-7.89 4.564Zm-3.37-2.199c3.55 1.83 7.963.496 10.047-3.039.872-1.69 1.013-3.544.39-5.486-.302-.942-.059-1.961.603-2.534.716-.617 1.622-.81 2.484-.534 3.39 1.126 7.028-.325 8.649-3.461 1.461-2.816.955-6.093-1.295-8.346-.468-.408-.726-1.053-.716-1.83.01-.748.336-1.38.94-1.816 1.178-.86 2.196-2.063 2.932-3.486a10.687 10.687 0 0 0 .686-8.282 10.764 10.764 0 0 0-5.347-6.307c-.984-.505-2.021-.844-3.36-1.097-1.31-.31-2.172-1.447-2.085-2.714.653-6.287-2.522-12.19-8.094-15.06-5.64-2.907-12.55-2-17.196 2.253a15.214 15.214 0 0 0-3.16 4.117c-3.02 5.816-1.802 13.108 2.95 17.74a2.23 2.23 0 0 1 .717 2.306 2.74 2.74 0 0 1-1.447 1.743c-.014.01-.034.014-.053.024-3.623 1.398-6.657 4.165-8.532 7.782-2.085 4.02-2.48 8.593-1.11 12.88 1.368 4.287 4.343 7.792 8.37 9.87 2.295 1.185 5.845 2.044 8.83 2.141a3.86 3.86 0 0 1 2.903 1.452c.643.786 1.295 1.374 1.894 1.684Z" fill="currentColor"/>
    <path d="M111.646 98.425c-1.729 0-3.482-.35-5.157-1.078a.691.691 0 0 1-.356-.912.696.696 0 0 1 .916-.355c5.517 2.408 11.98.156 14.712-5.131 1.656-3.204 1.729-6.87.195-10.055a.694.694 0 0 1 1.251-.597c1.724 3.583 1.647 7.695-.214 11.288-2.235 4.325-6.696 6.84-11.347 6.84ZM74.775 96.969a.69.69 0 0 1-.614-1.01c.034-.063 3.37-6.651 1.91-14.594a.694.694 0 0 1 1.363-.252c1.554 8.428-1.89 15.195-2.04 15.477a.688.688 0 0 1-.619.379ZM57.827 119c-1.105 0-2.235-.461-2.985-1.641l-43.616-67.7c-1.232-1.943-1.553-4.254-.9-6.516.71-2.471 2.502-4.55 4.913-5.705l8.245-3.947c2.415-1.155 5.162-1.252 7.539-.257 2.182.908 3.789 2.607 4.539 4.773L61.655 114.1c.716 2.078-.55 3.782-2.026 4.491a4.264 4.264 0 0 1-1.802.408ZM15.838 38.681c-2.06.986-3.584 2.748-4.183 4.84-.541 1.88-.278 3.792.74 5.39l43.616 67.7c.73 1.151 2.04 1.195 3.014.729.974-.466 1.758-1.51 1.315-2.797l-26.098-76.09c-.614-1.791-1.953-3.19-3.76-3.947-2.011-.84-4.344-.757-6.404.228l-8.24 3.947Z" fill="currentColor"/>
    <path d="M25.919 49.77a.69.69 0 0 1-.302-1.316l10.914-5.224a.694.694 0 0 1 .925.326.69.69 0 0 1-.326.922l-10.914 5.224a.7.7 0 0 1-.297.068ZM41.133 81.356a.69.69 0 0 1-.302-1.316l7.144-3.423a.694.694 0 0 1 .926.325.69.69 0 0 1-.327.923l-7.144 3.422a.7.7 0 0 1-.297.069ZM43.738 99.542a.69.69 0 0 1-.302-1.316l5.002-2.393a.695.695 0 0 1 .925.325.69.69 0 0 1-.326.922l-5.002 2.394a.7.7 0 0 1-.297.068ZM17.494 37.812a.692.692 0 0 1-.692-.626l-2.381-25.62a4.131 4.131 0 0 1 .954-3.053 4.15 4.15 0 0 1 2.84-1.495 4.162 4.162 0 0 1 3.063.951 4.149 4.149 0 0 1 1.5 2.83l2.143 23.037a.692.692 0 0 1-.629.753.693.693 0 0 1-.755-.627l-2.142-23.036a2.772 2.772 0 0 0-1.003-1.893 2.788 2.788 0 0 0-2.05-.636 2.785 2.785 0 0 0-1.9 1 2.767 2.767 0 0 0-.638 2.044l2.381 25.619a.692.692 0 0 1-.628.752h-.063Z" fill="currentColor"/>
    <path d="M15.044 38.987a.687.687 0 0 1-.482-.194L1.277 26.01A4.14 4.14 0 0 1 0 23.078a4.117 4.117 0 0 1 1.173-2.976A4.207 4.207 0 0 1 7.106 20l10.242 9.855a.694.694 0 0 1 .02.98.704.704 0 0 1-.985.02L6.142 21a2.814 2.814 0 0 0-3.97.068 2.794 2.794 0 0 0-.783 1.99c.014.753.316 1.447.852 1.967l13.28 12.782a.689.689 0 0 1 .02.976.722.722 0 0 1-.497.204Z" fill="currentColor"/>
    <path d="M24.6 69.83a.69.69 0 0 1-.302-1.316l8.921-4.272a.694.694 0 0 1 .925.325.69.69 0 0 1-.326.923l-8.922 4.272a.702.702 0 0 1-.297.068ZM105.213 73.612a7.015 7.015 0 0 1-3.799-1.117 7.086 7.086 0 0 1-2.946-3.845.692.692 0 0 1 .458-.864.695.695 0 0 1 .866.457 5.688 5.688 0 0 0 2.367 3.092 5.679 5.679 0 0 0 4.291.762 5.654 5.654 0 0 0 3.574-2.485.694.694 0 0 1 1.169.747 7.044 7.044 0 0 1-4.446 3.093 7.85 7.85 0 0 1-1.534.16ZM64.348 70.714a.73.73 0 0 1-.228-.04 8.8 8.8 0 0 1-5.046-4.5 8.75 8.75 0 0 1-.375-6.738.695.695 0 0 1 1.31.461 7.353 7.353 0 0 0 .317 5.68 7.403 7.403 0 0 0 4.251 3.797c.36.126.55.52.424.883a.702.702 0 0 1-.653.457Z" stroke="currentColor" stroke-width="2" mask="url(#b)"/>
    <path d="M66.26 79.376c-2.865 0-5.645-.66-8.158-1.961-4.208-2.17-7.315-5.84-8.752-10.336a17.498 17.498 0 0 1 1.15-13.477c3.755-7.239 11.897-10.992 19.806-9.127.297.072.682.005.91-.107.225-.175.366-.413.454-.753.19-1.437.604-2.782 1.237-4 2.62-5.05 8.357-7.68 13.957-6.394a.69.69 0 0 1 .521.83.699.699 0 0 1-.833.52c-4.982-1.146-10.085 1.19-12.413 5.68a10.845 10.845 0 0 0-1.1 3.578c-.006.024-.01.048-.015.073-.166.699-.502 1.228-1.028 1.612-.024.019-.049.033-.073.048a2.869 2.869 0 0 1-1.933.262c-7.286-1.718-14.796 1.743-18.253 8.414a16.118 16.118 0 0 0-1.057 12.418c1.325 4.146 4.188 7.525 8.065 9.526 3.063 1.578 6.555 2.136 10.105 1.611 1.928-.242 4.013-1.019 6.394-2.374a.69.69 0 1 1 .687 1.2c-2.542 1.451-4.797 2.281-6.896 2.544-.93.145-1.855.213-2.776.213Z" stroke="currentColor" stroke-width="2" mask="url(#b)"/>
    <path d="M79.553 109.834c-.03 0-.059 0-.093-.005-7.485-.976-13.402-4.029-18.097-9.336a.691.691 0 0 1-.097-.776c3.706-7.152 5.43-13.968 5.269-20.838a.695.695 0 0 1 1.388-.034c.165 6.972-1.539 13.87-5.206 21.075 4.315 4.724 9.716 7.501 16.47 8.467 3.263-5.447 8.04-11.39 12.55-15.603a.69.69 0 0 1 .98.034.689.689 0 0 1-.03.976c-4.53 4.233-9.331 10.243-12.535 15.69a.683.683 0 0 1-.6.35Z" stroke="currentColor" stroke-width="2" mask="url(#b)"/>
    <path d="M102.724 98.24a8.756 8.756 0 0 1-4.008-.97c-.784-.403-1.573-1.097-2.337-2.059a2.474 2.474 0 0 0-1.86-.927c-3.176-.102-6.96-1.024-9.42-2.296-4.358-2.248-7.577-6.04-9.058-10.681-1.48-4.641-1.056-9.588 1.198-13.933 2.026-3.913 5.309-6.904 9.234-8.428.336-.17.584-.476.696-.87a.823.823 0 0 0-.277-.869.436.436 0 0 1-.049-.043c-5.206-5.054-6.536-13.026-3.234-19.39.857-1.656 2.021-3.166 3.453-4.496 5.075-4.651 12.618-5.641 18.774-2.466 6.083 3.136 9.555 9.578 8.839 16.414-.039.553.385 1.097.989 1.243 1.427.267 2.615.655 3.711 1.223a12.146 12.146 0 0 1 6.029 7.112 12.069 12.069 0 0 1-.779 9.341c-.838 1.612-1.992 2.986-3.346 3.972a.826.826 0 0 0-.37.713c-.005.253.044.597.277.806 2.713 2.719 3.322 6.627 1.578 9.991-1.943 3.743-6.277 5.482-10.314 4.142-.502-.16-.896.058-1.145.266-.243.21-.321.651-.19 1.069.726 2.272.551 4.544-.501 6.573-1.719 2.913-4.773 4.564-7.89 4.564Zm-3.37-2.199c3.55 1.83 7.963.496 10.047-3.039.872-1.69 1.013-3.544.39-5.486-.302-.942-.059-1.961.603-2.534.716-.617 1.622-.81 2.484-.534 3.39 1.126 7.028-.325 8.649-3.461 1.461-2.816.955-6.093-1.295-8.346-.468-.408-.726-1.053-.716-1.83.01-.748.336-1.38.94-1.816 1.178-.86 2.196-2.063 2.932-3.486a10.687 10.687 0 0 0 .686-8.282 10.764 10.764 0 0 0-5.347-6.307c-.984-.505-2.021-.844-3.36-1.097-1.31-.31-2.172-1.447-2.085-2.714.653-6.287-2.522-12.19-8.094-15.06-5.64-2.907-12.55-2-17.196 2.253a15.214 15.214 0 0 0-3.16 4.117c-3.02 5.816-1.802 13.108 2.95 17.74a2.23 2.23 0 0 1 .717 2.306 2.74 2.74 0 0 1-1.447 1.743c-.014.01-.034.014-.053.024-3.623 1.398-6.657 4.165-8.532 7.782-2.085 4.02-2.48 8.593-1.11 12.88 1.368 4.287 4.343 7.792 8.37 9.87 2.295 1.185 5.845 2.044 8.83 2.141a3.86 3.86 0 0 1 2.903 1.452c.643.786 1.295 1.374 1.894 1.684Z" stroke="currentColor" stroke-width="2" mask="url(#b)"/>
    <path d="M111.646 98.425c-1.729 0-3.482-.35-5.157-1.078a.691.691 0 0 1-.356-.912.696.696 0 0 1 .916-.355c5.517 2.408 11.98.156 14.712-5.131 1.656-3.204 1.729-6.87.195-10.055a.694.694 0 0 1 1.251-.597c1.724 3.583 1.647 7.695-.214 11.288-2.235 4.325-6.696 6.84-11.347 6.84ZM74.775 96.969a.69.69 0 0 1-.614-1.01c.034-.063 3.37-6.651 1.91-14.594a.694.694 0 0 1 1.363-.252c1.554 8.428-1.89 15.195-2.04 15.477a.688.688 0 0 1-.619.379ZM57.827 119c-1.105 0-2.235-.461-2.985-1.641l-43.616-67.7c-1.232-1.943-1.553-4.254-.9-6.516.71-2.471 2.502-4.55 4.913-5.705l8.245-3.947c2.415-1.155 5.162-1.252 7.539-.257 2.182.908 3.789 2.607 4.539 4.773L61.655 114.1c.716 2.078-.55 3.782-2.026 4.491a4.264 4.264 0 0 1-1.802.408ZM15.838 38.681c-2.06.986-3.584 2.748-4.183 4.84-.541 1.88-.278 3.792.74 5.39l43.616 67.7c.73 1.151 2.04 1.195 3.014.729.974-.466 1.758-1.51 1.315-2.797l-26.098-76.09c-.614-1.791-1.953-3.19-3.76-3.947-2.011-.84-4.344-.757-6.404.228l-8.24 3.947Z" stroke="currentColor" stroke-width="2" mask="url(#b)"/>
    <path d="M25.919 49.77a.69.69 0 0 1-.302-1.316l10.914-5.224a.694.694 0 0 1 .925.326.69.69 0 0 1-.326.922l-10.914 5.224a.7.7 0 0 1-.297.068ZM41.133 81.356a.69.69 0 0 1-.302-1.316l7.144-3.423a.694.694 0 0 1 .926.325.69.69 0 0 1-.327.923l-7.144 3.422a.7.7 0 0 1-.297.069ZM43.738 99.542a.69.69 0 0 1-.302-1.316l5.002-2.393a.695.695 0 0 1 .925.325.69.69 0 0 1-.326.922l-5.002 2.394a.7.7 0 0 1-.297.068ZM17.494 37.812a.692.692 0 0 1-.692-.626l-2.381-25.62a4.131 4.131 0 0 1 .954-3.053 4.15 4.15 0 0 1 2.84-1.495 4.162 4.162 0 0 1 3.063.951 4.149 4.149 0 0 1 1.5 2.83l2.143 23.037a.692.692 0 0 1-.629.753.693.693 0 0 1-.755-.627l-2.142-23.036a2.772 2.772 0 0 0-1.003-1.893 2.788 2.788 0 0 0-2.05-.636 2.785 2.785 0 0 0-1.9 1 2.767 2.767 0 0 0-.638 2.044l2.381 25.619a.692.692 0 0 1-.628.752h-.063Z" stroke="currentColor" stroke-width="2" mask="url(#b)"/>
    <path d="M15.044 38.987a.687.687 0 0 1-.482-.194L1.277 26.01A4.14 4.14 0 0 1 0 23.078a4.117 4.117 0 0 1 1.173-2.976A4.207 4.207 0 0 1 7.106 20l10.242 9.855a.694.694 0 0 1 .02.98.704.704 0 0 1-.985.02L6.142 21a2.814 2.814 0 0 0-3.97.068 2.794 2.794 0 0 0-.783 1.99c.014.753.316 1.447.852 1.967l13.28 12.782a.689.689 0 0 1 .02.976.722.722 0 0 1-.497.204Z" stroke="currentColor" stroke-width="2" mask="url(#b)"/>
  </g>
  <defs>
    <clipPath id="a">
      <path fill="#fff" d="M0 0h126v126H0z"/>
    </clipPath>
  </defs>
</svg>
