<svg viewbox="0 0 42 26" width="42" height="26" fill="none" xmlns="http://www.w3.org/2000/svg"><path d="M38.231 0H3.77C1.69 0 0 1.64 0 3.655v18.69C0 24.36 1.69 26 3.769 26H38.23C40.31 26 42 24.36 42 22.345V3.655C42 1.64 40.31 0 38.231 0Zm3.298 22.345c0 1.764-1.479 3.198-3.298 3.198H3.77c-1.82 0-3.298-1.434-3.298-3.198V3.655C.471 1.891 1.95.457 3.77.457H38.23c1.82 0 3.298 1.434 3.298 3.198v18.69Z" fill="currentColor"/><path d="M8.988 12.44c.283-.002.565-.005.845 0 .1.003.12-.03.118-.119-.005-.437-.003-.873-.003-1.31V9.674c.055.04.058.09.074.134.316.835.636 1.67.947 2.508.037.096.081.127.186.122.233-.008.463-.008.696 0 .097.002.141-.026.175-.117.312-.838.631-1.673.948-2.508.016-.043.018-.096.076-.134v.147c0 .827.002 1.657-.003 2.485 0 .096.021.13.126.124.267-.007.537-.007.803 0 .11.003.136-.028.136-.132a854.054 854.054 0 0 1 0-3.65c0-.107-.023-.142-.138-.14-.463.008-.927.008-1.393 0-.123-.002-.17.039-.209.145-.28.77-.568 1.533-.861 2.325-.029-.073-.05-.122-.068-.172-.272-.729-.547-1.457-.82-2.186-.023-.066-.044-.112-.135-.112-.5.006-1 .003-1.5.003-.073 0-.105.015-.105.094.003 1.244.003 2.485 0 3.729.003.078.029.101.105.101ZM34.132 12.313c-.002-.74-.002-1.482 0-2.22 0-.031-.02-.07.021-.097.03.04.058.081.087.122l1.523 2.226c.04.056.073.099.16.096.369-.005.738-.005 1.104 0 .081 0 .11-.018.107-.101a885.243 885.243 0 0 1 0-3.716c0-.084-.026-.104-.11-.102-.277.005-.554.005-.832 0-.1-.002-.13.02-.13.122.007.406.002.812.002 1.216v1.013l-.026.002c-.029-.04-.058-.079-.084-.12-.49-.71-.979-1.42-1.466-2.134-.047-.071-.096-.099-.185-.099-.375.005-.746.005-1.12 0-.09 0-.126.013-.126.112.002 1.233.002 2.47 0 3.703 0 .094.034.107.117.107.278-.005.555-.008.833 0 .11 0 .128-.036.125-.13ZM12.168 16.588c-.691.005-1.382 0-2.073.005-.102 0-.134-.025-.126-.124.01-.12.01-.239 0-.356-.013-.124.034-.152.157-.15.66.006 1.32 0 1.98.006.122.002.153-.036.148-.148-.01-.19-.002-.378-.002-.568 0-.173 0-.173-.184-.173-.66 0-1.319-.002-1.978.003-.097 0-.126-.026-.12-.117.007-.122.01-.249 0-.37-.011-.12.03-.145.148-.145.686.005 1.375 0 2.06.005.11 0 .14-.03.136-.135a8.267 8.267 0 0 1 0-.622c.003-.099-.018-.134-.133-.134-1.055.005-2.11.005-3.164 0-.1 0-.131.02-.131.124.005.61.002 1.216.002 1.825 0 .617.003 1.234-.002 1.85 0 .092.023.12.12.12 1.06-.003 2.12-.003 3.178 0 .104 0 .13-.03.128-.127a8.608 8.608 0 0 1 0-.634c.005-.115-.034-.138-.144-.135ZM14.937 12.323c0 .064-.01.117.092.115 1.078-.003 2.154-.003 3.232 0 .073 0 .094-.02.092-.09-.006-.205-.003-.413-.003-.621 0-.175 0-.175-.18-.175-.679 0-1.356-.003-2.034.002-.102 0-.136-.027-.128-.127.007-.121.01-.246 0-.37-.011-.112.028-.14.14-.137.674.005 1.346 0 2.019.005.102 0 .13-.026.128-.125a7.048 7.048 0 0 1 0-.621c.005-.117-.024-.155-.152-.155-.667.007-1.337 0-2.005.005-.1 0-.138-.023-.128-.124.008-.11.01-.221 0-.33-.013-.127.021-.17.168-.17.68.01 1.363.002 2.046.005.097 0 .136-.016.131-.122a9.31 9.31 0 0 1 0-.66c.003-.094-.029-.117-.123-.114-1.06.002-2.117.002-3.177 0-.097 0-.12.025-.12.116.005.612.002 1.226.002 1.838v1.855ZM29.46 16.585c-.685.008-1.374.003-2.06.005-.088 0-.133-.012-.125-.111.01-.122.01-.246 0-.37-.01-.115.024-.15.147-.148.672.008 1.345.002 2.017.005.095 0 .126-.023.124-.117a7.3 7.3 0 0 1 0-.634c.005-.11-.027-.14-.142-.14-.678.005-1.355.003-2.033.005-.087 0-.123-.018-.116-.106.008-.127.01-.257 0-.384-.007-.109.027-.14.142-.14.685.006 1.374 0 2.06.006.107 0 .151-.018.146-.135-.01-.21-.01-.424 0-.634.005-.107-.034-.122-.13-.122-1.055.002-2.11.002-3.165 0-.105 0-.128.03-.126.127.005.609.003 1.216.003 1.825v1.85c0 .064-.008.117.094.117a669.73 669.73 0 0 1 3.233 0c.07 0 .094-.023.091-.091-.005-.216-.01-.432.003-.648.008-.127-.029-.16-.163-.16ZM37.284 15.265c-.246-.15-.526-.185-.812-.187a57.562 57.562 0 0 0-.929 0 .619.619 0 0 1-.215-.03.296.296 0 0 1-.206-.298.291.291 0 0 1 .23-.277c.07-.017.144-.02.217-.022.532-.003 1.066 0 1.597-.003.055 0 .115.015.149-.058.123-.27.251-.536.385-.82-.822 0-1.626-.003-2.432.002-.162 0-.322.051-.473.11-.513.203-.799.672-.752 1.24.045.519.372.871.916.998.163.038.325.038.487.04.32.003.636-.004.956.014.25.015.38.264.25.464-.075.117-.193.15-.326.15-.678 0-1.356.002-2.034-.003-.092 0-.128.018-.126.115.008.228.006.459 0 .688 0 .065.016.093.092.093.728-.002 1.455.013 2.183-.007.759-.023 1.233-.416 1.324-1.084.066-.457-.047-.86-.481-1.125ZM32.64 15.085c-.353-.012-.709-.007-1.062-.007a.61.61 0 0 1-.215-.03c-.136-.052-.214-.16-.21-.295a.299.299 0 0 1 .231-.28.877.877 0 0 1 .23-.022h1.597c.052 0 .107.01.136-.056.123-.27.251-.536.387-.82-.83 0-1.64-.036-2.447.01-.871.048-1.363.736-1.17 1.543.11.457.524.785 1.047.823.364.028.728.005 1.092.012.078.003.154.003.23.016a.297.297 0 0 1 .249.264c.015.142-.058.259-.194.317-.07.03-.141.028-.215.028-.667 0-1.337.002-2.004-.003-.095 0-.126.02-.123.117a8.84 8.84 0 0 1 0 .647c-.003.102.02.135.133.135.683-.005 1.364-.003 2.047-.003.23 0 .453-.035.667-.116.79-.3 1.047-1.358.466-1.95-.238-.238-.544-.32-.871-.33ZM15.72 15.583c-.082-.087-.074-.132.002-.213.521-.561 1.037-1.125 1.552-1.688.03-.03.07-.054.074-.115-.411 0-.82.003-1.228-.002-.086-.003-.141.03-.196.091-.293.335-.594.668-.887 1.003-.066.073-.095.07-.16 0-.29-.333-.59-.66-.88-.995a.274.274 0 0 0-.232-.102c-.37.005-.739.003-1.105.003-.044 0-.089-.013-.139.018.04.045.076.088.115.129a238.08 238.08 0 0 0 1.545 1.678c.076.081.086.124.005.213-.542.581-1.079 1.173-1.615 1.76-.029.03-.07.055-.079.116.417 0 .82-.003 1.225.002a.23.23 0 0 0 .197-.086c.311-.358.628-.708.94-1.066.065-.071.096-.084.17 0 .31.363.633.716.95 1.074.03.035.054.08.115.08.445-.002.887 0 1.335 0-.014-.063-.058-.09-.09-.126a208.525 208.525 0 0 0-1.614-1.774ZM27.338 12.438c.034 0 .06-.01.076-.043.133-.274.264-.549.408-.843-.207 0-.39.003-.576 0-.345-.008-.67-.063-.9-.353-.162-.203-.202-.442-.207-.685-.005-.33.058-.642.346-.866.206-.16.45-.205.704-.205.358-.003.72 0 1.078 0 .058 0 .105.005.102-.08a25.114 25.114 0 0 1 0-.766c0-.053-.013-.078-.076-.078-.531.012-1.065-.036-1.594.03-.604.076-1.094.343-1.392.88-.27.486-.29 1.006-.207 1.531.089.541.366.97.874 1.244.427.231.893.244 1.364.234ZM23.535 12.44c.272-.005.544-.007.817 0 .12.003.138-.038.138-.142-.005-.609-.002-1.216-.002-1.825 0-.612-.003-1.223.002-1.838 0-.088-.018-.124-.118-.121a18.76 18.76 0 0 1-.845 0c-.092-.003-.126.017-.123.114.003 1.228.003 2.457 0 3.685-.003.112.034.13.13.127ZM24.744 16.012c.332-.112.6-.302.751-.612.43-.87-.146-1.795-1.149-1.822-.798-.023-1.599-.006-2.4-.01-.081 0-.097.027-.097.098.003 1.239.003 2.478 0 3.716 0 .084.026.104.11.104.285-.005.573-.005.859 0 .1.003.12-.03.12-.119a55.267 55.267 0 0 1 0-1.137c0-.038-.018-.084.021-.112.055-.04.382.01.434.066.364.406.728.813 1.095 1.216.034.038.06.084.128.084.416-.003.835 0 1.285 0l-1.34-1.414c.07-.025.128-.038.183-.058Zm-.204-1.069c-.04.162-.191.284-.393.292-.19.008-.382.003-.573.003v.002c-.18 0-.364-.005-.544.003-.079.002-.1-.023-.1-.097.006-.198.006-.396 0-.594-.002-.07.016-.101.097-.099.34.005.68 0 1.023.003.105 0 .207.018.302.07a.371.371 0 0 1 .188.417ZM23.095 12.438l-.293-.31c-.317-.335-.63-.673-.95-1.003-.086-.088-.073-.124.044-.14.008-.002.019-.002.027-.007.484-.155.806-.467.89-.957.08-.477-.037-.903-.453-1.216-.286-.213-.623-.281-.974-.284-.74-.005-1.484 0-2.225-.005-.083 0-.107.02-.107.104.003 1.239.003 2.478 0 3.716 0 .084.024.104.107.102.283-.005.563-.005.846 0 .102.002.13-.026.128-.125-.005-.373-.003-.748-.003-1.124 0-.04-.02-.091.03-.12.072-.043.37.008.428.074l1.084 1.208c.034.038.06.087.128.087h1.293Zm-1.738-2.247c-.38.018-.764.01-1.146.013-.063 0-.076-.033-.076-.084 0-.208.003-.414 0-.622 0-.073.029-.088.097-.086.183.003.364.003.547.003v.002c.18 0 .364-.005.544.003.252.01.419.162.432.375.013.214-.139.384-.398.396ZM6.941 8.6c-.034-.074-.078-.081-.146-.081-.39.002-.783.002-1.173 0-.084 0-.126.022-.162.099-.56 1.238-1.126 2.477-1.688 3.713-.014.03-.042.059-.021.104.36 0 .725-.002 1.086.003.07 0 .091-.038.112-.09.087-.202.178-.405.26-.61.028-.072.068-.097.149-.097.55.005 1.102.005 1.651 0 .09 0 .126.028.157.106.081.206.176.406.265.61.018.04.028.08.091.08.382-.002.762 0 1.154 0-.013-.035-.015-.055-.026-.073L6.941 8.6Zm-1.225 2.185c-.063 0-.097-.005-.063-.078l.492-1.135c.01-.023.024-.046.045-.091.191.439.372.863.563 1.302-.364.002-.7.002-1.037.002ZM27.895 12.438c.388 0 .754-.003 1.123 0 .066 0 .084-.038.102-.084.087-.203.178-.406.26-.612.03-.079.075-.101.162-.101.544.005 1.091.005 1.635 0 .097 0 .137.033.168.114.081.2.173.398.259.596.018.046.034.087.102.087.377-.003.754 0 1.139 0-.008-.03-.014-.054-.021-.071l-1.71-3.762c-.03-.069-.07-.089-.143-.086-.388.002-.773.005-1.16-.003-.105-.003-.149.033-.188.122-.469 1.038-.943 2.071-1.414 3.107-.102.228-.204.452-.314.693Zm1.937-1.747c.173-.393.34-.787.526-1.216.186.435.361.836.534 1.237.029.068-.008.073-.063.073-.314 0-.628-.002-.942 0-.086.003-.081-.03-.055-.094ZM20.91 13.86c-.283-.227-.623-.293-.982-.293-.74 0-1.481.003-2.222-.002-.105 0-.125.03-.125.127.005.609.002 1.216.002 1.825 0 .617.003 1.233-.002 1.85 0 .092.023.122.12.12.283-.008.563-.006.845 0 .092.002.115-.028.113-.115-.005-.347.002-.695-.005-1.043-.003-.099.023-.13.128-.127.309.008.617.003.926.003.21 0 .42.007.626-.04.529-.128.9-.425 1.015-.955.113-.523.008-.995-.44-1.35Zm-.613 1.103c-.036.214-.196.343-.442.35-.186.006-.372 0-.558 0-.178 0-.353-.002-.53.003-.08.003-.113-.015-.11-.101.004-.221.004-.44 0-.66-.003-.079.023-.107.107-.107.345.005.69-.002 1.036.003.35.007.547.215.497.512Z" fill="currentColor"/></svg>
