<svg viewbox="0 0 42 26" width="42" height="26" fill="none" xmlns="http://www.w3.org/2000/svg"><path d="M12.861 7.94c.058.54-.162 1.071-.486 1.464-.335.384-.87.688-1.406.643-.068-.518.2-1.072.5-1.41.335-.393.916-.674 1.393-.697Z" fill="currentColor"/><path d="M13.563 12.59c-.01-1.088.86-1.64 1-1.73l.01-.006.008-.005c-.555-.797-1.424-.889-1.725-.909-.473-.028-.903.137-1.25.27-.223.084-.412.156-.556.156-.16 0-.357-.075-.579-.16-.29-.111-.623-.239-.973-.233-.798.01-1.539.45-1.944 1.147-.835 1.394-.22 3.46.591 4.597.393.561.869 1.18 1.495 1.158.274-.01.47-.091.673-.174.236-.097.482-.197.868-.197.368 0 .602.097.827.19.214.09.42.176.725.17.65-.012 1.055-.56 1.448-1.124.414-.585.602-1.152.642-1.27l.007-.022a.208.208 0 0 0-.021-.01c-.165-.075-1.234-.563-1.246-1.848Z" fill="currentColor"/><path fill-rule="evenodd" clip-rule="evenodd" d="M16.353 8.374h3.261c1.686 0 2.86 1.127 2.858 2.77 0 1.647-1.199 2.779-2.902 2.779h-1.867v2.88h-1.35v-8.43Zm1.35 4.45h1.547c1.175 0 1.846-.612 1.846-1.676 0-1.063-.67-1.67-1.838-1.67h-1.555v3.346ZM25.694 10.547c-1.565 0-2.541.817-2.615 1.926h1.228c.115-.548.584-.898 1.337-.898.796 0 1.272.408 1.272 1.091v.472l-1.735.1c-1.505.08-2.355.74-2.355 1.817 0 1.104.866 1.853 2.107 1.853.832 0 1.633-.432 2-1.117h.028v1.01h1.246v-4.234c.002-1.233-.98-2.02-2.513-2.02Zm1.222 3.954c0 .8-.712 1.41-1.62 1.41-.698 0-1.156-.351-1.156-.89 0-.525.44-.857 1.216-.91l1.56-.094v.484Z" fill="currentColor"/><path d="M31.774 15.656h.024l1.602-5h1.374L32.4 17.123c-.542 1.488-1.168 1.968-2.481 1.968-.108 0-.432-.01-.53-.028V18.04c.098.023.312.023.422.023.602 0 .927-.246 1.126-.876 0-.008.043-.147.076-.255l.039-.126-2.288-6.15h1.408l1.602 5Z" fill="currentColor"/><path fill-rule="evenodd" clip-rule="evenodd" d="M3.769 0H38.23C40.31 0 42 1.64 42 3.655v18.69C42 24.36 40.31 26 38.231 26H3.77C1.69 26 0 24.36 0 22.345V3.655C0 1.64 1.69 0 3.769 0ZM38.23 25.543c1.82 0 3.298-1.434 3.298-3.198V3.655c0-1.764-1.479-3.198-3.298-3.198H3.77C1.949.457.47 1.89.47 3.655v18.69c0 1.764 1.479 3.198 3.298 3.198H38.23Z" fill="currentColor"/></svg>
