<svg viewbox="0 0 74 74" width="74" height="74" fill="none" xmlns="http://www.w3.org/2000/svg"><g filter="url(#a)"><path d="M37 59c12.15 0 22-9.85 22-22s-9.85-22-22-22-22 9.85-22 22 9.85 22 22 22Z" fill="#fff"/><path fill-rule="evenodd" clip-rule="evenodd" d="M39.015 25.745a.75.75 0 0 1 1.06-.01l10.94 10.73a.75.75 0 0 1 0 1.07l-10.94 10.73a.75.75 0 1 1-1.05-1.07l9.63-9.445H22.56a.75.75 0 1 1 0-1.5h26.094l-9.63-9.445a.75.75 0 0 1-.01-1.06Z" fill="currentColor"/></g><defs><filter id="a" x="0" y="0" viewbox="0 0 74 74" width="74" height="74" filterUnits="userSpaceOnUse" color-interpolation-filters="sRGB"><feFlood flood-opacity="0" result="BackgroundImageFix"/><feColorMatrix in="SourceAlpha" values="0 0 0 0 0 0 0 0 0 0 0 0 0 0 0 0 0 0 127 0" result="hardAlpha"/><feOffset/><feGaussianBlur stdDeviation="7.5"/><feColorMatrix values="0 0 0 0 0 0 0 0 0 0 0 0 0 0 0 0 0 0 0.1 0"/><feBlend in2="BackgroundImageFix" result="effect1_dropShadow_3623_105867"/><feBlend in="SourceGraphic" in2="effect1_dropShadow_3623_105867" result="shape"/></filter></defs></svg>
