<svg viewbox="0 0 74 73" width="74" height="73" fill="none" xmlns="http://www.w3.org/2000/svg"><g filter="url(#a)"><path d="M37 59c12.15 0 22-9.85 22-22s-9.85-22-22-22-22 9.85-22 22 9.85 22 22 22Z" fill="#fff"/><path d="M34.975 26.805a.75.75 0 1 0-1.05-1.07L22.986 36.463a.747.747 0 0 0-.001 1.072l10.94 10.73a.75.75 0 0 0 1.05-1.07l-9.63-9.445H51.44a.75.75 0 0 0 0-1.5H25.346l9.63-9.445Z" fill="currentColor"/></g><defs><filter id="a" x="0" y="0" viewbox="0 0 74 74" width="74" height="74" filterUnits="userSpaceOnUse" color-interpolation-filters="sRGB"><feFlood flood-opacity="0" result="BackgroundImageFix"/><feColorMatrix in="SourceAlpha" values="0 0 0 0 0 0 0 0 0 0 0 0 0 0 0 0 0 0 127 0" result="hardAlpha"/><feOffset/><feGaussianBlur stdDeviation="7.5"/><feColorMatrix values="0 0 0 0 0 0 0 0 0 0 0 0 0 0 0 0 0 0 0.1 0"/><feBlend in2="BackgroundImageFix" result="effect1_dropShadow_3623_106581"/><feBlend in="SourceGraphic" in2="effect1_dropShadow_3623_106581" result="shape"/></filter></defs></svg>
