<svg width="213" height="190" viewBox="0 0 213 190" fill="none" xmlns="http://www.w3.org/2000/svg">
<mask id="path-1-inside-1_5681_136699" fill="white">
<path d="M41.5709 106.587C41.1347 106.587 40.715 106.34 40.5092 105.92C40.2294 105.335 40.4763 104.635 41.0606 104.355L56.138 97.1071C56.7223 96.8271 57.4219 97.0742 57.7017 97.6589C57.9815 98.2437 57.7346 98.9437 57.1503 99.2237L42.0729 106.471C41.9166 106.545 41.7437 106.587 41.5709 106.587Z"/>
<path d="M177.802 113.002C175.547 113.002 173.325 112.36 171.383 111.108C169.012 109.593 167.243 107.27 166.404 104.585C166.214 103.968 166.56 103.309 167.177 103.119C167.794 102.93 168.453 103.276 168.642 103.894C169.317 106.051 170.733 107.921 172.642 109.14C174.806 110.523 177.382 110.985 179.893 110.433C182.403 109.881 184.551 108.382 185.933 106.216C186.279 105.672 187.003 105.508 187.555 105.862C188.098 106.208 188.262 106.933 187.909 107.484C186.188 110.178 183.522 112.039 180.395 112.731C179.53 112.904 178.666 113.002 177.802 113.002Z"/>
<path d="M108.744 108.086C108.612 108.086 108.481 108.061 108.357 108.02C104.588 106.694 101.568 103.984 99.831 100.385C98.1027 96.7859 97.8805 92.7256 99.1973 88.9536C99.4113 88.3441 100.078 88.0229 100.695 88.2371C101.304 88.4512 101.625 89.1183 101.411 89.736C100.3 92.9151 100.481 96.333 101.946 99.372C103.403 102.411 105.954 104.692 109.131 105.812C109.74 106.027 110.061 106.694 109.847 107.311C109.674 107.781 109.221 108.086 108.744 108.086Z"/>
<path d="M111.973 122.781C107.134 122.781 102.435 121.661 98.1879 119.454C91.0772 115.772 85.8264 109.546 83.3986 101.919C80.9707 94.293 81.662 86.1723 85.3408 79.0565C91.6862 66.7768 105.447 60.4104 118.812 63.573C119.314 63.6965 119.964 63.5812 120.351 63.3918C120.73 63.0953 120.969 62.6918 121.117 62.1152C121.438 59.6774 122.137 57.3961 123.207 55.3288C127.635 46.7635 137.33 42.2996 146.794 44.4822C147.428 44.6304 147.823 45.2563 147.675 45.8905C147.527 46.5247 146.893 46.9118 146.268 46.7717C137.848 44.8281 129.223 48.7895 125.289 56.4078C124.343 58.2444 123.717 60.2869 123.429 62.4776C123.421 62.5188 123.413 62.56 123.405 62.6012C123.125 63.7871 122.557 64.6849 121.668 65.3355C121.627 65.3684 121.586 65.3931 121.545 65.4179C120.606 65.9367 119.323 66.1097 118.277 65.8626C105.965 62.9471 93.2746 68.8193 87.4313 80.1354C84.0405 86.6912 83.4068 94.1777 85.6454 101.203C87.8839 108.236 92.7232 113.969 99.2742 117.362C104.451 120.038 110.352 120.986 116.352 120.096C119.611 119.684 123.133 118.367 127.157 116.069C127.717 115.748 128.433 115.945 128.754 116.505C129.075 117.065 128.878 117.782 128.318 118.103C124.022 120.566 120.211 121.974 116.664 122.419C115.092 122.666 113.529 122.781 111.973 122.781Z"/>
<path d="M134.438 174.451C134.389 174.451 134.339 174.451 134.282 174.442C121.632 172.787 111.633 167.607 103.699 158.605C103.378 158.242 103.312 157.715 103.535 157.287C109.798 145.155 112.711 133.592 112.439 121.938C112.423 121.288 112.933 120.752 113.583 120.736C114.25 120.736 114.768 121.238 114.785 121.881C115.065 133.708 112.184 145.411 105.987 157.633C113.279 165.646 122.406 170.357 133.821 171.996C139.335 162.756 147.409 152.675 155.03 145.526C155.499 145.081 156.248 145.106 156.684 145.584C157.128 146.053 157.104 146.803 156.635 147.239C148.981 154.421 140.866 164.617 135.45 173.858C135.236 174.236 134.85 174.451 134.438 174.451Z"/>
<path d="M173.597 154.783C171.3 154.783 168.98 154.248 166.823 153.136C165.498 152.452 164.165 151.275 162.873 149.644C162.107 148.68 160.964 148.112 159.729 148.071C154.363 147.898 147.968 146.333 143.812 144.175C136.446 140.362 131.006 133.93 128.504 126.056C126.002 118.183 126.718 109.79 130.529 102.419C133.953 95.7811 139.5 90.7078 146.133 88.1217C146.701 87.8335 147.121 87.3146 147.31 86.6475C147.466 86.1122 147.277 85.5192 146.841 85.1733C146.808 85.1486 146.783 85.1239 146.759 85.0992C137.961 76.5256 135.714 63.0022 141.294 52.2049C142.742 49.3965 144.709 46.8351 147.129 44.5785C155.705 36.6885 168.453 35.0083 178.856 40.3946C189.135 45.715 195.003 56.6441 193.793 68.2402C193.727 69.1791 194.443 70.1016 195.464 70.3486C197.875 70.8016 199.883 71.4605 201.735 72.4241C206.615 74.9525 210.237 79.2352 211.924 84.4897C213.627 89.7772 213.158 95.4023 210.607 100.336C209.191 103.07 207.241 105.401 204.953 107.073C204.525 107.386 204.336 107.756 204.327 108.283C204.319 108.712 204.401 109.296 204.797 109.65C209.381 114.263 210.409 120.892 207.463 126.6C204.179 132.95 196.855 135.898 190.032 133.625C189.184 133.353 188.518 133.724 188.098 134.078C187.686 134.432 187.555 135.182 187.777 135.89C189.003 139.744 188.707 143.599 186.929 147.041C184.024 151.983 178.864 154.783 173.597 154.783ZM167.901 151.052C173.901 154.157 181.357 151.892 184.88 145.897C186.353 143.031 186.592 139.884 185.538 136.59C185.028 134.992 185.44 133.263 186.559 132.291C187.769 131.245 189.299 130.916 190.756 131.385C196.484 133.296 202.632 130.833 205.373 125.513C207.842 120.736 206.986 115.177 203.183 111.355C202.393 110.663 201.957 109.568 201.974 108.25C201.99 106.982 202.541 105.911 203.562 105.17C205.554 103.712 207.274 101.67 208.516 99.2567C210.78 94.8834 211.191 89.8925 209.677 85.2062C208.179 80.5447 204.969 76.748 200.64 74.5078C198.978 73.6513 197.225 73.0747 194.962 72.6465C192.748 72.1194 191.291 70.1922 191.439 68.0426C192.542 57.3771 187.176 47.3622 177.761 42.4948C168.231 37.5615 156.552 39.1016 148.701 46.3163C146.487 48.3835 144.685 50.7389 143.36 53.3003C138.257 63.1669 140.314 75.5373 148.347 83.3943C149.474 84.3332 149.96 85.8981 149.557 87.3064C149.178 88.6324 148.306 89.6866 147.112 90.2631C147.088 90.2796 147.055 90.2878 147.022 90.3043C140.899 92.6762 135.771 97.3707 132.603 103.506C129.08 110.326 128.414 118.084 130.726 125.356C133.039 132.629 138.068 138.575 144.874 142.1C148.75 144.109 154.75 145.567 159.795 145.732C161.721 145.798 163.507 146.687 164.7 148.195C165.786 149.529 166.889 150.525 167.901 151.052Z"/>
<path d="M188.674 155.096C185.752 155.096 182.789 154.503 179.958 153.268C179.366 153.004 179.094 152.312 179.358 151.719C179.621 151.126 180.312 150.855 180.905 151.118C190.229 155.203 201.151 151.382 205.768 142.413C208.566 136.977 208.689 130.759 206.097 125.356C205.817 124.772 206.064 124.072 206.648 123.791C207.233 123.511 207.932 123.759 208.212 124.343C211.125 130.421 210.994 137.397 207.85 143.492C204.072 150.83 196.534 155.096 188.674 155.096Z"/>
<path d="M126.365 152.625C126.183 152.625 126.002 152.584 125.83 152.494C125.254 152.197 125.031 151.489 125.328 150.912C125.385 150.805 131.023 139.629 128.554 126.155C128.439 125.521 128.858 124.903 129.492 124.788C130.126 124.664 130.743 125.093 130.858 125.727C133.484 140.024 127.665 151.505 127.41 151.983C127.204 152.395 126.793 152.625 126.365 152.625Z"/>
<path d="M97.7241 190C95.8559 190 93.9466 189.218 92.6792 187.216L18.9712 72.3664C16.889 69.0721 16.3459 65.1518 17.4487 61.3139C18.6503 57.1218 21.6789 53.5968 25.7528 51.6367L39.6862 44.9408C43.7682 42.9807 48.41 42.816 52.4262 44.5043C56.1132 46.0445 58.8291 48.927 60.0966 52.6002L104.193 181.69C105.403 185.215 103.263 188.106 100.769 189.308C99.8475 189.745 98.794 190 97.7241 190ZM26.7651 53.745C23.2838 55.4169 20.7078 58.4066 19.6955 61.9562C18.7819 65.1435 19.2264 68.3885 20.9464 71.0981L94.6544 185.948C95.8888 187.9 98.1027 187.974 99.7487 187.183C101.395 186.393 102.72 184.622 101.971 182.439L57.8662 53.358C56.8293 50.3189 54.566 47.947 51.5127 46.6622C48.1137 45.2373 44.1715 45.3774 40.6902 47.0492L26.7651 53.745Z"/>
<path d="M43.8012 72.5559C43.365 72.5559 42.9452 72.3088 42.7395 71.8888C42.4597 71.304 42.7066 70.604 43.2909 70.3239L61.7343 61.4621C62.3187 61.1821 63.0182 61.4292 63.298 62.0139C63.5779 62.5987 63.331 63.2987 62.7466 63.5787L44.3032 72.4406C44.1468 72.5147 43.974 72.5559 43.8012 72.5559Z"/>
<path d="M69.5117 126.139C69.0755 126.139 68.6558 125.892 68.45 125.472C68.1702 124.887 68.4171 124.187 69.0014 123.907L81.0749 118.1C81.6592 117.82 82.3587 118.068 82.6386 118.652C82.9184 119.237 82.6715 119.937 82.0871 120.217L70.0137 126.023C69.8574 126.098 69.6845 126.139 69.5117 126.139Z"/>
<path d="M73.9148 156.99C73.4786 156.99 73.0588 156.743 72.8531 156.323C72.5733 155.739 72.8202 155.039 73.4045 154.759L81.8567 150.698C82.4411 150.418 83.1406 150.665 83.4204 151.25C83.7003 151.835 83.4534 152.535 82.869 152.815L74.4168 156.875C74.2604 156.949 74.0876 156.99 73.9148 156.99Z"/>
<path d="M29.5633 52.2708C28.9625 52.2708 28.4522 51.8178 28.3946 51.2084L24.3701 7.74746C24.1973 5.86967 24.7652 4.02483 25.9832 2.56707C27.193 1.10108 28.8966 0.203367 30.7813 0.0304124C32.6577 -0.142542 34.5013 0.425736 35.958 1.64465C37.4147 2.85533 38.32 4.56016 38.4928 6.44619L42.114 45.5256C42.1716 46.168 41.7025 46.7445 41.0523 46.8022C40.4104 46.8598 39.8343 46.3904 39.7767 45.7397L36.1555 6.66032C36.0403 5.40023 35.4395 4.26367 34.4601 3.44832C33.4807 2.63296 32.2545 2.25411 30.9953 2.36941C29.7361 2.48471 28.6003 3.08594 27.7856 4.06601C26.9708 5.04608 26.5922 6.27323 26.7074 7.53333L30.7319 50.9942C30.7895 51.6366 30.3204 52.2132 29.6702 52.2708C29.6373 52.2708 29.6044 52.2708 29.5633 52.2708Z"/>
<path d="M25.4236 54.2639C25.1273 54.2639 24.8393 54.1568 24.6088 53.9345L2.15737 32.2493C0.799421 30.9398 0.034031 29.1691 0.00111097 27.2748C-0.031809 25.3723 0.667741 23.5769 1.98454 22.2262C4.70044 19.4095 9.20225 19.3354 12.0087 22.0532L29.3164 38.7721C29.7855 39.2251 29.7937 39.9663 29.3493 40.4358C28.8966 40.897 28.1559 40.9135 27.6868 40.4687L10.3791 23.7498C8.49447 21.9297 5.48229 21.9791 3.67169 23.8651C2.79931 24.7711 2.3302 25.9735 2.34666 27.2419C2.37135 28.5184 2.88161 29.6962 3.78691 30.5774L26.2301 52.2626C26.6992 52.7155 26.7075 53.4568 26.263 53.918C26.0326 54.1404 25.7281 54.2639 25.4236 54.2639Z"/>
</mask>
<path d="M41.5709 106.587C41.1347 106.587 40.715 106.34 40.5092 105.92C40.2294 105.335 40.4763 104.635 41.0606 104.355L56.138 97.1071C56.7223 96.8271 57.4219 97.0742 57.7017 97.6589C57.9815 98.2437 57.7346 98.9437 57.1503 99.2237L42.0729 106.471C41.9166 106.545 41.7437 106.587 41.5709 106.587Z" fill="#003CA0"/>
<path d="M177.802 113.002C175.547 113.002 173.325 112.36 171.383 111.108C169.012 109.593 167.243 107.27 166.404 104.585C166.214 103.968 166.56 103.309 167.177 103.119C167.794 102.93 168.453 103.276 168.642 103.894C169.317 106.051 170.733 107.921 172.642 109.14C174.806 110.523 177.382 110.985 179.893 110.433C182.403 109.881 184.551 108.382 185.933 106.216C186.279 105.672 187.003 105.508 187.555 105.862C188.098 106.208 188.262 106.933 187.909 107.484C186.188 110.178 183.522 112.039 180.395 112.731C179.53 112.904 178.666 113.002 177.802 113.002Z" fill="#003CA0"/>
<path d="M108.744 108.086C108.612 108.086 108.481 108.061 108.357 108.02C104.588 106.694 101.568 103.984 99.831 100.385C98.1027 96.7859 97.8805 92.7256 99.1973 88.9536C99.4113 88.3441 100.078 88.0229 100.695 88.2371C101.304 88.4512 101.625 89.1183 101.411 89.736C100.3 92.9151 100.481 96.333 101.946 99.372C103.403 102.411 105.954 104.692 109.131 105.812C109.74 106.027 110.061 106.694 109.847 107.311C109.674 107.781 109.221 108.086 108.744 108.086Z" fill="#003CA0"/>
<path d="M111.973 122.781C107.134 122.781 102.435 121.661 98.1879 119.454C91.0772 115.772 85.8264 109.546 83.3986 101.919C80.9707 94.293 81.662 86.1723 85.3408 79.0565C91.6862 66.7768 105.447 60.4104 118.812 63.573C119.314 63.6965 119.964 63.5812 120.351 63.3918C120.73 63.0953 120.969 62.6918 121.117 62.1152C121.438 59.6774 122.137 57.3961 123.207 55.3288C127.635 46.7635 137.33 42.2996 146.794 44.4822C147.428 44.6304 147.823 45.2563 147.675 45.8905C147.527 46.5247 146.893 46.9118 146.268 46.7717C137.848 44.8281 129.223 48.7895 125.289 56.4078C124.343 58.2444 123.717 60.2869 123.429 62.4776C123.421 62.5188 123.413 62.56 123.405 62.6012C123.125 63.7871 122.557 64.6849 121.668 65.3355C121.627 65.3684 121.586 65.3931 121.545 65.4179C120.606 65.9367 119.323 66.1097 118.277 65.8626C105.965 62.9471 93.2746 68.8193 87.4313 80.1354C84.0405 86.6912 83.4068 94.1777 85.6454 101.203C87.8839 108.236 92.7232 113.969 99.2742 117.362C104.451 120.038 110.352 120.986 116.352 120.096C119.611 119.684 123.133 118.367 127.157 116.069C127.717 115.748 128.433 115.945 128.754 116.505C129.075 117.065 128.878 117.782 128.318 118.103C124.022 120.566 120.211 121.974 116.664 122.419C115.092 122.666 113.529 122.781 111.973 122.781Z" fill="#003CA0"/>
<path d="M134.438 174.451C134.389 174.451 134.339 174.451 134.282 174.442C121.632 172.787 111.633 167.607 103.699 158.605C103.378 158.242 103.312 157.715 103.535 157.287C109.798 145.155 112.711 133.592 112.439 121.938C112.423 121.288 112.933 120.752 113.583 120.736C114.25 120.736 114.768 121.238 114.785 121.881C115.065 133.708 112.184 145.411 105.987 157.633C113.279 165.646 122.406 170.357 133.821 171.996C139.335 162.756 147.409 152.675 155.03 145.526C155.499 145.081 156.248 145.106 156.684 145.584C157.128 146.053 157.104 146.803 156.635 147.239C148.981 154.421 140.866 164.617 135.45 173.858C135.236 174.236 134.85 174.451 134.438 174.451Z" fill="#003CA0"/>
<path d="M173.597 154.783C171.3 154.783 168.98 154.248 166.823 153.136C165.498 152.452 164.165 151.275 162.873 149.644C162.107 148.68 160.964 148.112 159.729 148.071C154.363 147.898 147.968 146.333 143.812 144.175C136.446 140.362 131.006 133.93 128.504 126.056C126.002 118.183 126.718 109.79 130.529 102.419C133.953 95.7811 139.5 90.7078 146.133 88.1217C146.701 87.8335 147.121 87.3146 147.31 86.6475C147.466 86.1122 147.277 85.5192 146.841 85.1733C146.808 85.1486 146.783 85.1239 146.759 85.0992C137.961 76.5256 135.714 63.0022 141.294 52.2049C142.742 49.3965 144.709 46.8351 147.129 44.5785C155.705 36.6885 168.453 35.0083 178.856 40.3946C189.135 45.715 195.003 56.6441 193.793 68.2402C193.727 69.1791 194.443 70.1016 195.464 70.3486C197.875 70.8016 199.883 71.4605 201.735 72.4241C206.615 74.9525 210.237 79.2352 211.924 84.4897C213.627 89.7772 213.158 95.4023 210.607 100.336C209.191 103.07 207.241 105.401 204.953 107.073C204.525 107.386 204.336 107.756 204.327 108.283C204.319 108.712 204.401 109.296 204.797 109.65C209.381 114.263 210.409 120.892 207.463 126.6C204.179 132.95 196.855 135.898 190.032 133.625C189.184 133.353 188.518 133.724 188.098 134.078C187.686 134.432 187.555 135.182 187.777 135.89C189.003 139.744 188.707 143.599 186.929 147.041C184.024 151.983 178.864 154.783 173.597 154.783ZM167.901 151.052C173.901 154.157 181.357 151.892 184.88 145.897C186.353 143.031 186.592 139.884 185.538 136.59C185.028 134.992 185.44 133.263 186.559 132.291C187.769 131.245 189.299 130.916 190.756 131.385C196.484 133.296 202.632 130.833 205.373 125.513C207.842 120.736 206.986 115.177 203.183 111.355C202.393 110.663 201.957 109.568 201.974 108.25C201.99 106.982 202.541 105.911 203.562 105.17C205.554 103.712 207.274 101.67 208.516 99.2567C210.78 94.8834 211.191 89.8925 209.677 85.2062C208.179 80.5447 204.969 76.748 200.64 74.5078C198.978 73.6513 197.225 73.0747 194.962 72.6465C192.748 72.1194 191.291 70.1922 191.439 68.0426C192.542 57.3771 187.176 47.3622 177.761 42.4948C168.231 37.5615 156.552 39.1016 148.701 46.3163C146.487 48.3835 144.685 50.7389 143.36 53.3003C138.257 63.1669 140.314 75.5373 148.347 83.3943C149.474 84.3332 149.96 85.8981 149.557 87.3064C149.178 88.6324 148.306 89.6866 147.112 90.2631C147.088 90.2796 147.055 90.2878 147.022 90.3043C140.899 92.6762 135.771 97.3707 132.603 103.506C129.08 110.326 128.414 118.084 130.726 125.356C133.039 132.629 138.068 138.575 144.874 142.1C148.75 144.109 154.75 145.567 159.795 145.732C161.721 145.798 163.507 146.687 164.7 148.195C165.786 149.529 166.889 150.525 167.901 151.052Z" fill="#003CA0"/>
<path d="M188.674 155.096C185.752 155.096 182.789 154.503 179.958 153.268C179.366 153.004 179.094 152.312 179.358 151.719C179.621 151.126 180.312 150.855 180.905 151.118C190.229 155.203 201.151 151.382 205.768 142.413C208.566 136.977 208.689 130.759 206.097 125.356C205.817 124.772 206.064 124.072 206.648 123.791C207.233 123.511 207.932 123.759 208.212 124.343C211.125 130.421 210.994 137.397 207.85 143.492C204.072 150.83 196.534 155.096 188.674 155.096Z" fill="#003CA0"/>
<path d="M126.365 152.625C126.183 152.625 126.002 152.584 125.83 152.494C125.254 152.197 125.031 151.489 125.328 150.912C125.385 150.805 131.023 139.629 128.554 126.155C128.439 125.521 128.858 124.903 129.492 124.788C130.126 124.664 130.743 125.093 130.858 125.727C133.484 140.024 127.665 151.505 127.41 151.983C127.204 152.395 126.793 152.625 126.365 152.625Z" fill="#003CA0"/>
<path d="M97.7241 190C95.8559 190 93.9466 189.218 92.6792 187.216L18.9712 72.3664C16.889 69.0721 16.3459 65.1518 17.4487 61.3139C18.6503 57.1218 21.6789 53.5968 25.7528 51.6367L39.6862 44.9408C43.7682 42.9807 48.41 42.816 52.4262 44.5043C56.1132 46.0445 58.8291 48.927 60.0966 52.6002L104.193 181.69C105.403 185.215 103.263 188.106 100.769 189.308C99.8475 189.745 98.794 190 97.7241 190ZM26.7651 53.745C23.2838 55.4169 20.7078 58.4066 19.6955 61.9562C18.7819 65.1435 19.2264 68.3885 20.9464 71.0981L94.6544 185.948C95.8888 187.9 98.1027 187.974 99.7487 187.183C101.395 186.393 102.72 184.622 101.971 182.439L57.8662 53.358C56.8293 50.3189 54.566 47.947 51.5127 46.6622C48.1137 45.2373 44.1715 45.3774 40.6902 47.0492L26.7651 53.745Z" fill="#003CA0"/>
<path d="M43.8012 72.5559C43.365 72.5559 42.9452 72.3088 42.7395 71.8888C42.4597 71.304 42.7066 70.604 43.2909 70.3239L61.7343 61.4621C62.3187 61.1821 63.0182 61.4292 63.298 62.0139C63.5779 62.5987 63.331 63.2987 62.7466 63.5787L44.3032 72.4406C44.1468 72.5147 43.974 72.5559 43.8012 72.5559Z" fill="#003CA0"/>
<path d="M69.5117 126.139C69.0755 126.139 68.6558 125.892 68.45 125.472C68.1702 124.887 68.4171 124.187 69.0014 123.907L81.0749 118.1C81.6592 117.82 82.3587 118.068 82.6386 118.652C82.9184 119.237 82.6715 119.937 82.0871 120.217L70.0137 126.023C69.8574 126.098 69.6845 126.139 69.5117 126.139Z" fill="#003CA0"/>
<path d="M73.9148 156.99C73.4786 156.99 73.0588 156.743 72.8531 156.323C72.5733 155.739 72.8202 155.039 73.4045 154.759L81.8567 150.698C82.4411 150.418 83.1406 150.665 83.4204 151.25C83.7003 151.835 83.4534 152.535 82.869 152.815L74.4168 156.875C74.2604 156.949 74.0876 156.99 73.9148 156.99Z" fill="#003CA0"/>
<path d="M29.5633 52.2708C28.9625 52.2708 28.4522 51.8178 28.3946 51.2084L24.3701 7.74746C24.1973 5.86967 24.7652 4.02483 25.9832 2.56707C27.193 1.10108 28.8966 0.203367 30.7813 0.0304124C32.6577 -0.142542 34.5013 0.425736 35.958 1.64465C37.4147 2.85533 38.32 4.56016 38.4928 6.44619L42.114 45.5256C42.1716 46.168 41.7025 46.7445 41.0523 46.8022C40.4104 46.8598 39.8343 46.3904 39.7767 45.7397L36.1555 6.66032C36.0403 5.40023 35.4395 4.26367 34.4601 3.44832C33.4807 2.63296 32.2545 2.25411 30.9953 2.36941C29.7361 2.48471 28.6003 3.08594 27.7856 4.06601C26.9708 5.04608 26.5922 6.27323 26.7074 7.53333L30.7319 50.9942C30.7895 51.6366 30.3204 52.2132 29.6702 52.2708C29.6373 52.2708 29.6044 52.2708 29.5633 52.2708Z" fill="#003CA0"/>
<path d="M25.4236 54.2639C25.1273 54.2639 24.8393 54.1568 24.6088 53.9345L2.15737 32.2493C0.799421 30.9398 0.034031 29.1691 0.00111097 27.2748C-0.031809 25.3723 0.667741 23.5769 1.98454 22.2262C4.70044 19.4095 9.20225 19.3354 12.0087 22.0532L29.3164 38.7721C29.7855 39.2251 29.7937 39.9663 29.3493 40.4358C28.8966 40.897 28.1559 40.9135 27.6868 40.4687L10.3791 23.7498C8.49447 21.9297 5.48229 21.9791 3.67169 23.8651C2.79931 24.7711 2.3302 25.9735 2.34666 27.2419C2.37135 28.5184 2.88161 29.6962 3.78691 30.5774L26.2301 52.2626C26.6992 52.7155 26.7075 53.4568 26.263 53.918C26.0326 54.1404 25.7281 54.2639 25.4236 54.2639Z" fill="#003CA0"/>
<path d="M41.5709 106.587C41.1347 106.587 40.715 106.34 40.5092 105.92C40.2294 105.335 40.4763 104.635 41.0606 104.355L56.138 97.1071C56.7223 96.8271 57.4219 97.0742 57.7017 97.6589C57.9815 98.2437 57.7346 98.9437 57.1503 99.2237L42.0729 106.471C41.9166 106.545 41.7437 106.587 41.5709 106.587Z" stroke="#003CA0" stroke-width="2" mask="url(#path-1-inside-1_5681_136699)"/>
<path d="M177.802 113.002C175.547 113.002 173.325 112.36 171.383 111.108C169.012 109.593 167.243 107.27 166.404 104.585C166.214 103.968 166.56 103.309 167.177 103.119C167.794 102.93 168.453 103.276 168.642 103.894C169.317 106.051 170.733 107.921 172.642 109.14C174.806 110.523 177.382 110.985 179.893 110.433C182.403 109.881 184.551 108.382 185.933 106.216C186.279 105.672 187.003 105.508 187.555 105.862C188.098 106.208 188.262 106.933 187.909 107.484C186.188 110.178 183.522 112.039 180.395 112.731C179.53 112.904 178.666 113.002 177.802 113.002Z" stroke="#003CA0" stroke-width="2" mask="url(#path-1-inside-1_5681_136699)"/>
<path d="M108.744 108.086C108.612 108.086 108.481 108.061 108.357 108.02C104.588 106.694 101.568 103.984 99.831 100.385C98.1027 96.7859 97.8805 92.7256 99.1973 88.9536C99.4113 88.3441 100.078 88.0229 100.695 88.2371C101.304 88.4512 101.625 89.1183 101.411 89.736C100.3 92.9151 100.481 96.333 101.946 99.372C103.403 102.411 105.954 104.692 109.131 105.812C109.74 106.027 110.061 106.694 109.847 107.311C109.674 107.781 109.221 108.086 108.744 108.086Z" stroke="#003CA0" stroke-width="2" mask="url(#path-1-inside-1_5681_136699)"/>
<path d="M111.973 122.781C107.134 122.781 102.435 121.661 98.1879 119.454C91.0772 115.772 85.8264 109.546 83.3986 101.919C80.9707 94.293 81.662 86.1723 85.3408 79.0565C91.6862 66.7768 105.447 60.4104 118.812 63.573C119.314 63.6965 119.964 63.5812 120.351 63.3918C120.73 63.0953 120.969 62.6918 121.117 62.1152C121.438 59.6774 122.137 57.3961 123.207 55.3288C127.635 46.7635 137.33 42.2996 146.794 44.4822C147.428 44.6304 147.823 45.2563 147.675 45.8905C147.527 46.5247 146.893 46.9118 146.268 46.7717C137.848 44.8281 129.223 48.7895 125.289 56.4078C124.343 58.2444 123.717 60.2869 123.429 62.4776C123.421 62.5188 123.413 62.56 123.405 62.6012C123.125 63.7871 122.557 64.6849 121.668 65.3355C121.627 65.3684 121.586 65.3931 121.545 65.4179C120.606 65.9367 119.323 66.1097 118.277 65.8626C105.965 62.9471 93.2746 68.8193 87.4313 80.1354C84.0405 86.6912 83.4068 94.1777 85.6454 101.203C87.8839 108.236 92.7232 113.969 99.2742 117.362C104.451 120.038 110.352 120.986 116.352 120.096C119.611 119.684 123.133 118.367 127.157 116.069C127.717 115.748 128.433 115.945 128.754 116.505C129.075 117.065 128.878 117.782 128.318 118.103C124.022 120.566 120.211 121.974 116.664 122.419C115.092 122.666 113.529 122.781 111.973 122.781Z" stroke="#003CA0" stroke-width="2" mask="url(#path-1-inside-1_5681_136699)"/>
<path d="M134.438 174.451C134.389 174.451 134.339 174.451 134.282 174.442C121.632 172.787 111.633 167.607 103.699 158.605C103.378 158.242 103.312 157.715 103.535 157.287C109.798 145.155 112.711 133.592 112.439 121.938C112.423 121.288 112.933 120.752 113.583 120.736C114.25 120.736 114.768 121.238 114.785 121.881C115.065 133.708 112.184 145.411 105.987 157.633C113.279 165.646 122.406 170.357 133.821 171.996C139.335 162.756 147.409 152.675 155.03 145.526C155.499 145.081 156.248 145.106 156.684 145.584C157.128 146.053 157.104 146.803 156.635 147.239C148.981 154.421 140.866 164.617 135.45 173.858C135.236 174.236 134.85 174.451 134.438 174.451Z" stroke="#003CA0" stroke-width="2" mask="url(#path-1-inside-1_5681_136699)"/>
<path d="M173.597 154.783C171.3 154.783 168.98 154.248 166.823 153.136C165.498 152.452 164.165 151.275 162.873 149.644C162.107 148.68 160.964 148.112 159.729 148.071C154.363 147.898 147.968 146.333 143.812 144.175C136.446 140.362 131.006 133.93 128.504 126.056C126.002 118.183 126.718 109.79 130.529 102.419C133.953 95.7811 139.5 90.7078 146.133 88.1217C146.701 87.8335 147.121 87.3146 147.31 86.6475C147.466 86.1122 147.277 85.5192 146.841 85.1733C146.808 85.1486 146.783 85.1239 146.759 85.0992C137.961 76.5256 135.714 63.0022 141.294 52.2049C142.742 49.3965 144.709 46.8351 147.129 44.5785C155.705 36.6885 168.453 35.0083 178.856 40.3946C189.135 45.715 195.003 56.6441 193.793 68.2402C193.727 69.1791 194.443 70.1016 195.464 70.3486C197.875 70.8016 199.883 71.4605 201.735 72.4241C206.615 74.9525 210.237 79.2352 211.924 84.4897C213.627 89.7772 213.158 95.4023 210.607 100.336C209.191 103.07 207.241 105.401 204.953 107.073C204.525 107.386 204.336 107.756 204.327 108.283C204.319 108.712 204.401 109.296 204.797 109.65C209.381 114.263 210.409 120.892 207.463 126.6C204.179 132.95 196.855 135.898 190.032 133.625C189.184 133.353 188.518 133.724 188.098 134.078C187.686 134.432 187.555 135.182 187.777 135.89C189.003 139.744 188.707 143.599 186.929 147.041C184.024 151.983 178.864 154.783 173.597 154.783ZM167.901 151.052C173.901 154.157 181.357 151.892 184.88 145.897C186.353 143.031 186.592 139.884 185.538 136.59C185.028 134.992 185.44 133.263 186.559 132.291C187.769 131.245 189.299 130.916 190.756 131.385C196.484 133.296 202.632 130.833 205.373 125.513C207.842 120.736 206.986 115.177 203.183 111.355C202.393 110.663 201.957 109.568 201.974 108.25C201.99 106.982 202.541 105.911 203.562 105.17C205.554 103.712 207.274 101.67 208.516 99.2567C210.78 94.8834 211.191 89.8925 209.677 85.2062C208.179 80.5447 204.969 76.748 200.64 74.5078C198.978 73.6513 197.225 73.0747 194.962 72.6465C192.748 72.1194 191.291 70.1922 191.439 68.0426C192.542 57.3771 187.176 47.3622 177.761 42.4948C168.231 37.5615 156.552 39.1016 148.701 46.3163C146.487 48.3835 144.685 50.7389 143.36 53.3003C138.257 63.1669 140.314 75.5373 148.347 83.3943C149.474 84.3332 149.96 85.8981 149.557 87.3064C149.178 88.6324 148.306 89.6866 147.112 90.2631C147.088 90.2796 147.055 90.2878 147.022 90.3043C140.899 92.6762 135.771 97.3707 132.603 103.506C129.08 110.326 128.414 118.084 130.726 125.356C133.039 132.629 138.068 138.575 144.874 142.1C148.75 144.109 154.75 145.567 159.795 145.732C161.721 145.798 163.507 146.687 164.7 148.195C165.786 149.529 166.889 150.525 167.901 151.052Z" stroke="#003CA0" stroke-width="2" mask="url(#path-1-inside-1_5681_136699)"/>
<path d="M188.674 155.096C185.752 155.096 182.789 154.503 179.958 153.268C179.366 153.004 179.094 152.312 179.358 151.719C179.621 151.126 180.312 150.855 180.905 151.118C190.229 155.203 201.151 151.382 205.768 142.413C208.566 136.977 208.689 130.759 206.097 125.356C205.817 124.772 206.064 124.072 206.648 123.791C207.233 123.511 207.932 123.759 208.212 124.343C211.125 130.421 210.994 137.397 207.85 143.492C204.072 150.83 196.534 155.096 188.674 155.096Z" stroke="#003CA0" stroke-width="2" mask="url(#path-1-inside-1_5681_136699)"/>
<path d="M126.365 152.625C126.183 152.625 126.002 152.584 125.83 152.494C125.254 152.197 125.031 151.489 125.328 150.912C125.385 150.805 131.023 139.629 128.554 126.155C128.439 125.521 128.858 124.903 129.492 124.788C130.126 124.664 130.743 125.093 130.858 125.727C133.484 140.024 127.665 151.505 127.41 151.983C127.204 152.395 126.793 152.625 126.365 152.625Z" stroke="#003CA0" stroke-width="2" mask="url(#path-1-inside-1_5681_136699)"/>
<path d="M97.7241 190C95.8559 190 93.9466 189.218 92.6792 187.216L18.9712 72.3664C16.889 69.0721 16.3459 65.1518 17.4487 61.3139C18.6503 57.1218 21.6789 53.5968 25.7528 51.6367L39.6862 44.9408C43.7682 42.9807 48.41 42.816 52.4262 44.5043C56.1132 46.0445 58.8291 48.927 60.0966 52.6002L104.193 181.69C105.403 185.215 103.263 188.106 100.769 189.308C99.8475 189.745 98.794 190 97.7241 190ZM26.7651 53.745C23.2838 55.4169 20.7078 58.4066 19.6955 61.9562C18.7819 65.1435 19.2264 68.3885 20.9464 71.0981L94.6544 185.948C95.8888 187.9 98.1027 187.974 99.7487 187.183C101.395 186.393 102.72 184.622 101.971 182.439L57.8662 53.358C56.8293 50.3189 54.566 47.947 51.5127 46.6622C48.1137 45.2373 44.1715 45.3774 40.6902 47.0492L26.7651 53.745Z" stroke="#003CA0" stroke-width="2" mask="url(#path-1-inside-1_5681_136699)"/>
<path d="M43.8012 72.5559C43.365 72.5559 42.9452 72.3088 42.7395 71.8888C42.4597 71.304 42.7066 70.604 43.2909 70.3239L61.7343 61.4621C62.3187 61.1821 63.0182 61.4292 63.298 62.0139C63.5779 62.5987 63.331 63.2987 62.7466 63.5787L44.3032 72.4406C44.1468 72.5147 43.974 72.5559 43.8012 72.5559Z" stroke="#003CA0" stroke-width="2" mask="url(#path-1-inside-1_5681_136699)"/>
<path d="M69.5117 126.139C69.0755 126.139 68.6558 125.892 68.45 125.472C68.1702 124.887 68.4171 124.187 69.0014 123.907L81.0749 118.1C81.6592 117.82 82.3587 118.068 82.6386 118.652C82.9184 119.237 82.6715 119.937 82.0871 120.217L70.0137 126.023C69.8574 126.098 69.6845 126.139 69.5117 126.139Z" stroke="#003CA0" stroke-width="2" mask="url(#path-1-inside-1_5681_136699)"/>
<path d="M73.9148 156.99C73.4786 156.99 73.0588 156.743 72.8531 156.323C72.5733 155.739 72.8202 155.039 73.4045 154.759L81.8567 150.698C82.4411 150.418 83.1406 150.665 83.4204 151.25C83.7003 151.835 83.4534 152.535 82.869 152.815L74.4168 156.875C74.2604 156.949 74.0876 156.99 73.9148 156.99Z" stroke="#003CA0" stroke-width="2" mask="url(#path-1-inside-1_5681_136699)"/>
<path d="M29.5633 52.2708C28.9625 52.2708 28.4522 51.8178 28.3946 51.2084L24.3701 7.74746C24.1973 5.86967 24.7652 4.02483 25.9832 2.56707C27.193 1.10108 28.8966 0.203367 30.7813 0.0304124C32.6577 -0.142542 34.5013 0.425736 35.958 1.64465C37.4147 2.85533 38.32 4.56016 38.4928 6.44619L42.114 45.5256C42.1716 46.168 41.7025 46.7445 41.0523 46.8022C40.4104 46.8598 39.8343 46.3904 39.7767 45.7397L36.1555 6.66032C36.0403 5.40023 35.4395 4.26367 34.4601 3.44832C33.4807 2.63296 32.2545 2.25411 30.9953 2.36941C29.7361 2.48471 28.6003 3.08594 27.7856 4.06601C26.9708 5.04608 26.5922 6.27323 26.7074 7.53333L30.7319 50.9942C30.7895 51.6366 30.3204 52.2132 29.6702 52.2708C29.6373 52.2708 29.6044 52.2708 29.5633 52.2708Z" stroke="#003CA0" stroke-width="2" mask="url(#path-1-inside-1_5681_136699)"/>
<path d="M25.4236 54.2639C25.1273 54.2639 24.8393 54.1568 24.6088 53.9345L2.15737 32.2493C0.799421 30.9398 0.034031 29.1691 0.00111097 27.2748C-0.031809 25.3723 0.667741 23.5769 1.98454 22.2262C4.70044 19.4095 9.20225 19.3354 12.0087 22.0532L29.3164 38.7721C29.7855 39.2251 29.7937 39.9663 29.3493 40.4358C28.8966 40.897 28.1559 40.9135 27.6868 40.4687L10.3791 23.7498C8.49447 21.9297 5.48229 21.9791 3.67169 23.8651C2.79931 24.7711 2.3302 25.9735 2.34666 27.2419C2.37135 28.5184 2.88161 29.6962 3.78691 30.5774L26.2301 52.2626C26.6992 52.7155 26.7075 53.4568 26.263 53.918C26.0326 54.1404 25.7281 54.2639 25.4236 54.2639Z" stroke="#003CA0" stroke-width="2" mask="url(#path-1-inside-1_5681_136699)"/>
</svg>
