<svg viewbox="0 0 16 16" width="16" height="16" fill="none" xmlns="http://www.w3.org/2000/svg"><path fill-rule="evenodd" clip-rule="evenodd" d="M4.788 5.33V3.684a3.446 3.446 0 0 1 1.077-2.106C6.455 1.036 7.215.737 8 .737c.785 0 1.544.299 2.135.84.59.543.973 1.291 1.077 2.107V5.33h3.208c.189 0 .375.044.545.129.17.084.32.207.44.36.12.152.205.33.25.522.046.192.05.392.013.585l-1.296 6.731a2.57 2.57 0 0 1-.84 1.453c-.431.37-.97.573-1.526.576H3.994a2.363 2.363 0 0 1-1.53-.573 2.569 2.569 0 0 1-.844-1.456L.332 6.927C.294 6.728.3 6.525.347 6.33c.048-.195.137-.376.26-.53.125-.153.28-.275.455-.356.176-.082.366-.121.558-.115h3.168Zm4.941-3.31c.475.435.79 1.039.883 1.704V5.33H5.388V3.724A2.844 2.844 0 0 1 6.27 2.02 2.556 2.556 0 0 1 8 1.337c.632 0 1.246.24 1.73.683ZM4.788 5.93v1.862h.6V5.931h5.224v1.861h.6V5.931h3.208c.095 0 .19.021.278.065a.682.682 0 0 1 .234.192.793.793 0 0 1 .146.625l-1.295 6.728v.001a1.97 1.97 0 0 1-.642 1.113 1.763 1.763 0 0 1-1.137.43h-8.01a1.763 1.763 0 0 1-1.14-.428 1.969 1.969 0 0 1-.645-1.115L.921 6.813a.795.795 0 0 1 .009-.34.756.756 0 0 1 .145-.294.68.68 0 0 1 .24-.19.622.622 0 0 1 .305-.058h3.168Z" fill="currentColor"/></svg>
