<svg viewbox="0 0 20 20" width="20" height="20" fill="none" xmlns="http://www.w3.org/2000/svg"><path fill-rule="evenodd" clip-rule="evenodd" d="M5.985 6.663V4.605A4.307 4.307 0 0 1 7.33 1.972 3.945 3.945 0 0 1 10 .921c.982 0 1.93.373 2.668 1.051a4.308 4.308 0 0 1 1.347 2.633v2.058h4.01c.236 0 .468.055.681.16.213.106.4.26.55.45.15.191.256.414.313.654.057.24.062.489.016.73l-1.62 8.415a3.212 3.212 0 0 1-1.05 1.816 2.954 2.954 0 0 1-1.907.72H4.992a2.954 2.954 0 0 1-1.912-.717 3.211 3.211 0 0 1-1.055-1.82L.415 8.659c-.047-.246-.041-.5.019-.744s.17-.47.326-.662c.155-.192.349-.344.568-.446.22-.102.458-.151.697-.143h3.96Zm6.176-4.138a3.555 3.555 0 0 1 1.104 2.13v2.008h-6.53V4.654c.116-.83.51-1.585 1.104-2.13A3.195 3.195 0 0 1 10 1.672c.79 0 1.558.3 2.162.854ZM5.986 7.413V9.74h.75V7.413h6.53V9.74h.75V7.413h4.01c.119 0 .238.028.348.082.11.055.21.136.292.24a.948.948 0 0 1 .174.365.993.993 0 0 1 .01.416l-1.62 8.41v.002a2.462 2.462 0 0 1-.803 1.39 2.205 2.205 0 0 1-1.42.54H4.992a2.204 2.204 0 0 1-1.426-.537 2.461 2.461 0 0 1-.806-1.393l-1.61-8.411v-.001a.993.993 0 0 1 .011-.424.945.945 0 0 1 .181-.369.849.849 0 0 1 .302-.237.777.777 0 0 1 .38-.073h3.96Z" fill="currentColor"/></svg>
