<svg viewbox="0 0 39 44" width="39" height="44" fill="none" xmlns="http://www.w3.org/2000/svg"><path d="m35.75 22.52 1.06-1.01c1.77-1.66.85-4.55-1.39-5.02l.5-.47c.57-.54.9-1.27.92-2.05.08-2.61-3.04-4.03-4.95-2.24l-.51.48c-.08-.55-.32-1.09-.71-1.54-.23-.26-1.04-.93-2.09-.98-.76-.03-1.46.25-2.08.83l.14.15-.14-.15-2.44 2.31c-.44-.56-1.05-.98-1.76-1.09-.79-.13-1.66.12-2.46.87L6.52 25.13c-.01.01-.01.01-.02.01h-.02c-.01 0-.01-.01-.02-.01v-.01l-.36-7.26-.2.01.2-.01C5.95 15 2.17 14.01.63 16.52c-.29.48-.38.84-.4 1.41-.01.28 0 .62.01 1.04.01.43.02.95.01 1.61C.23 22.49.16 24.22.1 25.8c-.05 1.58-.1 3.01-.1 4.33.01 2.64.26 4.85 1.17 6.9 2.02 4.53 6.63 7.18 11.93 6.15 1.44.3 2.99.3 4.6-.03h.01c2.12-.38 3.74-1.23 6.13-3.23 2.39-1.99 5.58-5.13 10.85-10.09.75-.7 1.55-1.46 2.41-2.27l-.14-.15.13.14c1.78-1.65.92-4.55-1.34-5.03ZM17.49 42.09l-.04-.2c-.35.07-.69.13-1.03.16 1.24-.68 2.55-1.7 4.31-3.28 2.21-1.98 5.15-4.85 9.61-9.03 1.78-1.67.9-4.57-1.36-5.04l1.16-1.09c1.74-1.63.88-4.54-1.39-5.02l.5-.47c.83-.78 1.1-1.93.81-2.96.01-.01.02-.01.04-.02.08-.06.2-.17.38-.34.37-.34 1.04-.98 2.28-2.14.67-.63 1.73-.6 2.35.07.63.67.6 1.73-.07 2.35l.14.15-.14-.15-.06.06c-.02.01-.05.05-.09.09-.01.01-.02.02-.03.02-.24.23-.85.8-2.28 2.14-.47.44-.06 1.23.57 1.09l-.01-.06v-.01l.02.07a.62.62 0 0 0 .27-.13c.07-.05.14-.13.23-.21a1.67 1.67 0 0 1 2.35.07c.63.67.6 1.73-.08 2.36l.14.15-.14-.14c-1.31 1.26-1.93 1.84-2.22 2.12-.14.14-.21.2-.24.24l-.04.04a2.6 2.6 0 0 0-.32.26c-.26.24-.27.65-.03.9.24.26.65.27.9.03.34-.32.78-.47 1.25-.45 1.46.09 2.09 1.88 1.01 2.9-.84.79-1.62 1.52-2.35 2.21-5.56 5.23-8.68 8.29-10.91 10.16-2.22 1.85-3.54 2.5-5.51 2.9l.04.19-.02.01ZM1.55 17.08l.17.1c.89-1.45 3.02-.84 3.11.74l.36 7.26.2-.01-.2.01c.06 1.11 1.39 1.64 2.2.88l13.31-12.5c.48-.45.93-.58 1.32-.55.39.04.75.26 1.01.59.53.66.62 1.69-.09 2.35-9.86 9.26-8.72 8.18-9.11 8.58l.14.14-.14-.14c-.25.25-.24.66.01.9l.09-.1.05-.05-.14.14c.25.24.65.24.89 0l-.14-.14.14.14 5.68-5.34c1.42-1.33 2.84-2.67 3.9-3.67.53-.5.98-.92 1.29-1.21.15-.14.26-.24.34-.32l.15-.14-.14-.15.14.15c.67-.63 1.73-.6 2.35.07.63.67.6 1.73-.07 2.35l.14.15-.03-.03-.11-.12C19.09 25.88 17.07 27.77 17 27.83c-.29.24-.31.64-.09.91.2.24.55.3.82.13-.01 0-.02.01-.05.01-.02 0-.06 0-.12-.03-.04-.02-.06-.06-.08-.09.06-.01.11-.03.16-.07l.11.16-.11-.16.11.16h.01c.01 0 .01-.01.02-.02l.08-.06v.03c.03-.03.07-.06.13-.12l1.05-.98c1.16-1.09 3.44-3.23 7.93-7.45 1.06-.99 2.84-.24 2.8 1.27-.01.45-.2.86-.52 1.16l.07.07.02.02-.09-.1c-1.85 1.74-6.21 5.83-8.95 8.4-.47.44-.06 1.23.57 1.09h-.01s.03 0 .06-.01c.06-.01.11-.05.15-.08.09-.07.25-.22.61-.55.72-.67 2.23-2.1 5.52-5.19l-.14-.15.14.15c.7-.65 1.81-.59 2.43.16.55.67.48 1.68-.17 2.3-5.71 5.36-8.83 8.43-11.03 10.27-1.1.92-1.96 1.52-2.79 1.94-.83.42-1.64.67-2.64.88-4.61.96-8.79-1.15-10.68-5.39-1.25-2.8-1.13-6.07-.95-10.69.16-4.22.14-6.22.13-7.26 0-.53 0-.79.03-.96.02-.16.07-.24.18-.42l-.16-.08Zm28.31-5.69-.15.13c.61.69.57 1.71-.09 2.33l-.18.17c-.02-.02-.03-.04-.05-.06-1.17-1.25-3.13-1.18-4.16-.13l-.52.49c-.01-.1-.04-.19-.06-.28l2.72-2.58c.37-.35.76-.5 1.15-.49.3.01.57.12.79.25.22.13.37.26.4.3l.15-.13Zm-3.01 8.72.02.02-.02-.02Zm6.66-2.1.04.05-.04-.05Zm-.11 5c.01 0 0 0 0 0Zm.43 1.02.03.03-.03-.03ZM19.97 5.86c.4 0 .72-.32.72-.72V.72c0-.4-.32-.72-.72-.72-.4 0-.72.32-.72.72v4.42c0 .4.32.72.72.72ZM10.61 8.77c.14.14.32.21.51.21s.37-.07.51-.21c.28-.28.28-.73 0-1.01L8.5 4.63a.712.712 0 0 0-1.01 0c-.28.28-.28.73 0 1.01l3.12 3.13ZM30.6 8.52c.18 0 .37-.07.51-.21l2.75-2.66c.28-.28.28-.73 0-1.01a.712.712 0 0 0-1.01 0L30.1 7.3c-.28.28-.28.73 0 1.01.13.14.31.21.5.21Z" fill="currentColor"/></svg>
