<svg viewbox="0 0 20 20" width="20" height="20" fill="none" xmlns="http://www.w3.org/2000/svg"><path d="M12.56 2.644a.375.375 0 0 1 .23.478l-2.37 6.74 4.024 3.044a.375.375 0 0 1-.453.598L9.756 10.3a.376.376 0 0 1-.131-.437l2.458-6.989a.375.375 0 0 1 .478-.23Z" fill="currentColor"/><path fill-rule="evenodd" clip-rule="evenodd" d="M.01 9.995C.01 4.475 4.485 0 10.005 0S20 4.475 20 9.995s-4.475 9.995-9.995 9.995S.01 15.515.01 9.995ZM10.005.75a9.245 9.245 0 1 0 0 18.49 9.245 9.245 0 0 0 0-18.49Z" fill="currentColor"/></svg>
