<svg viewbox="0 0 20 20" width="20" height="20" fill="none" xmlns="http://www.w3.org/2000/svg"><path d="M10.005 1.62c.207 0 .375.168.375.375v2.278a.375.375 0 0 1-.75 0V1.995c0-.207.168-.375.375-.375ZM1.995 9.63a.375.375 0 0 0 0 .75h2.278a.375.375 0 0 0 0-.75H1.995ZM15.352 10.005c0-.207.168-.375.375-.375h2.278a.375.375 0 0 1 0 .75h-2.278a.375.375 0 0 1-.375-.375ZM10.37 15.727a.375.375 0 0 0-.75 0v2.278a.375.375 0 0 0 .75 0v-2.278ZM14.84 4.871c.15.142.157.38.015.53l-4.368 4.64 2.277 3.274a.375.375 0 0 1-.616.428L9.7 10.225a.375.375 0 0 1 .036-.482l4.572-4.856a.375.375 0 0 1 .53-.016Z" fill="currentColor"/><path fill-rule="evenodd" clip-rule="evenodd" d="M.01 10.005C.01 4.485 4.485.01 10.005.01S20 4.485 20 10.005 15.525 20 10.005 20 .01 15.525.01 10.005ZM10.005.76a9.245 9.245 0 1 0 0 18.49 9.245 9.245 0 0 0 0-18.49Z" fill="currentColor"/></svg>
