<svg width="37" height="13" viewBox="0 0 37 13" fill="none" xmlns="http://www.w3.org/2000/svg">
<path d="M27.9927 4.62644C27.9285 4.53808 27.859 4.4515 27.7997 4.35759C27.2776 3.52985 26.592 2.83382 26.0061 2.05713C25.8451 1.84377 25.6753 1.64356 25.6871 1.33306C25.69 1.26224 25.631 1.20267 25.6104 1.13398C25.5691 0.995344 25.5118 0.85953 25.5012 0.711928C25.4796 0.413378 25.6683 0.248514 25.9612 0.308159C26.1081 0.337973 26.2438 0.399828 26.3735 0.463891C27.3288 0.934449 28.2398 1.46784 29.0913 2.07398C30.4881 3.0686 31.8724 4.07937 33.2445 5.10252C33.8446 5.54982 34.4015 6.04694 34.9829 6.51637C35.1487 6.65008 35.3367 6.75949 35.5078 6.88807C35.8117 7.11625 36.0433 7.40403 36.1762 7.76658C36.2101 7.8593 36.2342 7.95891 36.2424 8.06133C36.2694 8.40961 36.1126 8.58851 35.739 8.60538C34.7074 8.65133 33.6683 8.85318 32.6282 9.0559C30.1041 9.5474 27.5814 10.0899 25.062 10.7426C25.032 10.7503 25.0007 10.7555 24.9714 10.7661C24.1728 11.05 23.64 10.7751 23.2153 10.2822C23.0182 10.0527 22.8642 9.79194 22.7976 9.48128C22.7161 9.09931 22.8371 8.87169 23.2519 8.68528C23.5921 8.53213 23.9406 8.40102 24.2892 8.28456C25.5316 7.87024 26.7833 7.60815 28.0356 7.36322C28.5394 7.26469 29.0423 7.17246 29.5669 7.02956C29.4877 7.00471 29.4106 6.97522 29.3296 6.95544C28.1174 6.66069 26.8499 6.52279 25.5733 6.40934C21.3225 6.03237 16.9725 6.4868 12.5492 7.52719C10.272 8.06289 8.02635 8.77301 5.82264 9.77291C4.65605 10.3017 3.56291 10.9774 2.48838 11.7008C2.1569 11.9241 1.81121 12.1348 1.45557 12.3037C1.04515 12.4984 0.785074 12.4117 0.579349 12.0979C0.450982 11.9015 0.470341 11.6813 0.582007 11.4396C0.769383 11.0332 1.06591 10.6891 1.37608 10.354C2.31652 9.3367 3.44352 8.59508 4.64925 7.97043C6.50467 7.00911 8.41745 6.31046 10.3637 5.76066C14.2312 4.66864 18.0694 4.08888 21.87 4.11573C23.8767 4.13003 25.8392 4.30011 27.7483 4.6429C27.813 4.65463 27.8808 4.65876 27.948 4.66416C27.9552 4.66234 27.9648 4.65001 27.9927 4.62644Z" fill="#FFEFBE"/>
</svg>
