<svg viewbox="0 0 42 26" width="42" height="26" fill="none" xmlns="http://www.w3.org/2000/svg"><path d="M38.231 0H3.77C1.69 0 0 1.64 0 3.655v18.69C0 24.36 1.69 26 3.769 26H38.23C40.31 26 42 24.36 42 22.345V3.655C42 1.64 40.31 0 38.231 0Zm3.298 22.345c0 1.764-1.479 3.198-3.298 3.198H3.77c-1.82 0-3.298-1.434-3.298-3.198V3.655C.471 1.891 1.95.457 3.77.457H38.23c1.82 0 3.298 1.434 3.298 3.198v18.69Z" fill="currentColor"/><path d="M26.236 5.077H15.76c-4.504 0-8.17 3.553-8.17 7.924 0 4.369 3.663 7.925 8.17 7.925h10.475c4.504 0 8.171-3.554 8.171-7.925 0-4.37-3.664-7.924-8.171-7.924Zm0 15.39H15.76c-4.245 0-7.7-3.351-7.7-7.468s3.455-7.468 7.7-7.468h10.475c4.245 0 7.7 3.35 7.7 7.468 0 4.12-3.455 7.467-7.7 7.467Z" fill="currentColor"/><path d="m28.068 12.54 3.484 4.017a6.092 6.092 0 0 0-.123-7.28l-3.36 3.262ZM22.962 11.704l2.737-2.767h5.452a6.533 6.533 0 0 0-4.912-2.2H15.764a6.532 6.532 0 0 0-4.913 2.2h7.35c2.599 0 4.56.643 4.76 2.767ZM13.914 11.618l-.93 2.477h3.749c1.107 0 1.442-.444 1.69-1.302.246-.848-.371-1.175-1.128-1.175h-3.381ZM22.826 13.347c-.537 2.418-2.288 3.548-5.573 3.548h-6.546a6.524 6.524 0 0 0 5.057 2.37h10.474a6.519 6.519 0 0 0 5.055-2.37H25.72l-2.894-3.548Z" fill="currentColor"/></svg>
