<svg viewbox="0 0 42 26" width="42" height="26" fill="none" xmlns="http://www.w3.org/2000/svg"><path d="M21.891 13.973c1.804 0 3.227-1.345 3.227-3.068 0-1.714-1.41-3.057-3.227-3.057-1.785 0-3.235 1.353-3.235 3.024 0 1.776 1.387 3.101 3.235 3.101ZM3.53 7.96H1.79v5.884h1.728c.918 0 1.583-.213 2.164-.68a2.917 2.917 0 0 0 1.102-2.26C6.787 9.167 5.45 7.96 3.531 7.96Zm1.385 4.42c-.377.324-.856.469-1.62.469h-.317V8.958h.317c.767 0 1.225.132 1.62.474.406.353.652.899.652 1.465 0 .566-.246 1.13-.652 1.482ZM8.509 7.96H7.33v5.884H8.51V7.96ZM11.014 12.935c-.563 0-1.018-.274-1.29-.787l-.762.716c.544.774 1.198 1.122 2.099 1.122 1.227 0 2.094-.797 2.094-1.934 0-.937-.4-1.36-1.749-1.838-.712-.254-.918-.421-.918-.738 0-.371.371-.65.882-.65.353 0 .646.137.958.474l.615-.781a2.689 2.689 0 0 0-1.78-.655c-1.073 0-1.892.723-1.892 1.683 0 .812.379 1.226 1.491 1.617.464.157.7.264.82.335.235.147.353.36.353.606-.003.477-.393.83-.921.83ZM16.727 13.973c.508 0 .945-.096 1.482-.342v-1.353c-.474.462-.89.645-1.43.645-1.19 0-2.036-.835-2.036-2.028 0-1.128.872-2.021 1.984-2.021.56 0 .99.193 1.482.662v-1.35c-.519-.254-.945-.36-1.456-.36-1.792 0-3.227 1.368-3.227 3.076 0 1.731 1.4 3.072 3.201 3.072ZM28.092 13.991l2.622-6.03h-1.28l-1.638 3.949-1.62-3.95h-1.29l2.572 6.031h.634ZM34.606 12.846h-2.17v-1.588h2.089v-.996h-2.089V8.955h2.17V7.96h-3.355v5.884h3.355v-.998ZM36.574 11.478h.155l1.636 2.366h1.455l-1.908-2.48c.892-.178 1.382-.769 1.382-1.668 0-1.101-.78-1.736-2.146-1.736H35.39v5.884h1.186v-2.366h-.003Zm0-2.591h.364c.738 0 1.136.3 1.136.873 0 .589-.395.906-1.154.906h-.343v-1.78h-.003ZM39.854 8.369l.149.2h.157l-.175-.213c.076-.02.117-.073.117-.145 0-.104-.073-.16-.204-.16h-.172v.52h.128V8.37Zm0-.221h.023c.063 0 .097.023.097.066 0 .046-.034.069-.097.069h-.02v-.135h-.003Z" fill="currentColor"/><path d="M39.925 8.765c.253 0 .46-.203.46-.455a.46.46 0 0 0-.46-.454c-.262 0-.466.2-.466.454a.457.457 0 0 0 .465.455Zm-.003-.825a.373.373 0 0 1 0 .744.371.371 0 1 1 0-.744Z" fill="currentColor"/><path d="M38.231 0H3.77C1.69 0 0 1.64 0 3.655v18.69C0 24.36 1.69 26 3.769 26H38.23C40.31 26 42 24.36 42 22.345V3.655C42 1.64 40.31 0 38.231 0ZM.471 22.345V3.655C.471 1.891 1.95.457 3.77.457H38.23c1.82 0 3.298 1.434 3.298 3.198v10.958c-1.72 1.107-12.44 7.64-30.785 10.93H3.77c-1.82 0-3.298-1.434-3.298-3.198Z" fill="currentColor"/></svg>
