<svg width="24" height="25" viewBox="0 0 24 25" fill="none" xmlns="http://www.w3.org/2000/svg">
<path d="M1 10.2377C1 10.4346 3.27829 10.5763 6.08929 10.5763C8.90029 10.5763 11.1808 10.4247 11.1808 10.2377M1 10.2377C1 7.4499 2.9349 6.67814 2.9349 2.93746V2.31336M1 10.2377V21.9322C1 22.5229 3.27829 22.9954 6.08929 22.9954C6.65061 22.9954 7.18992 22.9757 7.6984 22.9402M11.1808 10.2377V15.5278M11.1808 10.2377C11.1808 7.4499 9.24588 6.66829 9.24588 2.93746V2.31336M9.6267 9.56239C9.37356 7.47746 7.98457 6.51079 7.76224 3.71907M2.54968 17.847V13.622M22.1386 17.8295V18.2368C22.142 18.2967 22.167 18.354 22.2098 18.4002C22.2527 18.4463 22.3111 18.4788 22.3763 18.4928C22.6669 18.5695 22.8166 18.6522 22.8166 18.7389V23.4836C22.8166 23.8774 19.4289 24.2062 15.2531 24.2062C11.0773 24.2062 7.6984 23.8774 7.6984 23.4836V18.7448C7.6984 18.6581 7.85689 18.5755 8.13865 18.4987C8.20364 18.4846 8.26176 18.4521 8.30425 18.4059C8.34673 18.3597 8.37128 18.3025 8.37419 18.2427V17.8418M22.8254 22.3949C22.8254 22.7197 19.4377 22.9855 15.2619 22.9855C11.0861 22.9855 7.6984 22.7217 7.6984 22.3949M22.8019 19.2082C22.8019 19.4051 19.4141 19.5705 15.2384 19.5705C11.0626 19.5705 7.76885 19.4476 7.76885 19.2507M19.4597 17.3568L19.4575 16.1598M20.8289 17.2032V16.3133M1 20.6072C1 20.9813 3.27829 21.2845 6.08929 21.2845C6.65061 21.2845 7.18992 21.2727 7.6984 21.251M9.39777 2.31336H2.78081C2.67222 2.31336 2.56808 2.27478 2.4913 2.2061C2.41452 2.13743 2.37138 2.04429 2.37138 1.94717V1.92354C2.37138 1.77481 2.40421 1.62753 2.46798 1.49017C2.53175 1.3528 2.62522 1.22805 2.74301 1.12306C2.86081 1.01807 3.00061 0.934913 3.15442 0.878353C3.30823 0.821794 3.473 0.792946 3.6393 0.793464H8.54148C8.70741 0.793722 8.87166 0.823208 9.02484 0.880239C9.17803 0.937269 9.31716 1.02073 9.43428 1.12585C9.55141 1.23097 9.64423 1.35569 9.70746 1.4929C9.77069 1.6301 9.80309 1.77711 9.8028 1.92551V1.94717C9.80281 2.04361 9.76027 2.13616 9.68444 2.20472C9.60861 2.27328 9.50559 2.31232 9.39777 2.31336ZM15.2619 15.4904C20.0452 15.4904 21.782 15.6006 22.4138 15.6873C22.5086 15.6947 22.5973 15.7324 22.6635 15.7935C22.7298 15.8546 22.7693 15.935 22.7748 16.02V17.4493C22.7712 17.4975 22.7569 17.5445 22.7327 17.5876C22.7085 17.6308 22.6749 17.6691 22.6338 17.7005C22.5928 17.7319 22.5452 17.7556 22.4938 17.7703C22.4424 17.7849 22.3883 17.7903 22.3345 17.786C22.3345 17.786 21.4914 17.9829 15.2509 17.9829C9.01035 17.9829 8.16947 17.786 8.16947 17.786C8.06272 17.7919 7.95767 17.7599 7.87726 17.6968C7.79684 17.6337 7.74758 17.5448 7.74023 17.4493V16.0141C7.74561 15.9294 7.78478 15.8492 7.85062 15.7882C7.91646 15.7271 8.0046 15.6892 8.09903 15.6814C8.7418 15.6085 10.4808 15.4904 15.2619 15.4904Z" stroke="black" stroke-width="0.4" stroke-linecap="round" stroke-linejoin="round"/>
</svg>
