<svg viewbox="0 0 20 12" width="20" height="12" fill="none" xmlns="http://www.w3.org/2000/svg"><path fill-rule="evenodd" clip-rule="evenodd" d="M9.995 2.363c-2.026 0-3.676 1.621-3.676 3.632 0 2.01 1.65 3.632 3.676 3.632 2.026 0 3.676-1.621 3.676-3.632 0-2.01-1.65-3.632-3.676-3.632ZM7.069 5.995c0-1.587 1.305-2.882 2.926-2.882 1.62 0 2.926 1.295 2.926 2.882 0 1.587-1.305 2.882-2.926 2.882-1.62 0-2.926-1.295-2.926-2.882Z" fill="currentColor"/><path fill-rule="evenodd" clip-rule="evenodd" d="M10.005.005c-2.239 0-4.291.879-5.95 1.933-1.66 1.056-2.95 2.304-3.672 3.083l-.003.004a1.456 1.456 0 0 0 0 1.951l.004.005c.722.773 2.014 2.02 3.675 3.078 1.66 1.055 3.712 1.937 5.946 1.937 2.234 0 4.284-.882 5.94-1.938 1.66-1.056 2.95-2.304 3.67-3.077l.005-.005a1.456 1.456 0 0 0 0-1.951l-.003-.004c-.722-.779-2.01-2.027-3.667-3.083C14.294.884 12.244.005 10.005.005ZM.754 6c0-.173.064-.34.181-.471.696-.75 1.937-1.949 3.523-2.958C6.048 1.56 7.96.755 10.005.755s3.954.805 5.542 1.816c1.584 1.009 2.822 2.207 3.518 2.958a.706.706 0 0 1 0 .942c-.696.746-1.937 1.945-3.522 2.955-1.59 1.013-3.499 1.82-5.538 1.82-2.04 0-3.951-.807-5.543-1.82C2.874 8.416 1.632 7.217.935 6.47a.706.706 0 0 1-.181-.47Z" fill="currentColor"/></svg>
