<svg viewbox="0 0 26 26" width="26" height="26" fill="none" xmlns="http://www.w3.org/2000/svg"><path d="M15.489 8.195a9.971 9.971 0 0 0-.716.004c-.477.02-.835.231-.852.906-.018.502-.018 1.66-.018 1.66h2.029c-.103.81-.188 1.58-.273 2.352h-1.756V19h-2.147v-5.883H10v-2.334h1.79v-.173c0-.154-.002-.31-.004-.466-.004-.315-.008-.633.004-.942l.01-.229c.01-.231.02-.46.058-.678.102-.713.392-1.33.92-1.755.46-.366.989-.52 1.551-.54.358 0 .733.02 1.091.039.128 0 .264.017.396.035.063.008.124.016.184.022V8.2h-.153c-.12 0-.239-.002-.358-.004Z" fill="#292929"/><path fill-rule="evenodd" clip-rule="evenodd" d="M0 13C0 5.82 5.82 0 13 0s13 5.82 13 13-5.82 13-13 13S0 20.18 0 13Zm13 12C6.373 25 1 19.627 1 13S6.373 1 13 1s12 5.373 12 12-5.373 12-12 12Z" fill="#292929"/></svg>
