<svg viewbox="0 0 30 30" width="30" height="30" fill="none" xmlns="http://www.w3.org/2000/svg"><path d="M7.378 17.602a.417.417 0 0 1 .52.276 6.925 6.925 0 0 0 2.264 3.357.417.417 0 0 1-.524.647 7.758 7.758 0 0 1-2.536-3.76.417.417 0 0 1 .276-.52Z" fill="#87B166"/><path fill-rule="evenodd" clip-rule="evenodd" d="M14.826 20.78a14.51 14.51 0 0 0-.093-.13c.25-.003.502-.035.748-.095.933-.223 1.54-.621 1.864-1.227.312-.581.317-1.271.257-1.957-.03-.328-.074-.665-.12-1.01-.152-1.164-.318-2.432.03-3.827.35-1.394 1.092-2.436 1.773-3.392.203-.284.4-.561.58-.838.376-.577.695-1.19.694-1.848-.002-.688-.349-1.325-1.066-1.96-1.387-1.222-3.295-1.011-4.979-.076-1.594.886-3.093 2.465-4.013 4.367a4.917 4.917 0 0 0-.418-.104c-2.036-.414-3.734 1.03-4.712 3-.99 1.992-1.344 4.676-.647 7.115.697 2.438 2.41 4.531 4.295 5.706 1.863 1.16 4.059 1.503 5.558.091.698-.657 1.025-1.304 1.004-1.991-.02-.658-.36-1.259-.755-1.823ZM10.55 9.7a.42.42 0 0 1-.075-.043 3.633 3.633 0 0 0-.558-.156c-1.481-.302-2.887.716-3.8 2.554-.902 1.817-1.228 4.287-.591 6.515.636 2.228 2.214 4.156 3.934 5.227 1.741 1.085 3.462 1.213 4.546.192.594-.56.753-.993.742-1.36-.012-.395-.222-.822-.605-1.37-.156-.222-.338-.46-.534-.715-.724-.944-1.633-2.13-2.076-3.686-.458-1.571-.292-3.07-.16-4.258.034-.307.066-.593.084-.855.046-.667.006-1.137-.188-1.478-.113-.199-.3-.386-.626-.54a.42.42 0 0 1-.093-.027Zm.717-.581c.85-1.74 2.224-3.176 3.652-3.97 1.537-.854 3.017-.913 4.022-.027.611.54.784.969.785 1.337 0 .397-.195.832-.56 1.392-.148.228-.323.473-.511.736-.692.968-1.56 2.181-1.95 3.746-.392 1.566-.196 3.045-.04 4.224.043.32.082.617.106.888.06.665.028 1.14-.16 1.49-.174.324-.528.62-1.324.81l-.003.001c-.41.1-.838.095-1.245-.016-.66-.87-1.343-1.831-1.705-3.101v-.003c-.408-1.395-.268-2.677-.139-3.852.036-.332.072-.656.094-.971.047-.685.03-1.377-.296-1.949a2.04 2.04 0 0 0-.726-.735Z" fill="#87B166"/><path d="M23.389 10.774a.416.416 0 0 0-.595 0l-2.708 2.76a.417.417 0 0 0 .595.583l1.994-2.031v6.847a.417.417 0 1 0 .833 0v-6.85l2.004 2.034a.417.417 0 0 0 .593-.584l-2.716-2.759Z" fill="#87B166"/><path fill-rule="evenodd" clip-rule="evenodd" d="M15 0a15 15 0 1 0 0 30 15 15 0 0 0 0-30Zm0 .833a14.167 14.167 0 1 1 0 28.334A14.167 14.167 0 0 1 15 .833Z" fill="#87B166"/></svg>
