<svg viewbox="0 0 20 20" width="20" height="20" fill="none" xmlns="http://www.w3.org/2000/svg"><path fill-rule="evenodd" clip-rule="evenodd" d="M9.995 8.363a1.732 1.732 0 0 1 1.833 1.612v5.721l-.001.033a1.732 1.732 0 0 1-1.832 1.579 1.721 1.721 0 0 1-1.823-1.612V9.975l.001-.03a1.722 1.722 0 0 1 1.822-1.582Zm0 .376-.03.374a.972.972 0 0 0-1.043.878v5.689a.972.972 0 0 0 1.044.878l.029.374.03-.374a.982.982 0 0 0 1.053-.88V9.993a.982.982 0 0 0-1.054-.879l-.029-.374ZM10.005 2.693a2.026 2.026 0 1 0 0 4.052 2.026 2.026 0 0 0 0-4.052ZM8.73 4.72a1.276 1.276 0 1 1 2.552 0 1.276 1.276 0 0 1-2.552 0Z" fill="currentColor"/><path fill-rule="evenodd" clip-rule="evenodd" d="M.01 10.005C.01 4.485 4.485.01 10.005.01S20 4.485 20 10.005 15.525 20 10.005 20 .01 15.525.01 10.005ZM10.005.76a9.245 9.245 0 1 0 0 18.49 9.245 9.245 0 0 0 0-18.49Z" fill="currentColor"/></svg>
