<svg viewbox="0 0 26 26" width="26" height="26" fill="none" xmlns="http://www.w3.org/2000/svg"><path d="M25.922 7.64c-.063-1.386-.283-2.33-.605-3.157a6.377 6.377 0 0 0-1.498-2.302A6.378 6.378 0 0 0 21.517.683C20.69.36 19.746.14 18.36.078 16.972.014 16.53 0 13 0S9.026.014 7.64.078C6.255.14 5.311.36 4.484.683A6.377 6.377 0 0 0 2.183 2.18 6.377 6.377 0 0 0 .684 4.483C.363 5.31.143 6.254.08 7.64.014 9.026 0 9.47 0 13c0 3.53.014 3.972.078 5.36.063 1.384.283 2.33.605 3.157.332.856.776 1.58 1.498 2.302a6.354 6.354 0 0 0 2.302 1.498c.827.322 1.771.542 3.156.605C9.026 25.986 9.47 26 13 26s3.972-.014 5.36-.078c1.384-.063 2.33-.283 3.157-.605a6.362 6.362 0 0 0 2.302-1.498 6.378 6.378 0 0 0 1.498-2.302c.322-.827.542-1.771.605-3.156C25.986 16.972 26 16.53 26 13c0-3.532-.014-3.974-.078-5.36Zm-2.34 10.612c-.057 1.268-.269 1.956-.447 2.414a4.017 4.017 0 0 1-.974 1.495 4.04 4.04 0 0 1-1.495.974c-.458.178-1.146.39-2.414.447-1.37.064-1.782.076-5.252.076-3.47 0-3.882-.012-5.252-.076-1.268-.057-1.956-.269-2.414-.447a4.04 4.04 0 0 1-1.495-.974 4.04 4.04 0 0 1-.974-1.495c-.178-.458-.39-1.146-.447-2.414-.064-1.37-.076-1.782-.076-5.252 0-3.472.012-3.882.076-5.252.057-1.268.269-1.956.447-2.414.235-.607.519-1.04.974-1.495a4.013 4.013 0 0 1 1.495-.972c.458-.179 1.146-.39 2.414-.448 1.37-.063 1.782-.075 5.252-.075 3.47 0 3.882.012 5.252.075 1.268.058 1.956.27 2.414.448.607.235 1.04.517 1.495.972.455.455.737.888.974 1.495.178.458.39 1.146.447 2.414.064 1.37.076 1.782.076 5.252 0 3.47-.014 3.882-.076 5.252Z" fill="#12100E"/><path d="M13 6.325A6.675 6.675 0 0 0 6.325 13 6.675 6.675 0 0 0 13 19.675 6.675 6.675 0 0 0 19.675 13 6.675 6.675 0 0 0 13 6.325Zm0 11.008a4.334 4.334 0 0 1 0-8.666 4.333 4.333 0 0 1 0 8.666ZM19.939 4.501a1.56 1.56 0 1 0 0 3.121 1.56 1.56 0 0 0 0-3.12Z" fill="#12100E"/></svg>
