<svg viewbox="0 0 26 26" width="26" height="26" fill="none" xmlns="http://www.w3.org/2000/svg"><path d="M17.216 9.47a.708.708 0 1 1-1.415 0 .708.708 0 0 1 1.415 0Z" fill="currentColor"/><path fill-rule="evenodd" clip-rule="evenodd" d="M13 9.5a3.5 3.5 0 1 0 0 7 3.5 3.5 0 0 0 0-7ZM10.5 13a2.5 2.5 0 1 1 5 0 2.5 2.5 0 0 1-5 0Z" fill="currentColor"/><path fill-rule="evenodd" clip-rule="evenodd" d="M10.143 6A4.143 4.143 0 0 0 6 10.143v5.714A4.143 4.143 0 0 0 10.143 20h5.714A4.143 4.143 0 0 0 20 15.857v-5.714A4.143 4.143 0 0 0 15.857 6h-5.714Zm5.714 1h-5.714A3.143 3.143 0 0 0 7 10.143v5.714A3.143 3.143 0 0 0 10.143 19h5.714A3.143 3.143 0 0 0 19 15.857v-5.714A3.143 3.143 0 0 0 15.857 7Z" fill="currentColor"/><path fill-rule="evenodd" clip-rule="evenodd" d="M0 13C0 5.82 5.82 0 13 0s13 5.82 13 13-5.82 13-13 13S0 20.18 0 13Zm13 12C6.373 25 1 19.627 1 13S6.373 1 13 1s12 5.373 12 12-5.373 12-12 12Z" fill="currentColor"/></svg>
