<svg viewbox="0 0 42 26" width="42" height="26" fill="none" xmlns="http://www.w3.org/2000/svg"><path d="M6.763 9.42H5.174v6.856h1.59V9.42ZM9.229 9.42h1.586a5.383 5.383 0 0 1-1.657 3.891l2.24 2.965H9.396L6.96 13.055l.629-.457a3.901 3.901 0 0 0 1.64-3.178ZM13.4 9.422h-1.53v6.851h1.53v-6.85Z" fill="currentColor"/><path fill-rule="evenodd" clip-rule="evenodd" d="M33.468 11.836c-1.178-.777-2.783-.482-3.584.658-.8 1.142-.497 2.698.681 3.475a2.648 2.648 0 0 0 2.905 0v.302h1.463v-4.737H33.47v.302h-.002Zm-1.33 3.287c-.694-.035-1.228-.611-1.19-1.284.036-.673.63-1.19 1.324-1.155.667.036 1.193.571 1.19 1.218-.018.693-.612 1.24-1.324 1.221Z" fill="currentColor"/><path d="M25.33 12.07c.359-.45.924-.696 1.508-.663 1.18 0 2.083.749 2.078 1.853v3.013h-1.46v-2.5c0-.69-.37-1.064-1.013-1.064-.05-.005-.1-.002-.15 0-.565.043-.991.523-.947 1.074v2.493h-1.474v-4.74h1.458v.534Z" fill="currentColor"/><path fill-rule="evenodd" clip-rule="evenodd" d="M18.03 11.836c-1.177-.777-2.782-.482-3.582.658-.801 1.142-.498 2.698.678 3.475a2.648 2.648 0 0 0 2.905 0v.302h1.463v-4.737H18.03v.302Zm-1.332 3.287c-.693-.035-1.227-.611-1.19-1.284.036-.673.628-1.19 1.324-1.155.67.036 1.194.571 1.194 1.218-.019.693-.613 1.24-1.328 1.221Z" fill="currentColor"/><path d="M21.758 11.534v.617a1.853 1.853 0 0 1 1.437-.617v1.378h-.019c-.578 0-1.413.401-1.413 1.148v2.213h-1.502v-4.739h1.497ZM36.485 14.593a.905.905 0 0 0-.918.89c0 .493.41.892.918.892a.905.905 0 0 0 .919-.891.905.905 0 0 0-.919-.891Z" fill="currentColor"/><path fill-rule="evenodd" clip-rule="evenodd" d="M3.769 0H38.23C40.31 0 42 1.64 42 3.655v18.69C42 24.36 40.31 26 38.231 26H3.77C1.69 26 0 24.36 0 22.345V3.655C0 1.64 1.69 0 3.769 0ZM38.23 25.543c1.82 0 3.298-1.434 3.298-3.198V3.655c0-1.764-1.479-3.198-3.298-3.198H3.77C1.949.457.47 1.89.47 3.655v18.69c0 1.764 1.479 3.198 3.298 3.198H38.23Z" fill="currentColor"/></svg>
