<svg viewbox="0 0 18 20" width="18" height="20" fill="none" xmlns="http://www.w3.org/2000/svg"><path fill-rule="evenodd" clip-rule="evenodd" d="M2.91 6.501V8.71H1.79c-.465 0-.803.393-.803.83v9.62c0 .437.338.831.803.831H16.22c.465 0 .804-.394.804-.83V9.54c0-.438-.339-.831-.804-.831h-1.044V6.5c0-1.716-.64-3.365-1.788-4.585C12.239.696 10.677.005 9.043.005c-1.634 0-3.196.69-4.344 1.91-1.147 1.22-1.788 2.87-1.788 4.586ZM9.044.755c-1.42 0-2.787.6-3.798 1.675C4.233 3.506 3.661 4.97 3.661 6.5V8.71h2.278V6.5a3.361 3.361 0 0 1 .963-2.208 3.023 3.023 0 0 1 2.14-.902c.8 0 1.566.326 2.141.902a3.361 3.361 0 0 1 .963 2.208V8.71h2.279V6.5c0-1.531-.572-2.995-1.584-4.071C11.829 1.354 10.463.755 9.043.755Zm2.58 8.704a.374.374 0 0 0 .296 0h2.733a.374.374 0 0 0 .296 0h1.271c.007 0 .018.002.03.015a.095.095 0 0 1 .024.065v9.62c0 .03-.011.052-.024.066-.012.013-.023.015-.03.015H1.79c-.007 0-.017-.002-.03-.015a.094.094 0 0 1-.023-.066V9.54c0-.03.011-.052.024-.065.012-.013.022-.015.03-.015h1.347a.374.374 0 0 0 .296 0h2.732a.374.374 0 0 0 .296 0h5.161Zm-.227-.75V6.512a2.61 2.61 0 0 0-.744-1.69 2.273 2.273 0 0 0-1.61-.68c-.593 0-1.17.24-1.609.68a2.61 2.61 0 0 0-.744 1.69v2.197h4.707Z" fill="currentColor"/></svg>
