<svg viewbox="0 0 124 25" width="124" height="25" fill="none" xmlns="http://www.w3.org/2000/svg"><path d="M111.011 10.92c-2.259-.52-2.569-1.358-2.569-2.08 0-1.185 1.327-1.734 2.541-1.734s2.062.347 2.711 1.07a.697.697 0 0 0 .988.057.736.736 0 0 0 .057-1.011c-.904-1.04-2.146-1.56-3.756-1.56-2.287 0-3.953 1.329-3.953 3.177 0 2.629 2.767 3.264 3.671 3.495 2.202.52 3.417 1.098 3.417 2.774 0 1.877-2.034 2.397-3.078 2.397-1.469 0-2.852-.78-3.304-1.849a.678.678 0 0 0-.932-.375.705.705 0 0 0-.367.953c.678 1.617 2.57 2.744 4.603 2.744 2.23 0 4.489-1.329 4.489-3.842 0-3.177-2.936-3.841-4.518-4.217ZM104.316 17.505c-.565-.116-.847-.462-.847-1.127V9.33c0-2.137-1.807-3.668-4.292-3.668-1.807 0-3.05.462-4.094 1.56-.283.289-.283.75 0 1.01.282.29.734.29.988 0 .79-.808 1.666-1.126 3.106-1.126 1.666 0 2.88.925 2.908 2.224 0 1.214-.79 1.33-3.19 1.618-1.469.173-4.942.578-4.942 4.16 0 2.512 2.23 3.841 4.433 3.841.735 0 1.836-.144 2.683-.549.339-.173.508-.606.339-.953-.17-.346-.593-.52-.932-.346-.621.317-1.497.404-2.061.404-1.045 0-3.022-.491-3.022-2.397 0-1.676.989-2.427 3.7-2.745 1.016-.115 2.174-.26 3.049-.808v4.794c0 1.358.762 2.34 2.005 2.571h.113c.339 0 .621-.26.706-.606-.029-.347-.283-.722-.65-.81ZM79.441 1.447c.396-.058.65-.433.565-.837a.673.673 0 0 0-.819-.578c-1.976.346-3.162 1.877-3.162 4.073v1.588h-1.186a.707.707 0 0 0-.706.722c0 .405.31.722.706.722h1.157v11.121c0 .405.311.722.706.722a.707.707 0 0 0 .706-.722V7.108h1.836a.707.707 0 0 0 .706-.722.707.707 0 0 0-.706-.722h-1.836V4.076c.029-1.878 1.102-2.484 2.033-2.629ZM122.448 17.508c-.903-.174-2.004-.751-2.004-2.658V7.11h1.496a.707.707 0 0 0 .706-.723.707.707 0 0 0-.706-.722h-1.496V.725a.707.707 0 0 0-.706-.722.707.707 0 0 0-.706.723v4.939h-1.158a.707.707 0 0 0-.706.722c0 .404.311.722.706.722h1.158v7.77c0 2.195 1.186 3.697 3.162 4.073h.113c.339 0 .621-.26.706-.607a.76.76 0 0 0-.565-.837ZM86.668 5.662c-1.468 0-2.796.549-3.727 1.531-1.045 1.098-1.582 2.715-1.582 4.68v.664c0 4.737 2.852 6.412 5.28 6.412 2.91 0 4.208-1.79 4.773-2.57.226-.318.17-.78-.141-1.012a.703.703 0 0 0-.989.145c-.734 1.04-1.694 1.993-3.614 1.993-2.852 0-3.869-2.513-3.897-4.91h8.104a.707.707 0 0 0 .706-.723v-.808c-.17-3.38-2.005-5.402-4.913-5.402Zm3.501 5.488H82.8c.226-2.542 1.638-4.044 3.84-4.044 2.74 0 3.418 2.167 3.53 3.986v.058ZM4.64 10.92c-2.259-.52-2.57-1.358-2.57-2.08 0-1.185 1.328-1.734 2.542-1.734 1.214 0 2.061.347 2.71 1.07a.698.698 0 0 0 .99.057.737.737 0 0 0 .056-1.011c-.904-1.04-2.146-1.56-3.756-1.56C2.325 5.662.66 6.991.66 8.84c0 2.629 2.767 3.264 3.67 3.495 2.203.52 3.417 1.098 3.417 2.774 0 1.877-2.033 2.397-3.077 2.397-1.469 0-2.852-.78-3.304-1.849-.141-.375-.565-.549-.932-.375a.705.705 0 0 0-.367.953c.678 1.617 2.57 2.744 4.603 2.744 2.23 0 4.49-1.329 4.49-3.842 0-3.177-2.937-3.841-4.519-4.217ZM12.573 5.662a.707.707 0 0 0-.706.722v11.843c0 .404.31.722.706.722a.707.707 0 0 0 .706-.722V6.384a.707.707 0 0 0-.706-.722ZM12.544.002a.747.747 0 0 0-.706.808l.084 1.416a.707.707 0 0 0 .65.664.658.658 0 0 0 .706-.664L13.363.81V.724c-.057-.405-.424-.751-.82-.722ZM51.654 17.508c-.565-.116-.848-.462-.848-1.127V.726A.707.707 0 0 0 50.1.003a.707.707 0 0 0-.706.723V16.38c0 1.358.763 2.34 2.005 2.57h.113c.34 0 .622-.259.706-.606a.76.76 0 0 0-.565-.837ZM59.531 5.662c-1.468 0-2.795.549-3.727 1.531-1.045 1.098-1.581 2.715-1.581 4.68v.664c0 4.737 2.852 6.412 5.28 6.412 2.908 0 4.207-1.79 4.772-2.57.226-.318.17-.78-.141-1.012a.703.703 0 0 0-.988.145c-.735 1.04-1.695 1.993-3.615 1.993-2.852 0-3.868-2.513-3.896-4.91h8.104a.707.707 0 0 0 .706-.723v-.808c-.142-3.38-1.977-5.402-4.914-5.402Zm3.53 5.488h-7.37c.226-2.542 1.638-4.044 3.868-4.044 2.74 0 3.417 2.167 3.53 3.986v.058h-.028ZM28.817 5.662c-1.666 0-2.994 1.011-3.728 2.484-.65-1.617-1.976-2.484-3.84-2.484-1.355 0-2.485.664-3.247 1.704v-.982a.707.707 0 0 0-.706-.722.707.707 0 0 0-.706.722v11.843c0 .404.31.722.706.722a.707.707 0 0 0 .706-.722v-7.539c0-2.08 1.468-3.582 3.247-3.582.706 0 2.909 0 2.909 3.784v7.337c0 .404.31.722.705.722a.707.707 0 0 0 .706-.722v-7.568c0-2.08 1.469-3.582 3.248-3.582.706 0 2.908 0 2.908 3.784v7.337c0 .405.31.722.706.722a.707.707 0 0 0 .706-.722V10.89c-.028-3.321-1.581-5.228-4.32-5.228ZM41.488 5.662c-1.61 0-2.852.664-3.642 1.82V6.384a.707.707 0 0 0-.706-.722.707.707 0 0 0-.706.722v17.447c0 .404.31.722.706.722a.707.707 0 0 0 .706-.722V10.919c.14-2.455 1.524-3.813 3.642-3.813 2.74 0 3.332 2.6 3.332 4.766v.665c0 1.617-.339 2.946-.96 3.784-.565.78-1.355 1.184-2.344 1.184-.706 0-1.13-.145-1.75-.404-.367-.174-.763 0-.932.346-.17.376 0 .78.339.953.734.347 1.355.55 2.315.55 1.44 0 2.654-.607 3.473-1.763.82-1.126 1.243-2.744 1.243-4.65v-.665c.028-5.603-3.276-6.21-4.716-6.21Z" fill="currentColor"/></svg>
