<svg viewbox="0 0 30 30" width="30" height="30" fill="none" xmlns="http://www.w3.org/2000/svg"><mask id="a" fill="#fff"><path d="M23.508 11.067a.417.417 0 1 0-.833 0v6.847l-1.994-2.03a.417.417 0 0 0-.595.583l2.708 2.758a.415.415 0 0 0 .29.125h.007a.416.416 0 0 0 .297-.124l2.717-2.759a.417.417 0 0 0-.594-.584l-2.003 2.034v-6.85Z"/><path fill-rule="evenodd" clip-rule="evenodd" d="M13.102 3.426a.417.417 0 0 0-.655.001 6.708 6.708 0 0 0-1.413 3.85 6.717 6.717 0 0 0 1.412 3.82.417.417 0 0 0 .657.002 6.691 6.691 0 0 0 1.421-3.86 6.683 6.683 0 0 0-1.421-3.813Zm-1.235 3.833c.051-1.018.366-2.001.91-2.855a5.85 5.85 0 0 1 .914 2.855 5.859 5.859 0 0 1-.915 2.862 5.884 5.884 0 0 1-.909-2.862ZM18.861 9.147c.09.09.135.218.12.345a6.708 6.708 0 0 1-1.698 3.705l-.308-.28.28.309a6.766 6.766 0 0 1-3.695 1.696.417.417 0 0 1-.465-.464 6.707 6.707 0 0 1 1.724-3.733 6.692 6.692 0 0 1 3.697-1.697.417.417 0 0 1 .345.119Zm-2.18 3.474a5.876 5.876 0 0 0 1.376-2.67 5.859 5.859 0 0 0-2.662 1.377 5.875 5.875 0 0 0-1.377 2.668 5.934 5.934 0 0 0 2.662-1.375ZM7.034 9.028a.417.417 0 0 0-.464.464 6.708 6.708 0 0 0 1.726 3.734 6.775 6.775 0 0 0 3.702 1.696.417.417 0 0 0 .466-.464 6.708 6.708 0 0 0-1.697-3.705l-.309.28.28-.308a6.708 6.708 0 0 0-3.704-1.697Zm.459.923c.991.219 1.912.692 2.67 1.377a5.875 5.875 0 0 1 1.377 2.67 5.943 5.943 0 0 1-2.67-1.377 5.875 5.875 0 0 1-1.377-2.67ZM18.861 14.239c.09.09.135.217.12.345a6.709 6.709 0 0 1-1.698 3.705l-.308-.28.28.307a6.692 6.692 0 0 1-3.696 1.698.417.417 0 0 1-.464-.464 6.708 6.708 0 0 1 1.724-3.733 6.692 6.692 0 0 1 3.697-1.697.417.417 0 0 1 .345.119Zm-2.181 3.474a5.874 5.874 0 0 0 1.377-2.67 5.858 5.858 0 0 0-2.662 1.377 5.875 5.875 0 0 0-1.377 2.67 5.859 5.859 0 0 0 2.662-1.377ZM7.034 14.12a.417.417 0 0 0-.464.464 6.708 6.708 0 0 0 1.725 3.733A6.708 6.708 0 0 0 12 20.014a.416.416 0 0 0 .464-.464 6.709 6.709 0 0 0-1.697-3.705l-.309.28.28-.308a6.709 6.709 0 0 0-3.704-1.697Zm.459.923c.991.219 1.912.692 2.67 1.377a5.875 5.875 0 0 1 1.378 2.67 5.876 5.876 0 0 1-2.671-1.377 5.875 5.875 0 0 1-1.377-2.67ZM18.86 19.33c.092.09.136.218.12.345a6.709 6.709 0 0 1-1.697 3.705l-.308-.28.28.308a6.692 6.692 0 0 1-3.696 1.697.417.417 0 0 1-.464-.463 6.675 6.675 0 0 1 1.724-3.725 6.734 6.734 0 0 1 3.696-1.705.417.417 0 0 1 .346.118Zm-2.18 3.475a5.874 5.874 0 0 0 1.377-2.668 5.9 5.9 0 0 0-2.662 1.383 5.842 5.842 0 0 0-1.377 2.662 5.858 5.858 0 0 0 2.662-1.377ZM7.035 19.212a.416.416 0 0 0-.465.463 6.708 6.708 0 0 0 1.725 3.733A6.709 6.709 0 0 0 12 25.105a.417.417 0 0 0 .464-.463 6.675 6.675 0 0 0-1.698-3.698l-.308.281.28-.308a6.75 6.75 0 0 0-3.703-1.705Zm.458.925a5.917 5.917 0 0 1 2.67 1.383 5.842 5.842 0 0 1 1.378 2.663 5.875 5.875 0 0 1-2.671-1.378 5.875 5.875 0 0 1-1.377-2.668Z"/><path fill-rule="evenodd" clip-rule="evenodd" d="M15 0a15 15 0 1 0 0 30 15 15 0 0 0 0-30Zm0 .833a14.167 14.167 0 1 1 0 28.334A14.167 14.167 0 0 1 15 .833Z"/></mask><path d="M23.508 11.067a.417.417 0 1 0-.833 0v6.847l-1.994-2.03a.417.417 0 0 0-.595.583l2.708 2.758a.415.415 0 0 0 .29.125h.007a.416.416 0 0 0 .297-.124l2.717-2.759a.417.417 0 0 0-.594-.584l-2.003 2.034v-6.85Z" fill="#87B166"/><path fill-rule="evenodd" clip-rule="evenodd" d="M13.102 3.426a.417.417 0 0 0-.655.001 6.708 6.708 0 0 0-1.413 3.85 6.717 6.717 0 0 0 1.412 3.82.417.417 0 0 0 .657.002 6.691 6.691 0 0 0 1.421-3.86 6.683 6.683 0 0 0-1.421-3.813Zm-1.235 3.833c.051-1.018.366-2.001.91-2.855a5.85 5.85 0 0 1 .914 2.855 5.859 5.859 0 0 1-.915 2.862 5.884 5.884 0 0 1-.909-2.862ZM18.861 9.147c.09.09.135.218.12.345a6.708 6.708 0 0 1-1.698 3.705l-.308-.28.28.309a6.766 6.766 0 0 1-3.695 1.696.417.417 0 0 1-.465-.464 6.707 6.707 0 0 1 1.724-3.733 6.692 6.692 0 0 1 3.697-1.697.417.417 0 0 1 .345.119Zm-2.18 3.474a5.876 5.876 0 0 0 1.376-2.67 5.859 5.859 0 0 0-2.662 1.377 5.875 5.875 0 0 0-1.377 2.668 5.934 5.934 0 0 0 2.662-1.375ZM7.034 9.028a.417.417 0 0 0-.464.464 6.708 6.708 0 0 0 1.726 3.734 6.775 6.775 0 0 0 3.702 1.696.417.417 0 0 0 .466-.464 6.708 6.708 0 0 0-1.697-3.705l-.309.28.28-.308a6.708 6.708 0 0 0-3.704-1.697Zm.459.923c.991.219 1.912.692 2.67 1.377a5.875 5.875 0 0 1 1.377 2.67 5.943 5.943 0 0 1-2.67-1.377 5.875 5.875 0 0 1-1.377-2.67ZM18.861 14.239c.09.09.135.217.12.345a6.709 6.709 0 0 1-1.698 3.705l-.308-.28.28.307a6.692 6.692 0 0 1-3.696 1.698.417.417 0 0 1-.464-.464 6.708 6.708 0 0 1 1.724-3.733 6.692 6.692 0 0 1 3.697-1.697.417.417 0 0 1 .345.119Zm-2.181 3.474a5.874 5.874 0 0 0 1.377-2.67 5.858 5.858 0 0 0-2.662 1.377 5.875 5.875 0 0 0-1.377 2.67 5.859 5.859 0 0 0 2.662-1.377ZM7.034 14.12a.417.417 0 0 0-.464.464 6.708 6.708 0 0 0 1.725 3.733A6.708 6.708 0 0 0 12 20.014a.416.416 0 0 0 .464-.464 6.709 6.709 0 0 0-1.697-3.705l-.309.28.28-.308a6.709 6.709 0 0 0-3.704-1.697Zm.459.923c.991.219 1.912.692 2.67 1.377a5.875 5.875 0 0 1 1.378 2.67 5.876 5.876 0 0 1-2.671-1.377 5.875 5.875 0 0 1-1.377-2.67ZM18.86 19.33c.092.09.136.218.12.345a6.709 6.709 0 0 1-1.697 3.705l-.308-.28.28.308a6.692 6.692 0 0 1-3.696 1.697.417.417 0 0 1-.464-.463 6.675 6.675 0 0 1 1.724-3.725 6.734 6.734 0 0 1 3.696-1.705.417.417 0 0 1 .346.118Zm-2.18 3.475a5.874 5.874 0 0 0 1.377-2.668 5.9 5.9 0 0 0-2.662 1.383 5.842 5.842 0 0 0-1.377 2.662 5.858 5.858 0 0 0 2.662-1.377ZM7.035 19.212a.416.416 0 0 0-.465.463 6.708 6.708 0 0 0 1.725 3.733A6.709 6.709 0 0 0 12 25.105a.417.417 0 0 0 .464-.463 6.675 6.675 0 0 0-1.698-3.698l-.308.281.28-.308a6.75 6.75 0 0 0-3.703-1.705Zm.458.925a5.917 5.917 0 0 1 2.67 1.383 5.842 5.842 0 0 1 1.378 2.663 5.875 5.875 0 0 1-2.671-1.378 5.875 5.875 0 0 1-1.377-2.668Z" fill="#87B166"/><path fill-rule="evenodd" clip-rule="evenodd" d="M15 0a15 15 0 1 0 0 30 15 15 0 0 0 0-30Zm0 .833a14.167 14.167 0 1 1 0 28.334A14.167 14.167 0 0 1 15 .833Z" fill="#87B166"/><path d="M23.508 11.067a.417.417 0 1 0-.833 0v6.847l-1.994-2.03a.417.417 0 0 0-.595.583l2.708 2.758a.415.415 0 0 0 .29.125h.007a.416.416 0 0 0 .297-.124l2.717-2.759a.417.417 0 0 0-.594-.584l-2.003 2.034v-6.85Z" stroke="#87B166" stroke-width="2" stroke-linecap="round" stroke-linejoin="round" mask="url(#a)"/><path clip-rule="evenodd" d="M13.102 3.426a.417.417 0 0 0-.655.001 6.708 6.708 0 0 0-1.413 3.85 6.717 6.717 0 0 0 1.412 3.82.417.417 0 0 0 .657.002 6.691 6.691 0 0 0 1.421-3.86 6.683 6.683 0 0 0-1.421-3.813Zm-1.235 3.833c.051-1.018.366-2.001.91-2.855a5.85 5.85 0 0 1 .914 2.855 5.859 5.859 0 0 1-.915 2.862 5.884 5.884 0 0 1-.909-2.862ZM18.861 9.147c.09.09.135.218.12.345a6.708 6.708 0 0 1-1.698 3.705l-.308-.28.28.309a6.766 6.766 0 0 1-3.695 1.696.417.417 0 0 1-.465-.464 6.707 6.707 0 0 1 1.724-3.733 6.692 6.692 0 0 1 3.697-1.697.417.417 0 0 1 .345.119Zm-2.18 3.474a5.876 5.876 0 0 0 1.376-2.67 5.859 5.859 0 0 0-2.662 1.377 5.875 5.875 0 0 0-1.377 2.668 5.934 5.934 0 0 0 2.662-1.375ZM7.034 9.028a.417.417 0 0 0-.464.464 6.708 6.708 0 0 0 1.726 3.734 6.775 6.775 0 0 0 3.702 1.696.417.417 0 0 0 .466-.464 6.708 6.708 0 0 0-1.697-3.705l-.309.28.28-.308a6.708 6.708 0 0 0-3.704-1.697Zm.459.923c.991.219 1.912.692 2.67 1.377a5.875 5.875 0 0 1 1.377 2.67 5.943 5.943 0 0 1-2.67-1.377 5.875 5.875 0 0 1-1.377-2.67ZM18.861 14.239c.09.09.135.217.12.345a6.709 6.709 0 0 1-1.698 3.705l-.308-.28.28.307a6.692 6.692 0 0 1-3.696 1.698.417.417 0 0 1-.464-.464 6.708 6.708 0 0 1 1.724-3.733 6.692 6.692 0 0 1 3.697-1.697.417.417 0 0 1 .345.119Zm-2.181 3.474a5.874 5.874 0 0 0 1.377-2.67 5.858 5.858 0 0 0-2.662 1.377 5.875 5.875 0 0 0-1.377 2.67 5.859 5.859 0 0 0 2.662-1.377ZM7.034 14.12a.417.417 0 0 0-.464.464 6.708 6.708 0 0 0 1.725 3.733A6.708 6.708 0 0 0 12 20.014a.416.416 0 0 0 .464-.464 6.709 6.709 0 0 0-1.697-3.705l-.309.28.28-.308a6.709 6.709 0 0 0-3.704-1.697Zm.459.923c.991.219 1.912.692 2.67 1.377a5.875 5.875 0 0 1 1.378 2.67 5.876 5.876 0 0 1-2.671-1.377 5.875 5.875 0 0 1-1.377-2.67ZM18.86 19.33c.092.09.136.218.12.345a6.709 6.709 0 0 1-1.697 3.705l-.308-.28.28.308a6.692 6.692 0 0 1-3.696 1.697.417.417 0 0 1-.464-.463 6.675 6.675 0 0 1 1.724-3.725 6.734 6.734 0 0 1 3.696-1.705.417.417 0 0 1 .346.118Zm-2.18 3.475a5.874 5.874 0 0 0 1.377-2.668 5.9 5.9 0 0 0-2.662 1.383 5.842 5.842 0 0 0-1.377 2.662 5.858 5.858 0 0 0 2.662-1.377ZM7.035 19.212a.416.416 0 0 0-.465.463 6.708 6.708 0 0 0 1.725 3.733A6.709 6.709 0 0 0 12 25.105a.417.417 0 0 0 .464-.463 6.675 6.675 0 0 0-1.698-3.698l-.308.281.28-.308a6.75 6.75 0 0 0-3.703-1.705Zm.458.925a5.917 5.917 0 0 1 2.67 1.383 5.842 5.842 0 0 1 1.378 2.663 5.875 5.875 0 0 1-2.671-1.378 5.875 5.875 0 0 1-1.377-2.668Z" stroke="#87B166" stroke-width="2" stroke-linecap="round" stroke-linejoin="round" mask="url(#a)"/><path clip-rule="evenodd" d="M15 0a15 15 0 1 0 0 30 15 15 0 0 0 0-30Zm0 .833a14.167 14.167 0 1 1 0 28.334A14.167 14.167 0 0 1 15 .833Z" stroke="#87B166" stroke-width="2" stroke-linecap="round" stroke-linejoin="round" mask="url(#a)"/></svg>
