<svg viewbox="0 0 42 26" width="42" height="26" fill="none" xmlns="http://www.w3.org/2000/svg"><path fill-rule="evenodd" clip-rule="evenodd" d="M24.195 13.423c0 .396-.241.771-.642.931L19.79 15.86c-.13.051-.264.077-.397.077-.409 0-.796-.234-.96-.622l-3.592-8.41a1.002 1.002 0 0 1 .563-1.317l3.761-1.51c.13-.051.264-.077.398-.077.408 0 .796.234.96.622l.833 1.947c1.02-.386 2.044-.574 2.92-.457l.754 1.767c.453.107.87.259 1.228.462v3.592c-.809-.424-1.796-.64-2.895-.66l.754 1.764a.999.999 0 0 1 .079.386Zm-5.246 1.69a.482.482 0 0 0 .628.251l3.762-1.515a.471.471 0 0 0 .295-.431c0-.059-.01-.12-.036-.178l-.84-1.965c-.992.048-1.895.264-2.615.652 0 .003-.003.003-.003.003L18.625 8.38c.57-.668 1.3-1.185 2.212-1.597l-.833-1.949a.48.48 0 0 0-.625-.251l-3.762 1.51a.471.471 0 0 0-.295.431c0 .059.01.12.036.178l3.591 8.412Z" fill="currentColor"/><path d="M12.875 18.131c-.014-.04-.047-.07-.09-.07h-.473c-.042 0-.076.035-.092.07l-.727 1.823c-.013.04-.05.035-.066 0l-.733-1.823c-.018-.035-.05-.07-.091-.07h-.474c-.042 0-.073.03-.089.07l-.942 2.889c-.024.063.013.099.07.099h.53c.041 0 .072-.018.088-.064l.613-1.875c.01-.036.047-.036.06 0l.727 1.863c.019.05.047.076.097.076h.33c.047 0 .079-.023.102-.076l.704-1.863c.013-.036.055-.036.066 0l.599 1.875c.01.036.037.064.084.064h.563c.054 0 .088-.04.07-.1l-.926-2.888Z" fill="currentColor"/><path fill-rule="evenodd" clip-rule="evenodd" d="M13.98 19.99c0-.67.528-1.189 1.242-1.189.72 0 1.243.518 1.243 1.188 0 .665-.523 1.188-1.243 1.188-.714 0-1.243-.523-1.243-1.188Zm.63 0c0 .345.277.629.612.629a.621.621 0 0 0 .613-.63.62.62 0 0 0-.613-.63.622.622 0 0 0-.612.63ZM18.23 18.801c-.265 0-.469.1-.608.198-.065.046-.107.028-.107-.03v-.823a.086.086 0 0 0-.084-.086h-.46a.09.09 0 0 0-.09.086v2.889a.09.09 0 0 0 .09.086h.437c.047 0 .083-.04.083-.086v-.058c0-.064.042-.076.09-.041.172.135.355.244.63.244.644 0 1.141-.523 1.141-1.188 0-.668-.486-1.19-1.122-1.19Zm-.126 1.815a.611.611 0 0 1-.607-.624c0-.356.274-.63.607-.63a.62.62 0 0 1 .618.63.62.62 0 0 1-.618.624Z" fill="currentColor"/><path d="M19.852 18.86h.461c.045 0 .086.04.089.086v2.089a.09.09 0 0 1-.089.086h-.46a.086.086 0 0 1-.084-.086v-2.089c0-.046.036-.086.083-.086ZM20.088 17.928a.353.353 0 0 0-.354.343.353.353 0 0 0 .707 0 .353.353 0 0 0-.353-.343ZM21.548 20.367c0 .145.066.24.228.24a.09.09 0 0 1 .089.085v.368c0 .046-.042.082-.089.082-.612 0-.858-.193-.858-.787v-2.211c0-.046.036-.086.083-.086h.458a.09.09 0 0 1 .09.086v2.224Z" fill="currentColor"/><path fill-rule="evenodd" clip-rule="evenodd" d="M23.247 18.801c-.696 0-1.217.513-1.217 1.199 0 .68.502 1.18 1.206 1.18.524 0 .961-.28 1.113-.663.029-.07-.005-.122-.079-.122h-.426c-.055 0-.097.018-.15.072a.57.57 0 0 1-.442.192c-.3 0-.534-.187-.565-.444-.005-.035.01-.058.052-.058h1.597c.084 0 .107-.069.107-.147.003-.686-.505-1.209-1.196-1.209Zm.479.99h-.979c-.042 0-.047-.03-.037-.063a.548.548 0 0 1 .53-.409c.264 0 .48.186.528.424.002.036-.01.048-.042.048ZM24.914 18.06h1.46c.668 0 1.123.378 1.123 1.013 0 .62-.512 1.025-1.154 1.025h-.774c-.055 0-.084.033-.084.087v.85a.09.09 0 0 1-.09.086h-.48a.086.086 0 0 1-.085-.086v-2.889c0-.045.037-.086.084-.086Zm.65 1.516h.78c.319 0 .494-.265.496-.5a.47.47 0 0 0-.497-.483h-.78c-.055 0-.078.028-.078.081v.82c0 .054.023.082.078.082ZM30.3 20.601c-.078-.005-.12-.053-.12-.168v-1.49a.09.09 0 0 0-.089-.086h-.437a.081.081 0 0 0-.084.081v.069c0 .053-.047.058-.089.023a.96.96 0 0 0-.617-.229c-.623 0-1.152.506-1.152 1.188 0 .68.518 1.188 1.141 1.188.348 0 .563-.134.746-.302.047-.046.079-.035.107.01.103.17.283.257.59.257a.076.076 0 0 0 .078-.076v-.391c.005-.041-.031-.069-.073-.074Zm-1.337.018a.62.62 0 0 1-.612-.63c0-.35.27-.63.612-.63.338 0 .607.275.607.63 0 .353-.267.63-.607.63Z" fill="currentColor"/><path d="M32.384 18.86h.44c.06 0 .102.056.08.109l-.876 2.02c-.322.734-.66 1.008-1.337 1.008a.09.09 0 0 1-.09-.086v-.366c0-.046.043-.081.09-.081.306 0 .602-.157.667-.431a.24.24 0 0 0-.018-.18l-.854-1.874c-.028-.071.019-.122.074-.122h.46c.045 0 .074.036.092.081l.534 1.199c.037.093.097.088.139-.006l.51-1.2c.018-.043.042-.071.089-.071Z" fill="currentColor"/><path fill-rule="evenodd" clip-rule="evenodd" d="M3.769 0H38.23C40.31 0 42 1.64 42 3.655v18.69C42 24.36 40.31 26 38.231 26H3.77C1.69 26 0 24.36 0 22.345V3.655C0 1.64 1.69 0 3.769 0ZM38.23 25.543c1.82 0 3.298-1.434 3.298-3.198V3.655c0-1.764-1.479-3.198-3.298-3.198H3.77C1.949.457.47 1.89.47 3.655v18.69c0 1.764 1.479 3.198 3.298 3.198H38.23Z" fill="currentColor"/></svg>
