<svg viewbox="0 0 30 30" width="30" height="30" fill="none" xmlns="http://www.w3.org/2000/svg"><path d="m15 25 .139.393a.418.418 0 0 1-.279 0L15 25ZM10.193 17.647a.417.417 0 0 1 .569.154 7.642 7.642 0 0 0 2.868 2.853.417.417 0 1 1-.41.725 8.473 8.473 0 0 1-3.181-3.164.417.417 0 0 1 .154-.568Z" fill="#87B166"/><path fill-rule="evenodd" clip-rule="evenodd" d="M6.666 2.528a15 15 0 1 1 16.668 24.944A15 15 0 0 1 6.666 2.528Zm16.205.693A14.167 14.167 0 0 0 5.28 4.692l3.492 3.492c1.17-.704 2.7-1.1 4.56-1.1.05 0 .065-.012.072-.019a.37.37 0 0 0 .085-.145c.072-.183.107-.432.154-.755l.013-.095c.048-.332.112-.745.282-1.074.09-.174.217-.342.403-.466.19-.127.411-.188.658-.188.247 0 .469.061.658.187.186.123.315.291.406.464.173.329.24.742.29 1.074l.018.118c.047.313.083.556.152.737a.38.38 0 0 0 .084.146l.001.001c.006.005.016.014.058.014 2.29 0 4.084.605 5.311 1.655 1.233 1.054 1.855 2.526 1.855 4.17 0 .325-.107.61-.316.837a1.538 1.538 0 0 1-.527.358 9.87 9.87 0 0 1 .235 2.164c0 1.857-.708 3.412-1.694 4.675l3.777 3.776A14.167 14.167 0 0 0 22.87 3.221Zm1.847 22.087-3.728-3.729a12.857 12.857 0 0 1-1.839 1.63 17.488 17.488 0 0 1-3.986 2.174l-.018.007-.006.002h-.001L15 25l-.14.392h-.002l-.005-.002-.02-.007-.069-.026a16.438 16.438 0 0 1-1.165-.509 17.439 17.439 0 0 1-2.747-1.647c-1.987-1.47-4.06-3.765-4.044-6.95a9.874 9.874 0 0 1 .201-2.12 1.583 1.583 0 0 1-.592-.386 1.198 1.198 0 0 1-.317-.837v-.004c.018-1.631.65-3.101 1.89-4.158l.09-.076-3.388-3.388a14.167 14.167 0 0 0 20.026 20.026ZM13.945 7.699a.923.923 0 0 1-.612.218c-1.643 0-2.955.329-3.95.877l4.465 4.465c.376-.016.75-.026 1.119-.026.975 0 1.996.069 2.968.141l.414.031c.824.063 1.601.121 2.29.139.814.02 1.45-.019 1.872-.15.206-.066.327-.143.394-.215a.367.367 0 0 0 .095-.27c0-1.423-.532-2.656-1.564-3.538-1.037-.888-2.619-1.454-4.77-1.454a.901.901 0 0 1-.606-.221 1.183 1.183 0 0 1-.313-.475c-.106-.274-.156-.62-.2-.913a20.39 20.39 0 0 0-.016-.117c-.053-.353-.107-.625-.205-.81a.408.408 0 0 0-.128-.158.342.342 0 0 0-.198-.048.336.336 0 0 0-.195.048.397.397 0 0 0-.125.155c-.096.184-.147.457-.198.81l-.015.106c-.042.297-.091.65-.2.93-.065.164-.162.34-.322.475Zm.713 6.37c.104-.002.206-.002.309-.002.941 0 1.934.066 2.906.138l.41.03c.822.063 1.623.124 2.335.142.566.014 1.102.003 1.565-.063.14.64.21 1.295.209 1.952 0 1.59-.592 2.948-1.455 4.082l-6.279-6.28Zm-1.138.04 6.88 6.88a11.98 11.98 0 0 1-1.743 1.55A16.646 16.646 0 0 1 15 24.554a15.656 15.656 0 0 1-1.039-.457 16.614 16.614 0 0 1-2.613-1.567c-1.908-1.412-3.722-3.49-3.706-6.279v-.008a9.042 9.042 0 0 1 .179-1.92 9.96 9.96 0 0 0 1.494.053 48.706 48.706 0 0 0 2.336-.141h.002l.407-.03c.484-.037.974-.072 1.46-.097Zm-.788-.787-4.058-4.06c-.05.04-.098.079-.144.119-1.041.886-1.58 2.12-1.597 3.53 0 .128.038.206.095.268.067.072.188.15.395.214.421.132 1.057.172 1.87.15.69-.017 1.467-.075 2.292-.138a199.426 199.426 0 0 1 1.147-.083Z" fill="#87B166"/></svg>
