<svg viewbox="0 0 20 20" width="20" height="20" fill="none" xmlns="http://www.w3.org/2000/svg"><path fill-rule="evenodd" clip-rule="evenodd" d="M10.172.049a.375.375 0 0 0-.333 0L.242 4.805a.375.375 0 0 0-.216.34v9.71c0 .143.08.273.208.337l9.598 4.766A.373.373 0 0 0 9.98 20h.024a.382.382 0 0 0 .174-.042l9.597-4.766a.375.375 0 0 0 .209-.336V5.144a.372.372 0 0 0-.216-.34L10.172.05Zm9.063 14.574L10.38 19.02v-8.883l8.854-4.388v8.874ZM9.63 19.02v-8.883L.776 5.748v8.874L9.63 19.02ZM1.246 5.144l8.76-4.34 3.951 1.958L5.193 7.1 1.246 5.145ZM6.038 7.52l3.967 1.966 8.76-4.34-3.963-1.965-8.764 4.34Z" fill="currentColor"/></svg>
