<svg viewbox="0 0 46 40" width="46" height="40" fill="none" xmlns="http://www.w3.org/2000/svg"><g clip-path="url(#a)"><path d="M39.92 22.49V10.21a.714.714 0 0 0-.17-.42.8.8 0 0 0-.13-.13.746.746 0 0 0-.12-.07L20.29.08c-.21-.1-.46-.1-.67 0L.43 9.59c-.05.03-.11.06-.15.1-.17.13-.28.34-.28.58v19.42c0 .28.16.54.42.67l19.19 9.53c.09.05.19.08.3.08H20c.11-.01.21-.04.3-.08l8.86-4.4c1.56 2.68 4.45 4.49 7.78 4.49a9 9 0 0 0 9-9c.01-3.93-2.51-7.26-6.02-8.49ZM19.96 1.59l7.9 3.92-17.53 8.68-7.89-3.91 17.52-8.69Zm-.75 36.43L1.5 29.23V11.48l17.71 8.78v17.76Zm.75-19.07-7.93-3.93 17.53-8.68 7.93 3.93-17.53 8.68Zm7.99 12.03c0 1.11.21 2.17.58 3.16l-7.82 3.88V20.25l17.71-8.78V22.1c-.48-.08-.97-.13-1.47-.13-4.97.01-9 4.04-9 9.01Zm12.98-2.18-4.2 5c-.09.1-.21.17-.35.18h-.04a.46.46 0 0 1-.33-.13l-2.8-2.5a.504.504 0 0 1-.04-.71c.18-.21.5-.22.71-.04l2.42 2.16 3.87-4.61c.18-.21.49-.24.7-.06.21.19.24.5.06.71Z" fill="currentColor"/></g><defs><clipPath id="a"><path fill="#fff" d="M0 0h45.95v39.98H0z"/></clipPath></defs></svg>
