<svg viewbox="0 0 42 26" width="42" height="26" fill="none" xmlns="http://www.w3.org/2000/svg"><path d="M38.231 0H3.77C1.69 0 0 1.64 0 3.655v18.69C0 24.36 1.69 26 3.769 26H38.23C40.31 26 42 24.36 42 22.345V3.655C42 1.64 40.31 0 38.231 0Zm3.298 22.345c0 1.764-1.479 3.198-3.298 3.198H3.77c-1.82 0-3.298-1.434-3.298-3.198V3.655C.471 1.891 1.95.457 3.77.457H38.23c1.82 0 3.298 1.434 3.298 3.198v18.69Z" fill="currentColor"/><path d="M31 11.199c-.27-.307-.75-.47-1.385-.47h-1.9c-.131 0-.241.092-.262.216l-.77 4.73a.155.155 0 0 0 .157.177h.977A.184.184 0 0 0 28 15.7l.217-1.34a.262.262 0 0 1 .262-.216h.602c1.251 0 1.976-.59 2.165-1.755.08-.507 0-.908-.247-1.19Zm-1.168 1.257c-.105.662-.625.662-1.128.662h-.288l.202-1.236a.159.159 0 0 1 .157-.13h.13c.343 0 .668 0 .835.19.1.113.129.283.092.514ZM17.44 11.199c-.27-.307-.75-.47-1.385-.47h-1.9c-.131 0-.241.092-.262.216l-.77 4.73a.155.155 0 0 0 .157.177h.908c.131 0 .241-.092.262-.216l.207-1.277a.262.262 0 0 1 .262-.216h.602c1.25 0 1.976-.588 2.164-1.754.081-.507 0-.908-.246-1.19Zm-1.168 1.257c-.105.662-.626.662-1.128.662h-.288l.201-1.236a.159.159 0 0 1 .157-.13h.131c.343 0 .668 0 .835.19.1.113.128.283.092.514ZM21.734 12.435h-.91a.159.159 0 0 0-.158.13l-.039.246-.063-.089c-.196-.277-.636-.37-1.076-.37-1.005 0-1.866.738-2.033 1.776-.086.518.037 1.01.338 1.356.277.317.675.449 1.146.449.811 0 1.261-.505 1.261-.505l-.041.246a.155.155 0 0 0 .157.178h.819c.13 0 .24-.092.261-.216l.493-3.023c.018-.094-.055-.178-.155-.178Zm-1.267 1.719c-.089.505-.5.842-1.028.842-.265 0-.477-.08-.61-.238-.134-.155-.186-.376-.144-.62.081-.5.503-.85 1.02-.85.26 0 .47.084.608.241.139.158.194.381.154.625ZM35.294 12.435h-.91a.159.159 0 0 0-.157.13l-.04.246-.063-.089c-.196-.277-.636-.37-1.075-.37-1.005 0-1.866.738-2.034 1.776-.086.518.037 1.01.338 1.356.277.317.675.449 1.146.449.811 0 1.262-.505 1.262-.505l-.042.246a.155.155 0 0 0 .157.178h.82c.13 0 .24-.092.26-.216l.493-3.023c.018-.094-.058-.178-.155-.178Zm-1.269 1.719c-.089.505-.5.842-1.029.842-.264 0-.476-.08-.61-.238-.133-.155-.185-.376-.143-.62.08-.5.502-.85 1.02-.85.26 0 .469.084.608.241.141.158.196.381.154.625ZM26.584 12.435h-.916a.267.267 0 0 0-.217.112l-1.262 1.802-.534-1.733a.263.263 0 0 0-.254-.183h-.9c-.11 0-.186.104-.15.203l1.009 2.868-.948 1.297c-.076.102 0 .244.128.244h.914c.086 0 .167-.04.217-.11l3.044-4.259a.154.154 0 0 0-.131-.24ZM37.404 10.73h-.877a.159.159 0 0 0-.157.129l-.78 4.815a.155.155 0 0 0 .157.178h.785c.131 0 .241-.092.262-.216l.77-4.729a.16.16 0 0 0-.16-.178ZM10.964 11.341a1.096 1.096 0 0 0-.202-.172c-.002.007-.002.015-.005.02-.332 1.652-1.426 2.49-3.256 2.49h-.748a.07.07 0 0 0-.066.046l-.49 3.025a.08.08 0 0 0 .02.064c.01.01.028.028.062.028h1.33a.204.204 0 0 0 .206-.173l.013-.068.267-1.625c.032-.2.212-.35.424-.35h.2c1.415 0 2.23-.62 2.486-1.891.125-.622.047-1.076-.241-1.394Z" fill="currentColor"/><path d="M6.302 13.603a.47.47 0 0 1 .45-.315h.752c1.628 0 2.562-.71 2.855-2.173l.027-.142c.096-.594.002-.98-.32-1.338-.34-.375-.968-.566-1.869-.566H5.64a.251.251 0 0 0-.251.209l-1.065 6.548a.098.098 0 0 0 .023.084c.021.026.05.038.084.038h1.484l.382-2.348.005.003Z" fill="currentColor"/></svg>
