<svg width="41" height="30" viewBox="0 0 41 30" fill="none" xmlns="http://www.w3.org/2000/svg">
<g clip-path="url(#clip0_5670_135129)">
<path d="M13.2414 6.82635C12.7681 7.18563 12.178 7.63473 12.178 8.52695C12.178 8.77246 12.387 8.97605 12.639 8.97605C12.8911 8.97605 13.1001 8.77246 13.1001 8.52695C13.1001 8.09581 13.3582 7.88024 13.8131 7.53293C14.2864 7.17365 14.8827 6.72455 14.8827 5.83234C14.8827 4.94012 14.2926 4.49102 13.8131 4.13174C13.3582 3.79042 13.1001 3.56886 13.1001 3.13772C13.1001 2.70659 13.3582 2.49102 13.8131 2.1497C14.2864 1.79042 14.8827 1.34132 14.8827 0.449102C14.8827 0.203593 14.6737 0 14.4216 0C14.1696 0 13.9606 0.203593 13.9606 0.449102C13.9606 0.88024 13.7025 1.09581 13.2537 1.43713C12.7681 1.79641 12.1719 2.24551 12.1719 3.13772C12.1719 4.02994 12.762 4.47904 13.2414 4.83832C13.6963 5.17964 13.9545 5.4012 13.9545 5.83234C13.9545 6.26946 13.6963 6.48503 13.2414 6.82635Z" fill="#142d23"/>
<path d="M5.82152 9.29913C5.34821 9.65841 4.7581 10.1075 4.7581 10.9997C4.7581 11.2452 4.9671 11.4488 5.21912 11.4488C5.47114 11.4488 5.68014 11.2452 5.68014 10.9997C5.68014 10.5686 5.93831 10.353 6.39318 10.0057C6.8665 9.64644 7.46275 9.19734 7.46275 8.30512C7.46275 7.4129 6.87264 6.9638 6.39318 6.60452C5.93831 6.2632 5.68014 6.04165 5.68014 5.61051C5.68014 5.17937 5.93831 4.9638 6.39318 4.6165C6.8665 4.25722 7.46275 3.80811 7.46275 2.9159C7.46275 2.67039 7.25375 2.4668 7.00173 2.4668C6.7497 2.4668 6.54071 2.67039 6.54071 2.9159C6.54071 3.34704 6.28254 3.56261 5.83381 3.90392C5.3482 4.27518 4.75195 4.72428 4.75195 5.6165C4.75195 6.50871 5.34206 6.95782 5.82152 7.3171C6.27639 7.6644 6.53456 7.87997 6.53456 8.31111C6.52842 8.74225 6.27639 8.95781 5.82152 9.29913Z" fill="#142d23"/>
<path d="M20.6591 9.29913C20.1858 9.65841 19.5957 10.1075 19.5957 10.9997C19.5957 11.2452 19.8047 11.4488 20.0567 11.4488C20.3087 11.4488 20.5177 11.2452 20.5177 10.9997C20.5177 10.5686 20.7759 10.353 21.2308 10.0057C21.7041 9.64644 22.3004 9.19734 22.3004 8.30512C22.3004 7.4129 21.7102 6.9638 21.2308 6.60452C20.7759 6.2632 20.5177 6.04165 20.5177 5.61051C20.5177 5.17937 20.7759 4.9638 21.2308 4.6165C21.7041 4.25722 22.3004 3.80811 22.3004 2.9159C22.3004 2.67039 22.0914 2.4668 21.8393 2.4668C21.5873 2.4668 21.3783 2.67039 21.3783 2.9159C21.3783 3.34704 21.1201 3.56261 20.6714 3.90392C20.1981 4.2632 19.6019 4.71231 19.6019 5.60452C19.6019 6.49674 20.192 6.94584 20.6714 7.30512C21.1263 7.65243 21.3845 7.86799 21.3845 8.29913C21.3722 8.74225 21.114 8.95781 20.6591 9.29913Z" fill="#142d23"/>
<path d="M40.5144 14.9644L27.0465 15.7967V14.2518C27.0465 14.0063 26.8375 13.8027 26.5855 13.8027H0.46102C0.208996 13.8087 0 14.0063 0 14.2578V16.2758C0 16.5213 0.208996 16.7249 0.46102 16.7249H1.43838V29.5512C1.43838 29.7967 1.64738 30.0003 1.8994 30.0003H25.1532C25.4052 30.0003 25.6142 29.7967 25.6142 29.5512V18.7608L40.4898 20.4375C40.5083 20.4375 40.5267 20.4435 40.5451 20.4435C40.6558 20.4435 40.7664 20.4015 40.8525 20.3297C40.9508 20.2458 41.0061 20.1201 41.0061 19.9944V15.4135C41.0061 15.2878 40.9508 15.168 40.8586 15.0842C40.7664 15.0003 40.6435 14.9584 40.5144 14.9644ZM24.6922 29.1021H2.36042V16.7249H24.6922V29.1021ZM25.1594 15.8267H25.1471H1.8994H0.922039V14.7069H26.1244V15.8267H25.1594ZM40.078 19.4854L25.6204 17.8566V16.7189H26.5855H26.5916H26.6162L40.0841 15.8806C40.078 15.8866 40.078 19.4854 40.078 19.4854Z" fill="#142d23"/>
</g>
<defs>
<clipPath id="clip0_5670_135129">
<rect width="41" height="30" fill="white"/>
</clipPath>
</defs>
</svg>
