<svg viewbox="0 0 20 20" width="20" height="20" fill="none" xmlns="http://www.w3.org/2000/svg"><path d="M11.627.76a.14.14 0 0 1 .138.086.145.145 0 0 1 .012.057v2.742a.375.375 0 0 0 .75 0V.905a.897.897 0 0 0-.586-.841.89.89 0 0 0-.346-.053H.901A.89.89 0 0 0 .01.904v18.233a.894.894 0 0 0 .891.893h10.735a.889.889 0 0 0 .89-.893v-8.985a.375.375 0 1 0-.75 0v8.985a.144.144 0 0 1-.087.132.14.14 0 0 1-.053.01H.9a.14.14 0 0 1-.13-.087.144.144 0 0 1-.011-.055V.904C.76.865.775.829.802.802a.14.14 0 0 1 .1-.041h10.725Z" fill="currentColor"/><path d="M15.033 3.08a.375.375 0 0 1 .528-.05l4.216 3.492a.375.375 0 0 1 0 .722l-4.216 3.492a.375.375 0 1 1-.479-.578l3.502-2.9h-6.432a5.693 5.693 0 0 0-4.014 1.657 5.724 5.724 0 0 0-1.687 4.012.375.375 0 1 1-.75-.006 6.474 6.474 0 0 1 1.908-4.538 6.443 6.443 0 0 1 4.543-1.875h6.432l-3.502-2.9a.375.375 0 0 1-.05-.527Z" fill="currentColor"/></svg>
