<svg viewbox="0 0 18 20" width="18" height="20" fill="none" xmlns="http://www.w3.org/2000/svg"><path d="M6.807 7.15a.375.375 0 0 1 .386.363l.267 9.347a.375.375 0 1 1-.75.022l-.267-9.347a.375.375 0 0 1 .364-.386ZM11.557 7.535a.375.375 0 0 0-.75-.022l-.267 9.347a.375.375 0 0 0 .75.022l.267-9.347Z" fill="currentColor"/><path fill-rule="evenodd" clip-rule="evenodd" d="M12.398 4.162v-.658a3.525 3.525 0 0 0-1.064-2.34A3.386 3.386 0 0 0 8.98.209c-.877 0-1.718.343-2.353.957a3.525 3.525 0 0 0-1.065 2.359v.638H.376a.375.375 0 1 0 0 .75h1.59l1.024 14.74a.375.375 0 0 0 .374.348h11.271c.197 0 .361-.152.375-.349l1.024-14.74h1.59a.375.375 0 0 0 0-.75h-5.226ZM8.98.958c-.68 0-1.335.266-1.832.746a2.775 2.775 0 0 0-.836 1.83v.628h5.336v-.627a2.775 2.775 0 0 0-.835-1.831A2.636 2.636 0 0 0 8.98.958Zm6.303 3.954H2.718l.996 14.338h10.572l.997-14.338Z" fill="currentColor"/></svg>
