<svg viewbox="0 0 42 26" width="42" height="26" fill="none" xmlns="http://www.w3.org/2000/svg"><path d="M38.231 0H3.77C1.69 0 0 1.64 0 3.655v18.69C0 24.36 1.69 26 3.769 26H38.23C40.31 26 42 24.36 42 22.345V3.655C42 1.64 40.31 0 38.231 0Zm3.298 22.345c0 1.764-1.479 3.198-3.298 3.198H3.77c-1.82 0-3.298-1.434-3.298-3.198V3.655C.471 1.891 1.95.457 3.77.457H38.23c1.82 0 3.298 1.434 3.298 3.198v18.69Z" fill="currentColor"/><path d="m14.646 8.826-2.324 5.696-.94-4.843a1.03 1.03 0 0 0-1.028-.853H6.556l-.052.243c.78.165 1.665.43 2.201.711.33.173.422.325.532.736l1.78 6.679h2.36l3.617-8.37h-2.348ZM17.95 8.826l-1.848 8.371h2.232l1.848-8.371H17.95ZM30.421 8.826c-.43 0-.79.24-.95.614l-3.35 7.757h2.345l.466-1.251h2.863l.27 1.251h2.065l-1.804-8.369h-1.905v-.002Zm-.848 5.404 1.175-3.143.675 3.143h-1.85ZM23.11 11.146c.009-.3.302-.62.948-.7.32-.041 1.202-.072 2.201.372l.393-1.774a6.19 6.19 0 0 0-2.089-.37c-2.206 0-3.758 1.137-3.771 2.766-.016 1.206 1.107 1.879 1.952 2.277.872.411 1.163.673 1.16 1.04-.005.562-.694.81-1.338.82-1.122.018-1.771-.294-2.292-.527l-.406 1.832c.52.231 1.484.434 2.481.444 2.345 0 3.88-1.124 3.887-2.863.01-2.208-3.149-2.33-3.125-3.317Z" fill="currentColor"/></svg>
